<?xml version="1.0" encoding="UTF-8" standalone="no"?>
<!-- Generator: Adobe Illustrator 16.0.4, SVG Export Plug-In . SVG Version: 6.00 Build 0)  -->

<svg
   xmlns:dc="http://purl.org/dc/elements/1.1/"
   xmlns:cc="http://creativecommons.org/ns#"
   xmlns:rdf="http://www.w3.org/1999/02/22-rdf-syntax-ns#"
   xmlns:svg="http://www.w3.org/2000/svg"
   xmlns="http://www.w3.org/2000/svg"
   xmlns:sodipodi="http://sodipodi.sourceforge.net/DTD/sodipodi-0.dtd"
   xmlns:inkscape="http://www.inkscape.org/namespaces/inkscape"
   version="1.1"
   id="Capa_1"
   x="0px"
   y="0px"
   width="150"
   height="130"
   viewBox="0 0 150 130"
   enable-background="new 0 0 216 146"
   xml:space="preserve"
   inkscape:version="0.48.3.1 r9886"
   sodipodi:docname="icon-vk.svg"><metadata
   id="metadata9"><rdf:RDF><cc:Work
       rdf:about=""><dc:format>image/svg+xml</dc:format><dc:type
         rdf:resource="http://purl.org/dc/dcmitype/StillImage" /></cc:Work></rdf:RDF></metadata><defs
   id="defs7" /><sodipodi:namedview
   pagecolor="#ffffff"
   bordercolor="#666666"
   borderopacity="1"
   objecttolerance="10"
   gridtolerance="10"
   guidetolerance="10"
   inkscape:pageopacity="0"
   inkscape:pageshadow="2"
   inkscape:window-width="640"
   inkscape:window-height="480"
   id="namedview5"
   showgrid="false"
   inkscape:zoom="1.4305556"
   inkscape:cx="108"
   inkscape:cy="73"
   inkscape:window-x="65"
   inkscape:window-y="24"
   inkscape:window-maximized="0"
   inkscape:current-layer="Capa_1" />
<path
   d="m 132.48209,91.459166 c -0.14425,-0.31536 -0.27935,-0.577386 -0.40452,-0.786853 -2.07219,-3.779672 -6.03188,-8.418853 -11.87753,-13.918315 l -0.12365,-0.125989 -0.0618,-0.06183 -0.0626,-0.06338 h -0.0626 c -2.65302,-2.56152 -4.33291,-4.282856 -5.03662,-5.164779 -1.28682,-1.679597 -1.57532,-3.37929 -0.87162,-5.101399 0.49687,-1.301629 2.36375,-4.050201 5.59684,-8.248807 1.69973,-2.225291 3.04685,-4.009235 4.04135,-5.352603 7.17216,-9.65633 10.2816,-15.827476 9.32755,-18.514212 l -0.37017,-0.6284 c -0.24882,-0.377967 -0.89146,-0.723471 -1.92642,-1.03883 -1.03724,-0.31536 -2.36375,-0.367147 -3.98105,-0.15768 l -17.90866,0.125989 c -0.29003,-0.104347 -0.70447,-0.09429 -1.24408,0.03169 -0.53885,0.125989 -0.80904,0.18937 -0.80904,0.18937 l -0.3114,0.15768 -0.24729,0.189369 c -0.20683,0.125217 -0.43504,0.345505 -0.68386,0.66009 -0.24729,0.314587 -0.45489,0.682506 -0.62051,1.102212 -1.94932,5.079756 -4.16653,9.803187 -6.653925,14.168748 -1.534112,2.603259 -2.943052,4.859469 -4.229111,6.770174 -1.285295,1.909933 -2.362989,3.316682 -3.233082,4.218702 -0.870856,0.902793 -1.657756,1.626265 -2.362986,2.172733 -0.705233,0.546467 -1.243317,0.776804 -1.616541,0.692553 -0.373224,-0.08425 -0.725078,-0.168501 -1.05785,-0.251978 -0.580062,-0.377968 -1.046401,-0.891972 -1.398255,-1.542787 -0.35338,-0.650815 -0.59151,-1.470131 -0.715919,-2.456401 -0.123644,-0.987043 -0.196915,-1.836503 -0.217523,-2.550699 -0.01984,-0.713422 -0.01069,-1.721335 0.03129,-3.022965 0.04274,-1.30163 0.06259,-2.18278 0.06259,-2.644998 0,-1.595346 0.03053,-3.326731 0.09235,-5.194924 0.06258,-1.868194 0.113722,-3.348373 0.155701,-4.439763 0.04198,-1.09139 0.06182,-2.246161 0.06182,-3.463541 0,-1.217378 -0.07251,-2.172731 -0.217523,-2.865285 -0.143489,-0.692553 -0.361776,-1.364238 -0.651807,-2.015053 -0.290794,-0.650814 -0.715919,-1.15477 -1.27461,-1.511868 -0.559454,-0.356325 -1.254766,-0.639994 -2.08288,-0.850234 -2.197367,-0.503183 -4.995403,-0.77603 -8.395635,-0.818542 -7.710246,-0.08347 -12.664433,0.420479 -14.8618,1.511869 -0.870856,0.461445 -1.658519,1.091391 -2.362989,1.889063 -0.746449,0.923663 -0.850249,1.427619 -0.311402,1.511097 2.487397,0.377194 4.248954,1.279986 5.285433,2.707605 l 0.373225,0.755935 c 0.290794,0.545695 0.580825,1.511869 0.870856,2.896976 0.290031,1.385107 0.477025,2.917846 0.559454,4.59667 0.206838,3.064704 0.206838,5.688832 0,7.871612 -0.207601,2.183553 -0.403753,3.884019 -0.590747,5.101399 -0.186994,1.217379 -0.466339,2.203649 -0.839563,2.959584 -0.373225,0.755161 -0.622041,1.217379 -0.746449,1.385107 -0.124408,0.167728 -0.228208,0.272847 -0.310638,0.314586 -0.538847,0.209466 -1.099065,0.315359 -1.679127,0.315359 -0.580825,0 -1.285295,-0.29449 -2.114173,-0.881923 -0.828879,-0.588207 -1.68905,-1.395929 -2.580513,-2.424711 -0.891464,-1.028782 -1.89665,-2.466448 -3.016323,-4.313773 -1.118909,-1.847325 -2.279796,-4.030105 -3.481898,-6.549114 l -0.994489,-1.826453 c -0.62204,-1.17564 -1.471525,-2.886155 -2.54922,-5.132317 -1.078457,-2.246161 -2.031743,-4.418892 -2.860621,-6.518196 -0.331246,-0.881923 -0.828878,-1.552834 -1.492133,-2.015052 l -0.311402,-0.18937 c -0.206838,-0.167728 -0.538847,-0.345504 -0.994501,-0.534874 -0.456417,-0.189371 -0.932679,-0.325407 -1.430311,-0.409657 l -17.038559,0.125988 c -1.740949,0 -2.922444,0.398837 -3.544484,1.19651 l -0.248816,0.377968 c -0.124408,0.209466 -0.186994,0.545695 -0.186994,1.007139 0,0.462218 0.124408,1.028782 0.373224,1.700466 2.487398,5.919942 5.192319,11.629643 8.114763,17.129106 2.922444,5.499462 5.461742,9.929176 7.61713,13.286051 2.155388,3.359194 4.352755,6.529017 6.591336,9.509471 2.238582,2.980454 3.720793,4.891159 4.445871,5.730571 0.72584,0.840958 1.29598,1.469357 1.710419,1.889063 l 1.554719,1.511097 c 0.995264,1.007912 2.456105,2.215243 4.384048,3.62122 1.927943,1.406749 4.062724,2.791855 6.405106,4.157639 2.342382,1.363468 5.06791,2.475723 8.177348,3.336007 3.109438,0.861827 6.135682,1.207332 9.078734,1.04038 h 7.151554 c 1.450155,-0.126767 2.54922,-0.588979 3.295668,-1.385879 l 0.24729,-0.315366 c 0.166386,-0.250428 0.322087,-0.639988 0.466339,-1.164041 0.145016,-0.52483 0.217524,-1.102989 0.217524,-1.731388 -0.04198,-1.804813 0.09311,-3.43185 0.403753,-4.880338 0.309876,-1.447715 0.663255,-2.539106 1.05785,-3.274171 0.394595,-0.734292 0.840327,-1.35419 1.336433,-1.8566 0.497632,-0.503956 0.851012,-0.808494 1.058613,-0.913614 0.206838,-0.105892 0.371698,-0.177776 0.496106,-0.220288 0.99526,-0.336228 2.166069,-0.01082 3.51395,0.976222 1.347881,0.987044 2.611806,2.205196 3.794064,3.652911 1.181495,1.449261 2.60112,3.075525 4.258877,4.880338 1.659281,1.804813 3.109441,3.14741 4.352751,4.030112 l 1.24332,0.755925 c 0.83041,0.503963 1.9081,0.966176 3.23461,1.385889 1.32498,0.4197 2.48511,0.524816 3.4819,0.314575 l 15.91813,-0.251201 c 1.57456,0 2.79956,-0.264346 3.66889,-0.788398 0.87086,-0.524053 1.38757,-1.102211 1.55472,-1.731379 0.16638,-0.629177 0.17554,-1.343372 0.0313,-2.141819 -0.14654,-0.7969 -0.29156,-1.353416 -0.43657,-1.668775 z"
   id="path3"
   inkscape:connector-curvature="0" />
</svg>