<?xml version="1.0" encoding="UTF-8" standalone="no"?>
<!-- Generator: Adobe Illustrator 16.0.4, SVG Export Plug-In . SVG Version: 6.00 Build 0)  -->

<svg
   xmlns:dc="http://purl.org/dc/elements/1.1/"
   xmlns:cc="http://creativecommons.org/ns#"
   xmlns:rdf="http://www.w3.org/1999/02/22-rdf-syntax-ns#"
   xmlns:svg="http://www.w3.org/2000/svg"
   xmlns="http://www.w3.org/2000/svg"
   xmlns:sodipodi="http://sodipodi.sourceforge.net/DTD/sodipodi-0.dtd"
   xmlns:inkscape="http://www.inkscape.org/namespaces/inkscape"
   version="1.1"
   id="Capa_1"
   x="0px"
   y="0px"
   width="150"
   height="130"
   viewBox="0 0 150 130"
   enable-background="new 0 0 216 146"
   xml:space="preserve"
   inkscape:version="0.48.3.1 r9886"
   sodipodi:docname="icon-flag.svg"><metadata
   id="metadata13"><rdf:RDF><cc:Work
       rdf:about=""><dc:format>image/svg+xml</dc:format><dc:type
         rdf:resource="http://purl.org/dc/dcmitype/StillImage" /></cc:Work></rdf:RDF></metadata><defs
   id="defs11" /><sodipodi:namedview
   pagecolor="#ffffff"
   bordercolor="#666666"
   borderopacity="1"
   objecttolerance="10"
   gridtolerance="10"
   guidetolerance="10"
   inkscape:pageopacity="0"
   inkscape:pageshadow="2"
   inkscape:window-width="640"
   inkscape:window-height="480"
   id="namedview9"
   showgrid="false"
   inkscape:zoom="1.4305556"
   inkscape:cx="108"
   inkscape:cy="73"
   inkscape:window-x="65"
   inkscape:window-y="24"
   inkscape:window-maximized="0"
   inkscape:current-layer="Capa_1" />
<g
   id="g3"
   transform="matrix(0.78649535,0,0,0.83801056,-9.446245,3.8639828)">
	<path
   d="m 55.41,13.483 c -2.037,-2.036 -4.495,-3.055 -7.373,-3.055 -2.879,0 -5.337,1.02 -7.374,3.055 -2.036,2.037 -3.055,4.495 -3.055,7.374 0,3.91 1.737,6.898 5.214,8.962 v 103.145 c 0,0.706 0.257,1.317 0.774,1.833 0.516,0.516 1.127,0.774 1.833,0.774 h 5.214 c 0.706,0 1.317,-0.257 1.833,-0.774 0.516,-0.516 0.774,-1.127 0.774,-1.833 V 29.819 c 3.477,-2.065 5.214,-5.052 5.214,-8.962 0,-2.878 -1.018,-5.336 -3.054,-7.374 z"
   id="path5"
   inkscape:connector-curvature="0" />
	<path
   d="m 176.846,22.406 c -1.033,-1.032 -2.256,-1.548 -3.668,-1.548 -0.705,0 -2.185,0.57 -4.439,1.711 -2.254,1.141 -4.645,2.417 -7.17,3.829 -2.524,1.412 -5.514,2.688 -8.961,3.829 -3.449,1.141 -6.64,1.711 -9.573,1.711 -2.716,0 -5.106,-0.516 -7.171,-1.548 -6.844,-3.205 -12.79,-5.595 -17.842,-7.17 -5.051,-1.575 -10.482,-2.362 -16.294,-2.362 -10.049,0 -21.482,3.258 -34.3,9.776 -3.151,1.575 -5.296,2.743 -6.437,3.503 -1.684,1.25 -2.526,2.743 -2.526,4.481 v 60.453 c 0,1.412 0.517,2.635 1.549,3.666 1.031,1.032 2.254,1.548 3.666,1.548 0.869,0 1.764,-0.244 2.688,-0.732 14.774,-7.931 27.375,-11.896 37.804,-11.896 3.964,0 7.835,0.598 11.608,1.792 3.775,1.195 6.912,2.499 9.41,3.911 2.5,1.411 5.445,2.716 8.84,3.911 3.396,1.193 6.75,1.791 10.062,1.791 8.365,0 18.387,-3.149 30.064,-9.45 1.467,-0.761 2.539,-1.507 3.218,-2.24 0.679,-0.733 1.019,-1.778 1.019,-3.137 V 26.071 c 0,-1.412 -0.516,-2.633 -1.547,-3.665 z"
   id="path7"
   inkscape:connector-curvature="0" />
</g>
</svg>