<?xml version="1.0" encoding="UTF-8" standalone="no"?>
<!-- Generator: Adobe Illustrator 16.0.4, SVG Export Plug-In . SVG Version: 6.00 Build 0)  -->

<svg
   xmlns:dc="http://purl.org/dc/elements/1.1/"
   xmlns:cc="http://creativecommons.org/ns#"
   xmlns:rdf="http://www.w3.org/1999/02/22-rdf-syntax-ns#"
   xmlns:svg="http://www.w3.org/2000/svg"
   xmlns="http://www.w3.org/2000/svg"
   xmlns:sodipodi="http://sodipodi.sourceforge.net/DTD/sodipodi-0.dtd"
   xmlns:inkscape="http://www.inkscape.org/namespaces/inkscape"
   version="1.1"
   id="Capa_1"
   x="0px"
   y="0px"
   width="150"
   height="130"
   viewBox="0 0 150 130"
   enable-background="new 0 0 216 146"
   xml:space="preserve"
   inkscape:version="0.48.3.1 r9886"
   sodipodi:docname="icon-film.svg"><metadata
   id="metadata9"><rdf:RDF><cc:Work
       rdf:about=""><dc:format>image/svg+xml</dc:format><dc:type
         rdf:resource="http://purl.org/dc/dcmitype/StillImage" /></cc:Work></rdf:RDF></metadata><defs
   id="defs7" /><sodipodi:namedview
   pagecolor="#ffffff"
   bordercolor="#666666"
   borderopacity="1"
   objecttolerance="10"
   gridtolerance="10"
   guidetolerance="10"
   inkscape:pageopacity="0"
   inkscape:pageshadow="2"
   inkscape:window-width="640"
   inkscape:window-height="480"
   id="namedview5"
   showgrid="false"
   inkscape:zoom="1.4305556"
   inkscape:cx="108"
   inkscape:cy="73"
   inkscape:window-x="65"
   inkscape:window-y="24"
   inkscape:window-maximized="0"
   inkscape:current-layer="Capa_1" />
<path
   d="m 128.23922,26.091102 c -1.83428,-1.750012 -4.03784,-2.624675 -6.61429,-2.624675 H 27.966584 c -2.575735,0 -4.780019,0.874663 -6.615007,2.624675 -1.834268,1.750697 -2.751043,3.853727 -2.751043,6.311148 v 75.05926 c 0,2.45742 0.916775,4.56114 2.751043,6.31115 1.834988,1.75002 4.039272,2.62399 6.615007,2.62399 h 93.659776 c 2.57502,0 4.77931,-0.87397 6.61357,-2.62399 1.83427,-1.75001 2.75177,-3.85373 2.75177,-6.31115 V 32.40225 c 0,-2.457421 -0.9175,-4.560451 -2.75248,-6.311148 z M 41.078767,105.67449 c 0,0.96788 -0.370015,1.80621 -1.111482,2.51294 -0.741467,0.7081 -1.619444,1.0618 -2.63465,1.0618 h -7.492266 c -1.014488,0 -1.893184,-0.3537 -2.634651,-1.0618 -0.740748,-0.70673 -1.1122,-1.54506 -1.1122,-2.51294 v -7.148116 c 0,-0.96789 0.371452,-1.80622 1.1122,-2.513623 0.741467,-0.70741 1.620163,-1.061111 2.634651,-1.061111 h 7.491547 c 1.015206,0 1.893184,0.353701 2.63465,1.061111 0.741468,0.707403 1.112201,1.545733 1.112201,2.513623 v 7.148116 z m 0,-21.445704 c 0,0.967888 -0.370015,1.806221 -1.111482,2.512943 -0.741467,0.706723 -1.619444,1.061112 -2.63465,1.061112 h -7.492266 c -1.014488,0 -1.893184,-0.354389 -2.634651,-1.061112 -0.740748,-0.706722 -1.1122,-1.545055 -1.1122,-2.512943 v -7.149481 c 0,-0.967887 0.371452,-1.805534 1.1122,-2.512942 0.741467,-0.706723 1.620163,-1.061112 2.634651,-1.061112 h 7.491547 c 1.015206,0 1.893184,0.354389 2.63465,1.061112 0.741468,0.707408 1.112201,1.545055 1.112201,2.512942 v 7.149481 z m 0,-21.445699 c 0,0.968573 -0.370015,1.80622 -1.111482,2.513628 -0.741467,0.707408 -1.619444,1.061112 -2.63465,1.061112 h -7.492266 c -1.014488,0 -1.893184,-0.353704 -2.634651,-1.061112 -0.740748,-0.707408 -1.1122,-1.545055 -1.1122,-2.513628 v -7.14811 c 0,-0.968573 0.371452,-1.806222 1.1122,-2.513629 0.741467,-0.707408 1.620163,-1.061111 2.634651,-1.061111 h 7.491547 c 1.015206,0 1.893184,0.353703 2.63465,1.061111 0.741468,0.708093 1.112201,1.545741 1.112201,2.513629 v 7.14811 z m 0,-21.445016 c 0,0.967888 -0.370015,1.806222 -1.111482,2.51363 -0.741467,0.707407 -1.619444,1.061111 -2.63465,1.061111 h -7.492266 c -1.014488,0 -1.893184,-0.353704 -2.634651,-1.061111 -0.740748,-0.708094 -1.1122,-1.545057 -1.1122,-2.51363 v -7.148109 c 0,-0.968573 0.371452,-1.806221 1.1122,-2.513628 0.741467,-0.707408 1.620163,-1.061112 2.634651,-1.061112 h 7.491547 c 1.015206,0 1.893184,0.353704 2.63465,1.061112 0.741468,0.708093 1.112201,1.545741 1.112201,2.513628 v 7.148109 z m 59.941723,64.336419 c 0,0.96788 -0.37074,1.80621 -1.112207,2.51294 -0.741465,0.7081 -1.620167,1.0618 -2.634653,1.0618 H 52.317884 c -1.014488,0 -1.892465,-0.3537 -2.633933,-1.0618 -0.741466,-0.70673 -1.1122,-1.54506 -1.1122,-2.51294 V 77.080676 c 0,-0.967202 0.370734,-1.805534 1.1122,-2.513628 0.741468,-0.706723 1.619445,-1.060426 2.633933,-1.060426 H 97.27363 c 1.014486,0 1.893188,0.353703 2.634653,1.060426 0.741467,0.708094 1.112207,1.546426 1.112207,2.513628 v 28.593814 z m 0,-42.891403 c 0,0.968573 -0.37074,1.80622 -1.112207,2.513628 -0.741465,0.707408 -1.620167,1.061112 -2.634653,1.061112 H 52.317884 c -1.014488,0 -1.892465,-0.353704 -2.633933,-1.061112 -0.741466,-0.707408 -1.1122,-1.545055 -1.1122,-2.513628 v -28.59381 c 0,-0.968573 0.370734,-1.806221 1.1122,-2.513628 0.741468,-0.707409 1.619445,-1.061113 2.633933,-1.061113 H 97.27363 c 1.014486,0 1.893188,0.353704 2.634653,1.061113 0.741467,0.708092 1.112207,1.54574 1.112207,2.513628 v 28.59381 z m 22.4775,42.891403 c 0,0.96788 -0.37073,1.80621 -1.11148,2.51294 -0.74218,0.7081 -1.62088,1.0618 -2.63537,1.0618 h -7.49226 c -1.01449,0 -1.89318,-0.3537 -2.63393,-1.0618 -0.74219,-0.70673 -1.11292,-1.54506 -1.11292,-2.51294 v -7.148116 c 0,-0.96789 0.37073,-1.80622 1.11292,-2.513623 0.74075,-0.70741 1.61944,-1.061111 2.63393,-1.061111 h 7.49226 c 1.01449,0 1.89319,0.353701 2.63537,1.061111 0.74075,0.707403 1.11148,1.545733 1.11148,2.513623 v 7.148116 z m 0,-21.445704 c 0,0.967888 -0.37073,1.806221 -1.11148,2.512943 -0.74218,0.706723 -1.62088,1.061112 -2.63537,1.061112 h -7.49226 c -1.01449,0 -1.89318,-0.354389 -2.63393,-1.061112 -0.74219,-0.706722 -1.11292,-1.545055 -1.11292,-2.512943 v -7.149481 c 0,-0.967887 0.37073,-1.805534 1.11292,-2.512942 0.74075,-0.706723 1.61944,-1.061112 2.63393,-1.061112 h 7.49226 c 1.01449,0 1.89319,0.354389 2.63537,1.061112 0.74075,0.707408 1.11148,1.545055 1.11148,2.512942 v 7.149481 z m 0,-21.445699 c 0,0.968573 -0.37073,1.80622 -1.11148,2.513628 -0.74218,0.707408 -1.62088,1.061112 -2.63537,1.061112 h -7.49226 c -1.01449,0 -1.89318,-0.353704 -2.63393,-1.061112 -0.74219,-0.707408 -1.11292,-1.545055 -1.11292,-2.513628 v -7.14811 c 0,-0.968573 0.37073,-1.806222 1.11292,-2.513629 0.74075,-0.707408 1.61944,-1.061111 2.63393,-1.061111 h 7.49226 c 1.01449,0 1.89319,0.353703 2.63537,1.061111 0.74075,0.708093 1.11148,1.545741 1.11148,2.513629 v 7.14811 z m 0,-21.445016 c 0,0.967888 -0.37073,1.805536 -1.11148,2.51363 -0.74218,0.707407 -1.62088,1.061111 -2.63537,1.061111 h -7.49226 c -1.01449,0 -1.89318,-0.353019 -2.63393,-1.061111 -0.74219,-0.708094 -1.11292,-1.545057 -1.11292,-2.51363 v -7.148109 c 0,-0.968573 0.37073,-1.806221 1.11292,-2.513628 0.74075,-0.707408 1.61944,-1.061112 2.63393,-1.061112 h 7.49226 c 1.01449,0 1.89319,0.353704 2.63537,1.061112 0.74075,0.708093 1.11148,1.545741 1.11148,2.513628 v 7.148109 z"
   id="path3"
   inkscape:connector-curvature="0" />
</svg>