<?xml version="1.0" encoding="UTF-8" standalone="no"?>
<!-- Generator: Adobe Illustrator 16.0.4, SVG Export Plug-In . SVG Version: 6.00 Build 0)  -->

<svg
   xmlns:dc="http://purl.org/dc/elements/1.1/"
   xmlns:cc="http://creativecommons.org/ns#"
   xmlns:rdf="http://www.w3.org/1999/02/22-rdf-syntax-ns#"
   xmlns:svg="http://www.w3.org/2000/svg"
   xmlns="http://www.w3.org/2000/svg"
   xmlns:sodipodi="http://sodipodi.sourceforge.net/DTD/sodipodi-0.dtd"
   xmlns:inkscape="http://www.inkscape.org/namespaces/inkscape"
   version="1.1"
   id="Capa_1"
   x="0px"
   y="0px"
   width="150"
   height="130"
   viewBox="0 0 150 130"
   enable-background="new 0 0 216 146"
   xml:space="preserve"
   inkscape:version="0.48.3.1 r9886"
   sodipodi:docname="icon-star-half.svg"><metadata
   id="metadata9"><rdf:RDF><cc:Work
       rdf:about=""><dc:format>image/svg+xml</dc:format><dc:type
         rdf:resource="http://purl.org/dc/dcmitype/StillImage" /></cc:Work></rdf:RDF></metadata><defs
   id="defs7" /><sodipodi:namedview
   pagecolor="#ffffff"
   bordercolor="#666666"
   borderopacity="1"
   objecttolerance="10"
   gridtolerance="10"
   guidetolerance="10"
   inkscape:pageopacity="0"
   inkscape:pageshadow="2"
   inkscape:window-width="640"
   inkscape:window-height="480"
   id="namedview5"
   showgrid="false"
   inkscape:zoom="1.4305556"
   inkscape:cx="108"
   inkscape:cy="73"
   inkscape:window-x="65"
   inkscape:window-y="24"
   inkscape:window-maximized="0"
   inkscape:current-layer="Capa_1" />
<path
   d="m 123.23887,54.02398 c -0.3496,-1.130526 -1.40054,-1.839564 -3.15067,-2.127114 L 90.78865,47.396706 77.657262,19.345434 c -0.818115,-1.685195 -1.77091,-2.527414 -2.85982,-2.527414 -1.128311,0 -2.081823,0.842219 -2.85982,2.527414 l -13.13282,28.051272 -29.299543,4.50016 c -1.750851,0.28755 -2.801792,0.996588 -3.151389,2.127114 -0.349598,1.130526 0.09743,2.353371 1.34251,3.668534 l 21.245195,21.824299 -5.019012,30.825377 c -0.194141,1.35678 -0.07809,2.41315 0.350313,3.1744 0.427684,0.76125 1.089626,1.14112 1.984394,1.14112 0.661943,0 1.43994,-0.24669 2.334708,-0.74082 L 74.798875,99.366099 101.00506,113.91689 c 0.89477,0.49338 1.67348,0.74082 2.33471,0.74082 0.89548,0 1.55814,-0.37987 1.98511,-1.14112 0.42696,-0.76125 0.54373,-1.81762 0.34888,-3.1744 l -5.01902,-30.825377 21.18574,-21.824299 c 1.28448,-1.315163 1.75085,-2.538008 1.39839,-3.668534 z m -27.780088,19.821285 -2.860536,2.897446 0.701343,4.068834 3.501704,21.887105 L 78.241118,92.340792 74.797442,90.42934 V 31.059318 l 9.280088,19.851553 1.749419,3.698803 3.853449,0.61672 20.778832,3.205427 -15.000448,15.413444 z"
   id="path3"
   inkscape:connector-curvature="0" />
</svg>