<?xml version="1.0" encoding="UTF-8" standalone="no"?>
<!-- Generator: Adobe Illustrator 16.0.4, SVG Export Plug-In . SVG Version: 6.00 Build 0)  -->

<svg
   xmlns:dc="http://purl.org/dc/elements/1.1/"
   xmlns:cc="http://creativecommons.org/ns#"
   xmlns:rdf="http://www.w3.org/1999/02/22-rdf-syntax-ns#"
   xmlns:svg="http://www.w3.org/2000/svg"
   xmlns="http://www.w3.org/2000/svg"
   xmlns:sodipodi="http://sodipodi.sourceforge.net/DTD/sodipodi-0.dtd"
   xmlns:inkscape="http://www.inkscape.org/namespaces/inkscape"
   version="1.1"
   id="Capa_1"
   x="0px"
   y="0px"
   width="150"
   height="130"
   viewBox="0 0 150 130"
   enable-background="new 0 0 216 146"
   xml:space="preserve"
   inkscape:version="0.48.3.1 r9886"
   sodipodi:docname="icon-umbrella.svg"><metadata
   id="metadata15"><rdf:RDF><cc:Work
       rdf:about=""><dc:format>image/svg+xml</dc:format><dc:type
         rdf:resource="http://purl.org/dc/dcmitype/StillImage" /></cc:Work></rdf:RDF></metadata><defs
   id="defs13" /><sodipodi:namedview
   pagecolor="#ffffff"
   bordercolor="#666666"
   borderopacity="1"
   objecttolerance="10"
   gridtolerance="10"
   guidetolerance="10"
   inkscape:pageopacity="0"
   inkscape:pageshadow="2"
   inkscape:window-width="640"
   inkscape:window-height="480"
   id="namedview11"
   showgrid="false"
   inkscape:zoom="1.4305556"
   inkscape:cx="108"
   inkscape:cy="73"
   inkscape:window-x="65"
   inkscape:window-y="24"
   inkscape:window-maximized="0"
   inkscape:current-layer="Capa_1" />
<g
   id="g3"
   transform="matrix(0.82469618,0,0,0.8015889,-15.31979,9.318764)">
	<path
   d="m 102.786,70.067 v 47.254 c 0,2.716 -1.059,5.133 -3.177,7.251 -2.118,2.119 -4.536,3.178 -7.251,3.178 -2.715,0 -5.132,-1.059 -7.251,-3.178 -2.118,-2.118 -3.177,-4.535 -3.177,-7.251 0,-1.412 -0.516,-2.634 -1.548,-3.666 -1.033,-1.032 -2.254,-1.548 -3.667,-1.548 -1.413,0 -2.635,0.516 -3.667,1.548 -1.032,1.032 -1.548,2.254 -1.548,3.666 0,5.649 2.064,10.536 6.192,14.665 4.128,4.129 9.017,6.191 14.666,6.191 5.648,0 10.537,-2.062 14.665,-6.191 4.127,-4.129 6.192,-9.016 6.192,-14.665 V 70.067 c -1.793,-0.597 -3.531,-0.896 -5.215,-0.896 -1.683,0 -3.422,0.299 -5.214,0.896 z"
   id="path5"
   inkscape:connector-curvature="0" />
	<path
   d="m 113.215,21.02 v -7.984 c 0,-1.412 -0.517,-2.635 -1.549,-3.667 -1.031,-1.032 -2.254,-1.548 -3.666,-1.548 -1.412,0 -2.634,0.516 -3.666,1.548 -1.032,1.033 -1.548,2.255 -1.548,3.667 v 7.984 c 2.281,-0.108 4.019,-0.163 5.214,-0.163 1.195,0 2.934,0.055 5.215,0.163 z"
   id="path7"
   inkscape:connector-curvature="0" />
	<path
   d="m 175.702,71.697 c -1.793,-7.495 -4.931,-14.325 -9.41,-20.49 -4.483,-6.165 -9.765,-11.244 -15.849,-15.236 -6.082,-3.992 -12.776,-7.074 -20.082,-9.247 -7.305,-2.173 -14.76,-3.259 -22.364,-3.259 -10.32,0 -20.11,1.847 -29.371,5.54 -9.261,3.693 -17.354,9.247 -24.279,16.661 -6.925,7.414 -11.61,16.092 -14.054,26.031 -0.055,0.108 -0.082,0.299 -0.082,0.57 0,0.706 0.258,1.318 0.774,1.833 0.516,0.516 1.127,0.774 1.833,0.774 0.598,0 1.222,-0.271 1.874,-0.815 2.661,-2.498 5.187,-4.372 7.577,-5.621 2.39,-1.249 5.16,-1.874 8.31,-1.874 3.694,0 7.17,1.006 10.429,3.015 3.259,2.009 6.057,4.644 8.392,7.901 0.381,0.545 0.856,1.305 1.426,2.281 0.571,0.979 0.965,1.631 1.182,1.957 0.597,0.922 1.358,1.385 2.281,1.385 0.978,0 1.765,-0.463 2.363,-1.385 0.217,-0.326 0.611,-0.978 1.181,-1.957 0.571,-0.976 1.046,-1.736 1.426,-2.281 2.335,-3.256 5.119,-5.892 8.351,-7.901 3.232,-2.009 6.694,-3.015 10.388,-3.015 3.693,0 7.156,1.005 10.389,3.015 3.231,2.009 6.016,4.644 8.35,7.901 0.382,0.545 0.856,1.305 1.427,2.281 0.571,0.979 0.965,1.631 1.183,1.957 0.596,0.922 1.383,1.385 2.362,1.385 0.924,0 1.683,-0.463 2.28,-1.385 0.218,-0.326 0.613,-0.978 1.183,-1.957 0.571,-0.976 1.045,-1.736 1.427,-2.281 2.336,-3.256 5.133,-5.892 8.391,-7.901 3.26,-2.01 6.736,-3.015 10.43,-3.015 3.15,0 5.92,0.625 8.311,1.874 2.389,1.249 4.914,3.123 7.576,5.621 0.652,0.545 1.277,0.815 1.875,0.815 0.705,0 1.317,-0.258 1.832,-0.774 0.516,-0.516 0.773,-1.126 0.773,-1.833 -0.002,-0.272 -0.027,-0.462 -0.085,-0.57 z"
   id="path9"
   inkscape:connector-curvature="0" />
</g>
</svg>