<?xml version="1.0" encoding="UTF-8" standalone="no"?>
<!-- Generator: Adobe Illustrator 16.0.4, SVG Export Plug-In . SVG Version: 6.00 Build 0)  -->

<svg
   xmlns:dc="http://purl.org/dc/elements/1.1/"
   xmlns:cc="http://creativecommons.org/ns#"
   xmlns:rdf="http://www.w3.org/1999/02/22-rdf-syntax-ns#"
   xmlns:svg="http://www.w3.org/2000/svg"
   xmlns="http://www.w3.org/2000/svg"
   xmlns:sodipodi="http://sodipodi.sourceforge.net/DTD/sodipodi-0.dtd"
   xmlns:inkscape="http://www.inkscape.org/namespaces/inkscape"
   version="1.1"
   id="Capa_1"
   x="0px"
   y="0px"
   width="150"
   height="130"
   viewBox="0 0 150 130"
   enable-background="new 0 0 216 146"
   xml:space="preserve"
   inkscape:version="0.48.3.1 r9886"
   sodipodi:docname="icon-ambulance.svg"><metadata
   id="metadata9"><rdf:RDF><cc:Work
       rdf:about=""><dc:format>image/svg+xml</dc:format><dc:type
         rdf:resource="http://purl.org/dc/dcmitype/StillImage" /></cc:Work></rdf:RDF></metadata><defs
   id="defs7" /><sodipodi:namedview
   pagecolor="#ffffff"
   bordercolor="#666666"
   borderopacity="1"
   objecttolerance="10"
   gridtolerance="10"
   guidetolerance="10"
   inkscape:pageopacity="0"
   inkscape:pageshadow="2"
   inkscape:window-width="640"
   inkscape:window-height="480"
   id="namedview5"
   showgrid="false"
   inkscape:zoom="1.4305556"
   inkscape:cx="108"
   inkscape:cy="73"
   inkscape:window-x="318"
   inkscape:window-y="104"
   inkscape:window-maximized="0"
   inkscape:current-layer="Capa_1" />
<path
   d="m 127.22362,12.467349 c -0.77363,-0.841767 -1.69134,-1.262651 -2.75086,-1.262651 H 54.044394 c -1.060275,0 -1.977228,0.420884 -2.751613,1.262651 -0.774383,0.841767 -1.161575,1.838511 -1.161575,2.990231 V 36.7228 h -9.781842 c -1.060275,0 -2.24211,0.288746 -3.546256,0.864606 -1.304145,0.57586 -2.343411,1.284673 -3.117794,2.126441 L 21.580321,52.87135 c -0.774384,0.841767 -1.426457,1.97228 -1.956219,3.389091 -0.529761,1.418442 -0.794642,2.703116 -0.794642,3.854836 v 27.645362 c -1.060276,0 -1.97723,0.421697 -2.751613,1.263463 -0.774383,0.840953 -1.161575,1.838508 -1.161575,2.990226 0,1.151718 0.387192,2.14847 1.161575,2.990237 0.775134,0.841766 1.692088,1.262649 2.751613,1.262649 h 7.825624 c 0,4.696596 1.527756,8.705586 4.58477,12.028616 3.057013,3.32221 6.745089,4.9829 11.065728,4.9829 4.320639,0 8.008715,-1.66069 11.065729,-4.9829 3.056263,-3.32303 4.584769,-7.33121 4.584769,-12.028616 h 23.476124 c 0,4.696596 1.528506,8.705586 4.58477,12.028616 3.057013,3.32221 6.744337,4.9829 11.064976,4.9829 4.32064,0 8.00946,-1.66069 11.06497,-4.9829 3.05702,-3.32303 4.58553,-7.33121 4.58553,-12.028616 h 11.73806 c 1.05953,0 1.97723,-0.420883 2.75086,-1.262649 0.77364,-0.841767 1.16233,-1.838519 1.16233,-2.990237 V 15.458395 c 0,-1.152535 -0.3872,-2.148463 -1.16008,-2.991046 z M 47.838071,102.28193 c -1.529257,1.66069 -3.37292,2.49185 -5.53324,2.49185 -2.160318,0 -4.004732,-0.83116 -5.533239,-2.49185 -1.527756,-1.66152 -2.292385,-3.666426 -2.292385,-6.014716 0,-2.347492 0.763878,-4.352391 2.292385,-6.013906 1.529257,-1.661515 3.372921,-2.492669 5.533239,-2.492669 2.16032,0 4.004733,0.831154 5.53324,2.492669 1.527757,1.661515 2.292385,3.666414 2.292385,6.013906 0,2.34829 -0.763878,4.353196 -2.292385,6.014716 z M 50.131206,62.242533 H 26.655084 v -1.993486 c 0.08105,-0.442907 0.264881,-0.930676 0.550023,-1.461674 L 39.126258,45.828076 c 0.325661,-0.309137 0.774383,-0.50979 1.344665,-0.597883 h 9.660283 v 17.01234 z m 52.483984,40.039397 c -1.52851,1.66069 -3.37217,2.49185 -5.53249,2.49185 -2.160319,0 -4.003982,-0.83116 -5.532488,-2.49185 -1.528506,-1.66152 -2.293885,-3.666426 -2.293885,-6.014716 0,-2.347492 0.765379,-4.352391 2.293885,-6.013906 1.528506,-1.661515 3.372169,-2.492669 5.532488,-2.492669 2.16032,0 4.00398,0.831154 5.53249,2.492669 1.52776,1.661515 2.29238,3.666414 2.29238,6.013906 -7.5e-4,2.34829 -0.76388,4.353196 -2.29238,6.014716 z M 112.7332,51.609515 c 0,0.620721 -0.18309,1.130513 -0.54927,1.528558 -0.36768,0.39886 -0.83667,0.597883 -1.40696,0.597883 H 97.0827 v 14.885898 c 0,0.620723 -0.18309,1.129698 -0.549271,1.528558 -0.366932,0.398045 -0.835164,0.597068 -1.406197,0.597068 h -11.73881 c -0.570283,0 -1.039264,-0.199023 -1.405446,-0.597068 -0.367682,-0.39886 -0.550023,-0.907835 -0.550023,-1.528558 V 53.735956 H 67.738674 c -0.571033,0 -1.039265,-0.199023 -1.406196,-0.597883 -0.366182,-0.398045 -0.550023,-0.907837 -0.550023,-1.528558 V 38.850056 c 0,-0.620722 0.183091,-1.129697 0.550023,-1.528557 0.366931,-0.398045 0.835163,-0.597883 1.406196,-0.597883 h 13.694279 v -14.8859 c 0,-0.619906 0.182341,-1.129696 0.550023,-1.528557 0.366182,-0.398045 0.835163,-0.597067 1.405446,-0.597067 h 11.73881 c 0.571033,0 1.039265,0.199022 1.406197,0.597067 0.366181,0.398861 0.549271,0.908651 0.549271,1.528557 v 14.8859 h 13.69427 c 0.57029,0 1.03928,0.199838 1.40696,0.597883 0.36618,0.39886 0.54927,0.907835 0.54927,1.528557 v 12.759459 z"
   id="path3"
   inkscape:connector-curvature="0" />
</svg>