<?xml version="1.0" encoding="UTF-8" standalone="no"?>
<!-- Generator: Adobe Illustrator 16.0.4, SVG Export Plug-In . SVG Version: 6.00 Build 0)  -->

<svg
   xmlns:dc="http://purl.org/dc/elements/1.1/"
   xmlns:cc="http://creativecommons.org/ns#"
   xmlns:rdf="http://www.w3.org/1999/02/22-rdf-syntax-ns#"
   xmlns:svg="http://www.w3.org/2000/svg"
   xmlns="http://www.w3.org/2000/svg"
   xmlns:sodipodi="http://sodipodi.sourceforge.net/DTD/sodipodi-0.dtd"
   xmlns:inkscape="http://www.inkscape.org/namespaces/inkscape"
   version="1.1"
   id="Capa_1"
   x="0px"
   y="0px"
   width="150"
   height="130"
   viewBox="0 0 150 130"
   enable-background="new 0 0 216 146"
   xml:space="preserve"
   inkscape:version="0.48.3.1 r9886"
   sodipodi:docname="icon-gamepad.svg"><metadata
   id="metadata9"><rdf:RDF><cc:Work
       rdf:about=""><dc:format>image/svg+xml</dc:format><dc:type
         rdf:resource="http://purl.org/dc/dcmitype/StillImage" /></cc:Work></rdf:RDF></metadata><defs
   id="defs7" /><sodipodi:namedview
   pagecolor="#ffffff"
   bordercolor="#666666"
   borderopacity="1"
   objecttolerance="10"
   gridtolerance="10"
   guidetolerance="10"
   inkscape:pageopacity="0"
   inkscape:pageshadow="2"
   inkscape:window-width="640"
   inkscape:window-height="480"
   id="namedview5"
   showgrid="false"
   inkscape:zoom="1.4305556"
   inkscape:cx="108"
   inkscape:cy="73"
   inkscape:window-x="65"
   inkscape:window-y="24"
   inkscape:window-maximized="0"
   inkscape:current-layer="Capa_1" />
<path
   d="M 126.33907,39.15021 C 119.97597,32.095394 112.29759,28.567553 103.30396,28.567553 H 46.288276 c -8.992856,0 -16.67279,3.527841 -23.035115,10.582657 -6.363887,7.054815 -9.545831,15.567875 -9.545831,25.539177 0,9.972169 3.182725,18.484362 9.545831,25.539178 6.362325,7.054816 14.041478,10.583525 23.035115,10.583525 8.145432,0 15.313787,-3.010877 21.508189,-9.03176 h 13.999301 c 6.194402,6.020883 13.361972,9.03176 21.508194,9.03176 8.99285,0 16.67201,-3.527843 23.03511,-10.583525 6.36311,-7.055682 9.54583,-15.567009 9.54583,-25.539178 0,-9.971302 -3.18194,-18.484362 -9.54583,-25.539177 z M 66.650684,69.205266 c 0,0.658115 -0.190573,1.199327 -0.5725,1.621906 -0.381927,0.423445 -0.869293,0.634734 -1.463662,0.634734 H 52.396764 v 13.546771 c 0,0.658114 -0.190573,1.199327 -0.572499,1.621906 -0.381927,0.423445 -0.869294,0.634734 -1.463663,0.634734 H 42.21517 c -0.593588,0 -1.081736,-0.211289 -1.463663,-0.634734 -0.381146,-0.422579 -0.571719,-0.963792 -0.571719,-1.621906 V 71.461906 H 27.96125 c -0.593588,0 -1.081736,-0.211289 -1.463663,-0.634734 -0.381146,-0.422579 -0.571719,-0.963791 -0.571719,-1.621906 v -9.030892 c 0,-0.658114 0.190573,-1.199327 0.571719,-1.622772 0.381927,-0.423445 0.870075,-0.634734 1.463663,-0.634734 H 40.179788 V 44.370964 c 0,-0.658115 0.190573,-1.199328 0.571719,-1.622772 0.381927,-0.423445 0.870075,-0.634735 1.463663,-0.634735 h 8.145432 c 0.594369,0 1.081736,0.21129 1.463663,0.634735 0.381926,0.423444 0.572499,0.964657 0.572499,1.622772 v 13.545904 h 12.217758 c 0.594369,0 1.081735,0.211289 1.463662,0.634734 0.381927,0.423445 0.5725,0.964658 0.5725,1.622772 v 9.030892 z m 34.267206,10.899591 c -1.590972,1.76392 -3.510762,2.646313 -5.760152,2.646313 -2.247039,0 -4.167608,-0.882393 -5.757799,-2.646313 -1.590972,-1.763055 -2.386848,-3.892402 -2.386848,-6.384578 0,-2.493042 0.795876,-4.621524 2.386848,-6.385444 1.590191,-1.762189 3.51076,-2.645448 5.757799,-2.645448 2.24939,0 4.16918,0.883259 5.760152,2.645448 1.58941,1.76392 2.38607,3.892402 2.38607,6.385444 0,2.492176 -0.79666,4.621523 -2.38607,6.384578 z m 16.2893,-18.060917 c -1.58941,1.763054 -3.50998,2.645447 -5.75858,2.645447 -2.24861,0 -4.1684,-0.881527 -5.75859,-2.645447 -1.59097,-1.764787 -2.38684,-3.892402 -2.38684,-6.385444 0,-2.492177 0.79587,-4.620658 2.38684,-6.384578 1.59019,-1.763921 3.50998,-2.645448 5.75859,-2.645448 2.2486,0 4.16917,0.881527 5.75858,2.645448 1.59097,1.76392 2.38763,3.892401 2.38763,6.384578 -7.8e-4,2.493042 -0.79588,4.621523 -2.38763,6.385444 z"
   id="path3"
   inkscape:connector-curvature="0" />
</svg>