<?xml version="1.0" encoding="UTF-8" standalone="no"?>
<!-- Generator: Adobe Illustrator 16.0.4, SVG Export Plug-In . SVG Version: 6.00 Build 0)  -->

<svg
   xmlns:dc="http://purl.org/dc/elements/1.1/"
   xmlns:cc="http://creativecommons.org/ns#"
   xmlns:rdf="http://www.w3.org/1999/02/22-rdf-syntax-ns#"
   xmlns:svg="http://www.w3.org/2000/svg"
   xmlns="http://www.w3.org/2000/svg"
   xmlns:sodipodi="http://sodipodi.sourceforge.net/DTD/sodipodi-0.dtd"
   xmlns:inkscape="http://www.inkscape.org/namespaces/inkscape"
   version="1.1"
   id="Capa_1"
   x="0px"
   y="0px"
   width="150"
   height="130"
   viewBox="0 0 150 130"
   enable-background="new 0 0 216 146"
   xml:space="preserve"
   inkscape:version="0.48.3.1 r9886"
   sodipodi:docname="icon-euro.svg"><metadata
   id="metadata9"><rdf:RDF><cc:Work
       rdf:about=""><dc:format>image/svg+xml</dc:format><dc:type
         rdf:resource="http://purl.org/dc/dcmitype/StillImage" /></cc:Work></rdf:RDF></metadata><defs
   id="defs7" /><sodipodi:namedview
   pagecolor="#ffffff"
   bordercolor="#666666"
   borderopacity="1"
   objecttolerance="10"
   gridtolerance="10"
   guidetolerance="10"
   inkscape:pageopacity="0"
   inkscape:pageshadow="2"
   inkscape:window-width="640"
   inkscape:window-height="480"
   id="namedview5"
   showgrid="false"
   inkscape:zoom="1.4305556"
   inkscape:cx="108"
   inkscape:cy="73"
   inkscape:window-x="65"
   inkscape:window-y="24"
   inkscape:window-maximized="0"
   inkscape:current-layer="Capa_1" />
<path
   d="m 112.1061,110.64243 -2.51437,-11.612047 c -0.14277,-0.68217 -0.50146,-1.19312 -1.07696,-1.53286 -0.6222,-0.341527 -1.2444,-0.389037 -1.8666,-0.14522 l -0.35958,0.14522 -0.86191,0.21872 c -0.38425,0.0968 -0.82667,0.20618 -1.32902,0.32809 -0.50234,0.12191 -1.08753,0.24292 -1.75909,0.36484 -0.66803,0.12191 -1.3766,0.23216 -2.1169,0.32898 -0.742057,0.0959 -1.543165,0.18197 -2.405083,0.25547 -0.862799,0.0717 -1.722954,0.10847 -2.585755,0.10847 -6.079253,0 -11.548642,-1.66642 -16.407286,-5.001948 C 73.964902,90.764616 70.386798,86.248519 68.089231,80.55275 h 27.786717 c 0.527024,0 1.006454,-0.18197 1.435651,-0.547704 0.43184,-0.363941 0.695351,-0.813937 0.78965,-1.350885 l 1.722955,-8.179711 c 0.143653,-0.728779 0,-1.387638 -0.430078,-1.972095 -0.478549,-0.584457 -1.077838,-0.876686 -1.795221,-0.876686 H 64.643322 c -0.143653,-3.311326 -0.143653,-5.866982 0,-7.66876 h 35.039873 c 1.292875,0 2.058735,-0.632863 2.297565,-1.898589 l 1.72296,-8.325826 c 0.14277,-0.681269 -0.0229,-1.314132 -0.50235,-1.898589 -0.43007,-0.584457 -1.02848,-0.877582 -1.79434,-0.877582 H 67.802806 c 2.393629,-5.452842 5.983191,-9.737667 10.770449,-12.853576 4.787258,-3.116806 10.195837,-4.674761 16.228381,-4.674761 0.191243,-0.09681 0.89717,-0.07261 2.1169,0.0735 1.22061,0.145218 1.915079,0.206174 2.082528,0.181971 0.165685,-0.0242 0.78965,0.0493 1.865726,0.218723 1.07784,0.170317 1.61632,0.255476 1.61632,0.255476 l 1.25674,0.255476 c 0.35958,0.07351 0.63455,0.133564 0.82579,0.182867 l 0.2873,0.07261 c 0.62221,0.195416 1.19506,0.134461 1.72296,-0.181971 0.5279,-0.317328 0.8628,-0.791527 1.00645,-1.42439 l 3.0881,-11.612053 c 0.14277,-0.632863 0.0705,-1.21732 -0.21504,-1.752475 -0.43096,-0.585354 -0.91039,-0.950191 -1.43741,-1.096305 -4.40301,-1.119612 -9.047499,-1.679867 -13.92994,-1.679867 -10.722858,0 -20.307949,3.116806 -28.757036,9.348626 -8.449087,6.231819 -14.277167,14.460833 -17.484242,24.685248 h -7.036353 c -0.670674,0 -1.220609,0.218724 -1.651568,0.657066 -0.430078,0.437447 -0.645998,0.997701 -0.645998,1.679867 v 8.325825 c 0,0.681269 0.215039,1.241524 0.645998,1.67897 0.430959,0.438343 0.981775,0.657066 1.651568,0.657066 h 4.811053 c -0.144534,2.337829 -0.167448,4.892588 -0.07227,7.66876 h -4.738786 c -0.622202,0 -1.16068,0.231273 -1.615435,0.693819 -0.454754,0.462545 -0.682131,1.01025 -0.682131,1.642217 v 8.253216 c 0,0.63376 0.227377,1.179672 0.682131,1.64401 0.454755,0.46165 0.993233,0.692026 1.615435,0.692026 h 6.821314 c 3.015831,10.760467 8.712597,19.317569 17.089417,25.671296 8.377701,6.35552 18.166374,9.53149 29.367782,9.53149 0.910391,0 1.830475,-0.0233 2.76466,-0.0735 0.935067,-0.0484 1.80756,-0.12191 2.621891,-0.21872 0.81344,-0.0959 1.61543,-0.20528 2.40508,-0.32719 0.78965,-0.1228 1.50792,-0.24292 2.15303,-0.36573 0.64688,-0.12191 1.25675,-0.24293 1.83136,-0.36394 0.57461,-0.12281 1.08929,-0.25548 1.54405,-0.40249 0.45475,-0.14432 0.83636,-0.25458 1.14834,-0.32719 0.31198,-0.0726 0.56315,-0.15956 0.75352,-0.25547 l 0.35957,-0.0726 c 0.52702,-0.19542 0.9333,-0.5486 1.22061,-1.06045 0.28731,-0.50916 0.35781,-1.05776 0.21504,-1.64132 z"
   id="path3"
   inkscape:connector-curvature="0" />
</svg>