<?xml version="1.0" encoding="UTF-8" standalone="no"?>
<!-- Generator: Adobe Illustrator 16.0.4, SVG Export Plug-In . SVG Version: 6.00 Build 0)  -->

<svg
   xmlns:dc="http://purl.org/dc/elements/1.1/"
   xmlns:cc="http://creativecommons.org/ns#"
   xmlns:rdf="http://www.w3.org/1999/02/22-rdf-syntax-ns#"
   xmlns:svg="http://www.w3.org/2000/svg"
   xmlns="http://www.w3.org/2000/svg"
   xmlns:sodipodi="http://sodipodi.sourceforge.net/DTD/sodipodi-0.dtd"
   xmlns:inkscape="http://www.inkscape.org/namespaces/inkscape"
   version="1.1"
   id="Capa_1"
   x="0px"
   y="0px"
   width="150"
   height="130"
   viewBox="0 0 150 130"
   enable-background="new 0 0 216 146"
   xml:space="preserve"
   inkscape:version="0.48.3.1 r9886"
   sodipodi:docname="icon-calendar.svg"><metadata
   id="metadata9"><rdf:RDF><cc:Work
       rdf:about=""><dc:format>image/svg+xml</dc:format><dc:type
         rdf:resource="http://purl.org/dc/dcmitype/StillImage" /></cc:Work></rdf:RDF></metadata><defs
   id="defs7" /><sodipodi:namedview
   pagecolor="#ffffff"
   bordercolor="#666666"
   borderopacity="1"
   objecttolerance="10"
   gridtolerance="10"
   guidetolerance="10"
   inkscape:pageopacity="0"
   inkscape:pageshadow="2"
   inkscape:window-width="640"
   inkscape:window-height="480"
   id="namedview5"
   showgrid="false"
   inkscape:zoom="1.4305556"
   inkscape:cx="108"
   inkscape:cy="73"
   inkscape:window-x="65"
   inkscape:window-y="24"
   inkscape:window-maximized="0"
   inkscape:current-layer="Capa_1" />
<path
   d="m 126.39846,27.727756 c -1.70051,-1.599545 -3.7177,-2.399317 -6.04663,-2.399317 h -8.59986 v -6.06184 c 0,-2.777504 -1.05313,-5.155896 -3.15856,-7.134403 -2.10626,-1.978506 -4.63558,-2.9681473 -7.59292,-2.9681473 h -4.299111 c -2.957337,0 -5.487485,0.9896413 -7.592918,2.9681473 -2.106255,1.978507 -3.158559,4.356899 -3.158559,7.134403 v 6.06184 H 60.149484 v -6.06184 c 0,-2.777504 -1.053129,-5.155896 -3.158561,-7.134403 C 54.88549,10.15369 52.354517,9.1640487 49.398004,9.1640487 h -4.299932 c -2.956512,0 -5.487485,0.9896413 -7.592918,2.9681473 -2.105433,1.978507 -3.158562,4.356899 -3.158562,7.134403 v 6.06184 h -8.599864 c -2.329748,0 -4.34529,0.799772 -6.04745,2.399317 -1.702159,1.599545 -2.553239,3.494354 -2.553239,5.682878 v 80.819626 c 0,2.18775 0.85108,4.08178 2.553239,5.6821 1.70216,1.59955 3.717702,2.39932 6.04745,2.39932 h 94.603462 c 2.32892,0 4.34611,-0.79977 6.04662,-2.39932 1.70216,-1.59954 2.55324,-3.49435 2.55324,-5.6821 V 33.410634 c 0,-2.189299 -0.85026,-4.083333 -2.55159,-5.682878 z M 45.097247,114.22948 H 25.746728 V 96.04474 h 19.350519 v 18.18474 z m 0,-22.22545 H 25.746728 V 71.80048 h 19.350519 v 20.20355 z m 0,-24.24581 H 25.746728 V 49.574249 H 45.097247 V 67.75822 z M 43.586416,38.87187 c -0.42554,-0.399886 -0.63831,-0.87262 -0.63831,-1.420526 v -18.18397 c 0,-0.547131 0.21277,-1.02064 0.63831,-1.420526 0.42554,-0.399886 0.928601,-0.599829 1.511656,-0.599829 h 4.299932 c 0.582231,0 1.086117,0.199943 1.511657,0.599829 0.425539,0.399886 0.638309,0.873395 0.638309,1.420526 v 18.18397 c 0,0.547906 -0.213594,1.02064 -0.638309,1.420526 -0.42554,0.399886 -0.928601,0.599829 -1.511657,0.599829 h -4.299932 c -0.582231,0 -1.086116,-0.199943 -1.511656,-0.599829 z M 70.89849,114.22948 H 49.39718 V 96.04474 h 21.50131 v 18.18474 z m 0,-22.22545 H 49.39718 V 71.80048 h 21.50131 v 20.20355 z m 0,-24.24581 H 49.39718 V 49.574249 H 70.89849 V 67.75822 z m 25.802064,46.47126 H 75.199247 V 96.04474 h 21.501307 v 18.18474 z m 0,-22.22545 H 75.199247 V 71.80048 h 21.501307 v 20.20355 z m 0,-24.24581 H 75.199247 V 49.574249 H 96.700554 V 67.75822 z m -1.51248,-28.88635 c -0.424716,-0.399886 -0.636661,-0.87262 -0.636661,-1.420526 v -18.18397 c 0,-0.547131 0.211945,-1.02064 0.636661,-1.420526 0.425539,-0.399886 0.929425,-0.599829 1.51248,-0.599829 h 4.299106 c 0.58306,0 1.08694,0.199943 1.51248,0.599829 0.42554,0.399886 0.63749,0.873395 0.63749,1.420526 v 18.18397 c 0,0.547906 -0.21277,1.02064 -0.63749,1.420526 -0.42471,0.399886 -0.92942,0.599829 -1.51248,0.599829 h -4.299106 c -0.583055,0 -1.087765,-0.199943 -1.51248,-0.599829 z m 25.162116,75.35761 H 100.99884 V 96.04474 h 19.35135 v 18.18474 z m 0,-22.22545 H 100.99884 V 71.80048 h 19.35135 v 20.20355 z m 0,-24.24581 H 100.99884 V 49.574249 h 19.35135 V 67.75822 z"
   id="path3"
   inkscape:connector-curvature="0" />
</svg>