<?xml version="1.0" encoding="UTF-8" standalone="no"?>
<!-- Generator: Adobe Illustrator 16.0.4, SVG Export Plug-In . SVG Version: 6.00 Build 0)  -->

<svg
   xmlns:dc="http://purl.org/dc/elements/1.1/"
   xmlns:cc="http://creativecommons.org/ns#"
   xmlns:rdf="http://www.w3.org/1999/02/22-rdf-syntax-ns#"
   xmlns:svg="http://www.w3.org/2000/svg"
   xmlns="http://www.w3.org/2000/svg"
   xmlns:sodipodi="http://sodipodi.sourceforge.net/DTD/sodipodi-0.dtd"
   xmlns:inkscape="http://www.inkscape.org/namespaces/inkscape"
   version="1.1"
   id="Capa_1"
   x="0px"
   y="0px"
   width="150"
   height="130"
   viewBox="0 0 150 130"
   enable-background="new 0 0 216 146"
   xml:space="preserve"
   inkscape:version="0.48.3.1 r9886"
   sodipodi:docname="icon-bell.svg"><metadata
   id="metadata9"><rdf:RDF><cc:Work
       rdf:about=""><dc:format>image/svg+xml</dc:format><dc:type
         rdf:resource="http://purl.org/dc/dcmitype/StillImage" /></cc:Work></rdf:RDF></metadata><defs
   id="defs7" /><sodipodi:namedview
   pagecolor="#ffffff"
   bordercolor="#666666"
   borderopacity="1"
   objecttolerance="10"
   gridtolerance="10"
   guidetolerance="10"
   inkscape:pageopacity="0"
   inkscape:pageshadow="2"
   inkscape:window-width="640"
   inkscape:window-height="480"
   id="namedview5"
   showgrid="false"
   inkscape:zoom="1.4305556"
   inkscape:cx="108"
   inkscape:cy="73"
   inkscape:window-x="65"
   inkscape:window-y="24"
   inkscape:window-maximized="0"
   inkscape:current-layer="Capa_1" />
<path
   d="m 107.97819,73.576389 c -3.93627,-9.831511 -5.90479,-20.193441 -5.90479,-31.08579 0,-6.859479 -1.94758,-12.305271 -5.843502,-16.338142 -3.898162,-4.032871 -9.256638,-6.4653 -16.076179,-7.29652 0.323601,-0.747791 0.486523,-1.517014 0.486523,-2.306903 0,-1.663205 -0.567984,-3.077657 -1.704698,-4.241059 -1.135968,-1.164167 -2.516318,-1.745868 -4.140303,-1.745868 -1.623237,0 -3.003587,0.581701 -4.140302,1.745868 -1.136714,1.164167 -1.704698,2.577854 -1.704698,4.241059 0,0.789889 0.162174,1.558346 0.48727,2.306903 -6.819541,0.831986 -12.178018,3.263649 -16.074685,7.29652 -3.896667,4.032871 -5.845001,9.478663 -5.845001,16.338142 0,10.892349 -1.968511,21.254279 -5.906282,31.08579 -3.937771,9.832276 -9.762594,18.095486 -17.475214,24.788876 0,2.161485 0.771262,4.032105 2.313786,5.611885 1.542524,1.57978 3.36904,2.36967 5.480295,2.36967 h 27.278164 c 0,4.40715 1.521598,8.16983 4.566289,11.28729 3.044692,3.11746 6.718649,4.67657 11.021126,4.67657 4.303224,0 7.977181,-1.55911 11.020378,-4.67657 3.04469,-3.11746 4.567036,-6.88014 4.567036,-11.28729 h 27.278167 c 2.11051,0 3.93852,-0.78913 5.47955,-2.36967 1.54252,-1.57978 2.31378,-3.4504 2.31378,-5.611885 -7.71112,-6.69339 -13.53669,-14.9566 -17.47671,-24.788876 z M 74.795989,117.32183 c -2.963231,0 -5.490758,-1.07002 -7.581088,-3.21084 -2.090329,-2.14157 -3.135867,-4.73014 -3.135867,-7.76494 0,-0.66513 0.325096,-0.99807 0.97454,-0.99807 0.649445,0 0.974541,0.33294 0.974541,0.99807 0,2.4531 0.862438,4.56253 2.587315,6.32983 1.725624,1.7673 3.785312,2.65056 6.180559,2.65056 0.649444,0 0.975288,0.33371 0.975288,0.99808 0,0.66513 -0.325844,0.99731 -0.975288,0.99731 z"
   id="path3"
   inkscape:connector-curvature="0" />
</svg>