<?xml version="1.0" encoding="UTF-8" standalone="no"?>
<!-- Generator: Adobe Illustrator 16.0.4, SVG Export Plug-In . SVG Version: 6.00 Build 0)  -->

<svg
   xmlns:dc="http://purl.org/dc/elements/1.1/"
   xmlns:cc="http://creativecommons.org/ns#"
   xmlns:rdf="http://www.w3.org/1999/02/22-rdf-syntax-ns#"
   xmlns:svg="http://www.w3.org/2000/svg"
   xmlns="http://www.w3.org/2000/svg"
   xmlns:sodipodi="http://sodipodi.sourceforge.net/DTD/sodipodi-0.dtd"
   xmlns:inkscape="http://www.inkscape.org/namespaces/inkscape"
   version="1.1"
   id="Capa_1"
   x="0px"
   y="0px"
   width="150"
   height="130"
   viewBox="0 0 150 130"
   enable-background="new 0 0 216 146"
   xml:space="preserve"
   inkscape:version="0.48.3.1 r9886"
   sodipodi:docname="icon-cog.svg"><metadata
   id="metadata9"><rdf:RDF><cc:Work
       rdf:about=""><dc:format>image/svg+xml</dc:format><dc:type
         rdf:resource="http://purl.org/dc/dcmitype/StillImage" /></cc:Work></rdf:RDF></metadata><defs
   id="defs7" /><sodipodi:namedview
   pagecolor="#ffffff"
   bordercolor="#666666"
   borderopacity="1"
   objecttolerance="10"
   gridtolerance="10"
   guidetolerance="10"
   inkscape:pageopacity="0"
   inkscape:pageshadow="2"
   inkscape:window-width="640"
   inkscape:window-height="480"
   id="namedview5"
   showgrid="false"
   inkscape:zoom="1.4305556"
   inkscape:cx="108"
   inkscape:cy="73"
   inkscape:window-x="65"
   inkscape:window-y="24"
   inkscape:window-maximized="0"
   inkscape:current-layer="Capa_1" />
<path
   d="m 127.37541,56.643459 c -0.37024,-0.462555 -0.85343,-0.737982 -1.45295,-0.82547 L 113.26204,53.9702 c -0.69208,-2.111874 -1.63807,-4.267492 -2.83711,-6.467665 0.82965,-1.100086 2.07455,-2.650576 3.73469,-4.65309 1.66015,-2.002513 2.83626,-3.464705 3.52834,-4.389004 0.3694,-0.484427 0.55282,-0.989915 0.55282,-1.518087 0,-0.615659 -0.16049,-1.099276 -0.48403,-1.451661 -1.66015,-2.244726 -5.46532,-5.984047 -11.41553,-11.220394 -0.55196,-0.439872 -1.12941,-0.659404 -1.72808,-0.659404 -0.69208,0 -1.24574,0.19766 -1.66099,0.592978 l -9.823316,7.062263 c -1.891973,-0.9243 -3.967369,-1.738429 -6.227036,-2.442387 L 84.964819,16.680675 C 84.918959,16.10876 84.65317,15.635674 84.169137,15.261418 83.684255,14.887162 83.1204,14.700844 82.473325,14.700844 H 67.115058 c -1.337458,0 -2.167956,0.61566 -2.490644,1.847789 -0.599521,2.199362 -1.268675,6.291068 -2.006612,12.275116 -2.167956,0.661025 -4.26628,1.497025 -6.295819,2.508813 l -9.547329,-7.062263 c -0.599521,-0.439872 -1.199042,-0.659404 -1.798563,-0.659404 -1.01477,0 -3.193766,1.572363 -6.537836,4.718707 -3.34407,3.146344 -5.614777,5.510962 -6.814668,7.094665 -0.415249,0.571916 -0.622449,1.078214 -0.622449,1.518087 0,0.528172 0.230128,1.056343 0.691232,1.583703 3.090166,3.564345 5.557883,6.599708 7.40315,9.108521 -1.153186,2.023576 -2.052467,4.047961 -2.697844,6.071537 l -12.868471,1.847788 c -0.506961,0.0883 -0.945138,0.374256 -1.314531,0.858684 -0.369393,0.483617 -0.553665,0.989915 -0.553665,1.517276 v 14.651886 c 0,0.572725 0.184272,1.088746 0.553665,1.55049 0.369393,0.462555 0.853426,0.738792 1.452947,0.82628 l 12.661271,1.782172 c 0.645377,2.155619 1.590514,4.333109 2.836261,6.532472 -0.829649,1.100086 -2.075395,2.650576 -3.735542,4.653089 -1.660147,2.00251 -2.83711,3.464706 -3.528342,4.389007 -0.369394,0.485236 -0.553666,0.989916 -0.553666,1.518088 0,0.571912 0.161345,1.077396 0.484033,1.517275 1.798563,2.376764 5.603738,6.073158 11.415525,11.088348 0.507809,0.48442 1.084402,0.72583 1.729779,0.72583 0.692081,0 1.268675,-0.19766 1.729779,-0.59298 l 9.755378,-7.063073 c 1.891973,0.924303 3.967368,1.738433 6.227036,2.443203 l 1.936979,12.14307 c 0.04671,0.57191 0.311649,1.045 0.795682,1.41926 0.484032,0.37507 1.049586,0.56057 1.694963,0.56057 h 15.359115 c 1.339157,0 2.168806,-0.61566 2.492343,-1.84779 0.598672,-2.20017 1.266977,-6.29107 2.004914,-12.27511 2.167956,-0.66022 4.267129,-1.49703 6.295819,-2.508818 l 9.548182,7.128688 c 0.64537,0.39532 1.24574,0.59298 1.79856,0.59298 1.01392,0 3.18188,-1.56102 6.50217,-4.68549 3.32199,-3.123667 5.60459,-5.500432 6.84864,-7.128688 0.41524,-0.439879 0.62329,-0.945363 0.62329,-1.517275 0,-0.571922 -0.23012,-1.123586 -0.69208,-1.650131 -3.32029,-3.872176 -5.78801,-6.90754 -7.40315,-9.107712 0.92221,-1.628257 1.82234,-3.629961 2.6987,-6.005921 l 12.79883,-1.846978 c 0.55282,-0.0883 1.01562,-0.375067 1.38417,-0.859493 0.36854,-0.484428 0.55196,-0.990726 0.55196,-1.518087 V 58.193949 c 8.5e-4,-0.571915 -0.18257,-1.087936 -0.55281,-1.55049 z M 87.318745,77.333668 c -3.458709,3.30026 -7.633278,4.950389 -12.522855,4.950389 -4.889578,0 -9.063296,-1.650129 -12.522855,-4.950389 -3.45871,-3.299449 -5.188489,-7.280983 -5.188489,-11.945415 0,-4.66443 1.72893,-8.645964 5.188489,-11.946224 3.459559,-3.299449 7.634127,-4.949578 12.522855,-4.949578 4.889577,0 9.064146,1.650129 12.522855,4.949578 3.45871,3.30026 5.188489,7.281794 5.188489,11.946224 0,4.664432 -1.729779,8.645966 -5.188489,11.945415 z"
   id="path3"
   inkscape:connector-curvature="0" />
</svg>