<?xml version="1.0" encoding="UTF-8" standalone="no"?>
<!-- Generator: Adobe Illustrator 16.0.4, SVG Export Plug-In . SVG Version: 6.00 Build 0)  -->

<svg
   xmlns:dc="http://purl.org/dc/elements/1.1/"
   xmlns:cc="http://creativecommons.org/ns#"
   xmlns:rdf="http://www.w3.org/1999/02/22-rdf-syntax-ns#"
   xmlns:svg="http://www.w3.org/2000/svg"
   xmlns="http://www.w3.org/2000/svg"
   xmlns:sodipodi="http://sodipodi.sourceforge.net/DTD/sodipodi-0.dtd"
   xmlns:inkscape="http://www.inkscape.org/namespaces/inkscape"
   version="1.1"
   id="Capa_1"
   x="0px"
   y="0px"
   width="150"
   height="130"
   viewBox="0 0 150 130"
   enable-background="new 0 0 216 146"
   xml:space="preserve"
   inkscape:version="0.48.3.1 r9886"
   sodipodi:docname="icon-book.svg"><metadata
   id="metadata9"><rdf:RDF><cc:Work
       rdf:about=""><dc:format>image/svg+xml</dc:format><dc:type
         rdf:resource="http://purl.org/dc/dcmitype/StillImage" /></cc:Work></rdf:RDF></metadata><defs
   id="defs7" /><sodipodi:namedview
   pagecolor="#ffffff"
   bordercolor="#666666"
   borderopacity="1"
   objecttolerance="10"
   gridtolerance="10"
   guidetolerance="10"
   inkscape:pageopacity="0"
   inkscape:pageshadow="2"
   inkscape:window-width="640"
   inkscape:window-height="480"
   id="namedview5"
   showgrid="false"
   inkscape:zoom="1.4305556"
   inkscape:cx="108"
   inkscape:cy="73"
   inkscape:window-x="65"
   inkscape:window-y="24"
   inkscape:window-maximized="0"
   inkscape:current-layer="Capa_1" />
<path
   d="m 121.92639,40.693729 c -0.8045,-1.274611 -1.93675,-2.252565 -3.39673,-2.935543 0.0777,1.593891 -0.0177,2.891128 -0.28677,3.893386 l -17.26335,67.386738 c -0.30796,1.18327 -0.979679,2.1277 -2.014449,2.83331 -1.036183,0.70559 -2.109801,1.0584 -3.222268,1.0584 H 42.627676 c -4.603845,0 -7.365587,-1.59137 -8.286638,-4.77916 -0.383536,-1.22936 -0.364466,-2.20731 0.05792,-2.93555 0.421677,-0.68381 1.150608,-1.02488 2.186791,-1.02488 h 50.008012 c 3.56766,0 6.032745,-0.78604 7.394545,-2.35648 1.363213,-1.57042 2.734195,-5.06408 4.115066,-10.480125 L 113.87072,29.496266 c 0.84336,-3.367955 0.49867,-6.32696 -1.03618,-8.875342 -1.53485,-2.548382 -3.72164,-3.822993 -6.56037,-3.822993 H 62.481846 c -0.498667,0 -1.476931,0.204475 -2.934792,0.61426 l 0.05721,-0.205312 c -1.074324,-0.272353 -1.985487,-0.397214 -2.733488,-0.375427 -0.748002,0.02346 -1.43879,0.284923 -2.07166,0.786052 -0.63287,0.501129 -1.141426,1.034939 -1.524962,1.603946 -0.383536,0.569008 -0.75789,1.297237 -1.122355,2.184687 -0.363759,0.888289 -0.671011,1.707861 -0.920345,2.458716 -0.249334,0.750855 -0.537516,1.5478 -0.863133,2.390836 -0.326323,0.842199 -0.642052,1.536069 -0.949304,2.081612 -0.230263,0.364534 -0.55588,0.842199 -0.978264,1.433832 -0.421678,0.591634 -0.767073,1.115389 -1.035477,1.570427 -0.268405,0.455038 -0.441455,0.864824 -0.517738,1.229358 -0.07628,0.408947 -0.03814,1.012313 0.115131,1.809259 0.153273,0.796107 0.211192,1.376008 0.172344,1.740543 -0.153273,1.729647 -0.6809,3.925229 -1.582174,6.588418 -0.901275,2.663189 -1.717083,4.586417 -2.446014,5.769685 -0.153273,0.2271 -0.574951,0.739123 -1.265739,1.536069 -0.690789,0.796107 -1.112467,1.489978 -1.26574,2.081611 -0.153273,0.227101 -0.163162,0.864825 -0.02896,1.911497 0.134202,1.047509 0.182939,1.774901 0.144091,2.184686 -0.15398,1.547801 -0.63287,3.595893 -1.43879,6.145113 -0.80592,2.548382 -1.611134,4.642563 -2.417054,6.28087 -0.115132,0.27319 -0.440749,0.796107 -0.978264,1.570427 -0.53681,0.774319 -0.863133,1.411205 -0.978264,1.911496 -0.07628,0.363695 -0.06639,1.001419 0.02896,1.911495 0.09535,0.910078 0.08617,1.592216 -0.02896,2.047254 -0.306547,1.728811 -0.882204,3.812098 -1.726266,6.24735 -0.844062,2.434413 -1.707194,4.518538 -2.590104,6.246511 -0.229557,0.455876 -0.546698,0.991364 -0.949305,1.604785 -0.402607,0.61426 -0.719041,1.148909 -0.949304,1.603947 -0.230263,0.455877 -0.383536,0.933541 -0.460526,1.433832 -0.03814,0.27319 0.01978,0.717334 0.17305,1.332433 0.153273,0.613422 0.211192,1.102818 0.172344,1.468189 -0.03885,0.636887 -0.115131,1.479923 -0.230263,2.526591 -0.115131,1.046675 -0.17305,1.660101 -0.17305,1.841941 -0.844062,2.73192 -0.80592,5.6222 0.115131,8.67255 1.074325,3.54896 2.982823,6.54316 5.725494,8.97842 2.743378,2.43441 5.591291,3.6512 8.545861,3.6512 h 53.115856 c 2.492631,0 4.842587,-0.99052 7.048447,-2.96906 2.20586,-1.98022 3.6736,-4.42636 4.40183,-7.34095 l 15.82457,-61.855888 c 0.84477,-3.277448 0.50008,-6.21299 -1.03548,-8.807463 z m -61.228728,0.136595 1.208527,-4.370211 c 0.153273,-0.591635 0.469708,-1.103658 0.949305,-1.536069 0.479596,-0.431574 0.969081,-0.648618 1.467749,-0.648618 h 34.988655 c 0.536809,0 0.920342,0.216206 1.150612,0.648618 0.23026,0.432411 0.26911,0.944434 0.11583,1.536069 l -1.20923,4.370211 c -0.153979,0.591634 -0.469708,1.102819 -0.950011,1.536068 -0.480302,0.431575 -0.968375,0.647781 -1.467043,0.647781 H 61.964108 c -0.537516,0 -0.921052,-0.215368 -1.151315,-0.647781 -0.230262,-0.433249 -0.268404,-0.944434 -0.115131,-1.536068 z M 55.921473,58.308657 57.13,53.939282 c 0.153273,-0.591633 0.469708,-1.103655 0.949305,-1.536068 0.479596,-0.432412 0.968375,-0.648618 1.467749,-0.648618 h 34.987949 c 0.537515,0 0.921051,0.215368 1.151314,0.648618 0.229557,0.432413 0.268405,0.944435 0.114425,1.536068 l -1.208527,4.369375 c -0.153273,0.591633 -0.469708,1.103655 -0.949305,1.536068 -0.480303,0.432412 -0.968375,0.648618 -1.467749,0.648618 H 57.187212 c -0.536809,0 -0.920345,-0.215368 -1.150608,-0.648618 C 55.806341,59.412312 55.7682,58.90029 55.921473,58.308657 z"
   id="path3"
   inkscape:connector-curvature="0" />
</svg>