<?xml version="1.0" encoding="UTF-8" standalone="no"?>
<!-- Generator: Adobe Illustrator 16.0.4, SVG Export Plug-In . SVG Version: 6.00 Build 0)  -->

<svg
   xmlns:dc="http://purl.org/dc/elements/1.1/"
   xmlns:cc="http://creativecommons.org/ns#"
   xmlns:rdf="http://www.w3.org/1999/02/22-rdf-syntax-ns#"
   xmlns:svg="http://www.w3.org/2000/svg"
   xmlns="http://www.w3.org/2000/svg"
   xmlns:sodipodi="http://sodipodi.sourceforge.net/DTD/sodipodi-0.dtd"
   xmlns:inkscape="http://www.inkscape.org/namespaces/inkscape"
   version="1.1"
   id="Capa_1"
   x="0px"
   y="0px"
   width="150"
   height="130"
   viewBox="0 0 150 130"
   enable-background="new 0 0 216 146"
   xml:space="preserve"
   inkscape:version="0.48.3.1 r9886"
   sodipodi:docname="icon-plane.svg"><metadata
   id="metadata9"><rdf:RDF><cc:Work
       rdf:about=""><dc:format>image/svg+xml</dc:format><dc:type
         rdf:resource="http://purl.org/dc/dcmitype/StillImage" /></cc:Work></rdf:RDF></metadata><defs
   id="defs7" /><sodipodi:namedview
   pagecolor="#ffffff"
   bordercolor="#666666"
   borderopacity="1"
   objecttolerance="10"
   gridtolerance="10"
   guidetolerance="10"
   inkscape:pageopacity="0"
   inkscape:pageshadow="2"
   inkscape:window-width="640"
   inkscape:window-height="480"
   id="namedview5"
   showgrid="false"
   inkscape:zoom="1.4305556"
   inkscape:cx="108"
   inkscape:cy="73"
   inkscape:window-x="65"
   inkscape:window-y="24"
   inkscape:window-maximized="0"
   inkscape:current-layer="Capa_1" />
<path
   d="m 122.88966,28.302588 c 1.52521,-4.543663 1.23913,-8.045961 -0.85914,-10.507765 -2.47825,-2.08273 -6.00607,-2.365946 -10.58258,-0.854006 -4.57651,1.514554 -8.67563,4.070473 -12.29823,7.667757 L 87.709741,35.968602 40.164903,24.680032 c -0.762605,-0.237031 -1.477823,-0.04793 -2.144774,0.567304 l -9.152149,9.088197 c -0.523907,0.521118 -0.738911,1.15988 -0.643256,1.917157 0.143043,0.758149 0.548479,1.325453 1.21543,1.704527 L 65.761785,57.765809 47.243361,76.154833 33.372533,72.392848 c -0.09478,-0.04793 -0.285209,-0.07146 -0.571296,-0.07146 -0.667829,0 -1.215431,0.21263 -1.644561,0.638762 l -6.863454,6.886952 c -0.476519,0.566433 -0.690645,1.159009 -0.643256,1.773371 0.09478,0.757277 0.404558,1.301924 0.929343,1.63394 l 18.017333,13.417483 13.512781,17.891444 c 0.42913,0.52112 1.001304,0.82786 1.716521,0.92372 h 0.143044 c 0.667828,0 1.21543,-0.21263 1.644561,-0.63789 l 6.863453,-6.81549 c 0.619563,-0.66317 0.809995,-1.39692 0.572174,-2.20125 L 63.259841,92.058525 81.778264,73.668629 101.72625,109.73733 c 0.28521,0.61523 0.7863,0.99431 1.50151,1.13635 0.14217,0.0479 0.30979,0.0706 0.50022,0.0706 0.5713,0 1.02412,-0.14205 1.3576,-0.42526 l 9.1539,-6.8155 c 0.80912,-0.66229 1.09521,-1.44309 0.85739,-2.34241 L 103.65778,51.946365 115.16883,40.515751 c 3.62172,-3.598156 6.19562,-7.669501 7.72083,-12.213163 z"
   id="path3"
   inkscape:connector-curvature="0" />
</svg>