<?xml version="1.0" encoding="UTF-8" standalone="no"?>
<!-- Generator: Adobe Illustrator 16.0.4, SVG Export Plug-In . SVG Version: 6.00 Build 0)  -->

<svg
   xmlns:dc="http://purl.org/dc/elements/1.1/"
   xmlns:cc="http://creativecommons.org/ns#"
   xmlns:rdf="http://www.w3.org/1999/02/22-rdf-syntax-ns#"
   xmlns:svg="http://www.w3.org/2000/svg"
   xmlns="http://www.w3.org/2000/svg"
   xmlns:sodipodi="http://sodipodi.sourceforge.net/DTD/sodipodi-0.dtd"
   xmlns:inkscape="http://www.inkscape.org/namespaces/inkscape"
   version="1.1"
   id="Capa_1"
   x="0px"
   y="0px"
   width="150"
   height="130"
   viewBox="0 0 150 130"
   enable-background="new 0 0 216 146"
   xml:space="preserve"
   inkscape:version="0.48.3.1 r9886"
   sodipodi:docname="icon-cut.svg"><metadata
   id="metadata13"><rdf:RDF><cc:Work
       rdf:about=""><dc:format>image/svg+xml</dc:format><dc:type
         rdf:resource="http://purl.org/dc/dcmitype/StillImage" /></cc:Work></rdf:RDF></metadata><defs
   id="defs11" /><sodipodi:namedview
   pagecolor="#ffffff"
   bordercolor="#666666"
   borderopacity="1"
   objecttolerance="10"
   gridtolerance="10"
   guidetolerance="10"
   inkscape:pageopacity="0"
   inkscape:pageshadow="2"
   inkscape:window-width="640"
   inkscape:window-height="480"
   id="namedview9"
   showgrid="false"
   inkscape:zoom="1.4305556"
   inkscape:cx="108"
   inkscape:cy="73"
   inkscape:window-x="65"
   inkscape:window-y="24"
   inkscape:window-maximized="0"
   inkscape:current-layer="Capa_1" />
<g
   id="g3"
   transform="matrix(0.83246914,0,0,0.79282248,-17.906669,8.2111301)">
	<path
   d="M 178.959,105.426 137.652,73 178.958,40.569 c 1.521,-1.085 2.199,-2.605 2.037,-4.562 -0.272,-1.9 -1.224,-3.286 -2.853,-4.155 l -10.429,-5.214 c -0.706,-0.38 -1.493,-0.57 -2.362,-0.57 -0.922,0 -1.765,0.217 -2.525,0.651 L 106.61,58.25 97.648,52.873 C 97.213,52.656 96.887,52.521 96.67,52.466 97.431,49.805 97.702,47.17 97.485,44.563 97.105,40.381 95.584,36.361 92.923,32.505 90.262,28.649 86.677,25.308 82.169,22.484 74.999,17.921 67.477,15.64 59.601,15.64 c -7.441,0 -13.47,2.146 -18.087,6.437 -2.335,2.118 -4.06,4.643 -5.173,7.577 -1.114,2.933 -1.534,6.002 -1.263,9.206 0.38,4.128 1.901,8.121 4.562,11.977 2.661,3.857 6.219,7.225 10.673,10.103 7.169,4.563 14.719,6.844 22.649,6.844 4.508,0 8.609,-0.841 12.302,-2.525 0.488,0.706 1.086,1.304 1.792,1.793 l 9.94,5.947 -9.94,5.946 c -0.706,0.49 -1.303,1.088 -1.792,1.793 -3.693,-1.684 -7.794,-2.525 -12.302,-2.525 -7.93,0 -15.48,2.282 -22.649,6.844 -4.454,2.879 -8.011,6.248 -10.673,10.104 -2.661,3.857 -4.182,7.849 -4.562,11.977 -0.597,6.682 1.549,12.303 6.437,16.865 4.671,4.236 10.7,6.355 18.087,6.355 7.876,0 15.398,-2.282 22.568,-6.845 4.507,-2.878 8.093,-6.231 10.754,-10.062 2.661,-3.83 4.182,-7.835 4.562,-12.018 0.217,-2.606 -0.054,-5.242 -0.815,-7.902 0.217,-0.055 0.543,-0.19 0.978,-0.407 l 8.962,-5.378 56.216,31.529 c 0.76,0.435 1.603,0.652 2.526,0.652 0.869,0 1.655,-0.189 2.361,-0.57 l 10.43,-5.215 c 1.629,-0.869 2.58,-2.254 2.852,-4.154 0.162,-1.955 -0.516,-3.474 -2.037,-4.562 z m -96.79,-53.61 c -2.118,1.956 -5.187,2.934 -9.207,2.934 -5.432,0 -10.646,-1.603 -15.643,-4.807 -4.399,-2.77 -7.278,-5.948 -8.636,-9.533 -1.358,-3.584 -0.788,-6.518 1.711,-8.799 2.119,-1.955 5.188,-2.933 9.207,-2.933 5.432,0 10.646,1.603 15.643,4.807 4.399,2.77 7.278,5.947 8.636,9.532 1.358,3.585 0.788,6.518 -1.711,8.799 z m 1.711,51.166 c -1.358,3.584 -4.237,6.762 -8.636,9.533 -4.997,3.203 -10.211,4.806 -15.643,4.807 -4.019,0 -7.088,-0.979 -9.207,-2.934 -2.499,-2.281 -3.069,-5.215 -1.711,-8.8 1.358,-3.585 4.237,-6.761 8.636,-9.532 4.997,-3.203 10.211,-4.807 15.643,-4.807 4.019,0 7.088,0.979 9.207,2.934 2.499,2.281 3.069,5.215 1.711,8.799 z m 5.866,-40.411 0.732,-0.731 c 0.055,-0.054 0.136,-0.122 0.245,-0.203 0.109,-0.082 0.218,-0.177 0.326,-0.285 0.272,-0.218 0.598,-0.544 0.978,-0.979 0.38,-0.434 0.652,-0.733 0.815,-0.896 l 2.118,-2.118 6.437,3.829 -1.141,0.651 c -1.792,1.086 -2.688,2.607 -2.688,4.562 v 0.896 l -7.822,-4.726 z m 18.25,18.25 -13.037,7.82 -2.118,-2.118 c -0.217,-0.217 -0.516,-0.543 -0.896,-0.979 -0.38,-0.435 -0.679,-0.761 -0.896,-0.978 -0.271,-0.218 -0.461,-0.381 -0.57,-0.489 l -0.733,-0.65 13.036,-7.821 v -9.207 l 62.571,-35.115 10.428,5.215 -59.965,46.929 -7.82,-2.607 z m 57.358,33.893 -47.418,-26.642 c 0.599,-0.217 0.953,-0.407 1.06,-0.57 l 14.422,-11.243 42.365,33.241 -10.429,5.214 z"
   id="path5"
   inkscape:connector-curvature="0" />
	<path
   d="m 113.21,67.785 c -1.412,0 -2.634,0.517 -3.666,1.549 -1.032,1.031 -1.548,2.254 -1.548,3.666 0,1.412 0.516,2.634 1.548,3.666 1.032,1.032 2.254,1.548 3.666,1.548 1.412,0 2.634,-0.516 3.667,-1.548 1.031,-1.032 1.547,-2.254 1.547,-3.666 0,-1.412 -0.516,-2.635 -1.547,-3.666 -1.033,-1.032 -2.255,-1.549 -3.667,-1.549 z"
   id="path7"
   inkscape:connector-curvature="0" />
</g>
</svg>