<?xml version="1.0" encoding="UTF-8" standalone="no"?>
<!-- Generator: Adobe Illustrator 16.0.4, SVG Export Plug-In . SVG Version: 6.00 Build 0)  -->

<svg
   xmlns:dc="http://purl.org/dc/elements/1.1/"
   xmlns:cc="http://creativecommons.org/ns#"
   xmlns:rdf="http://www.w3.org/1999/02/22-rdf-syntax-ns#"
   xmlns:svg="http://www.w3.org/2000/svg"
   xmlns="http://www.w3.org/2000/svg"
   xmlns:sodipodi="http://sodipodi.sourceforge.net/DTD/sodipodi-0.dtd"
   xmlns:inkscape="http://www.inkscape.org/namespaces/inkscape"
   version="1.1"
   id="Capa_1"
   x="0px"
   y="0px"
   width="150"
   height="130"
   viewBox="0 0 150 130"
   enable-background="new 0 0 216 146"
   xml:space="preserve"
   inkscape:version="0.48.3.1 r9886"
   sodipodi:docname="icon-money.svg"><metadata
   id="metadata13"><rdf:RDF><cc:Work
       rdf:about=""><dc:format>image/svg+xml</dc:format><dc:type
         rdf:resource="http://purl.org/dc/dcmitype/StillImage" /></cc:Work></rdf:RDF></metadata><defs
   id="defs11" /><sodipodi:namedview
   pagecolor="#ffffff"
   bordercolor="#666666"
   borderopacity="1"
   objecttolerance="10"
   gridtolerance="10"
   guidetolerance="10"
   inkscape:pageopacity="0"
   inkscape:pageshadow="2"
   inkscape:window-width="640"
   inkscape:window-height="480"
   id="namedview9"
   showgrid="false"
   inkscape:zoom="1.4305556"
   inkscape:cx="108"
   inkscape:cy="73"
   inkscape:window-x="65"
   inkscape:window-y="24"
   inkscape:window-maximized="0"
   inkscape:current-layer="Capa_1" />
<g
   id="g3"
   transform="matrix(0.81231718,0,0,0.76539273,-11.885595,10.563107)">
	<path
   d="M 184.666,22.405 C 183.635,21.373 182.412,20.857 181,20.857 H 35 c -1.412,0 -2.635,0.516 -3.667,1.548 -1.031,1.032 -1.548,2.254 -1.548,3.666 v 93.856 c 0,1.412 0.517,2.635 1.548,3.666 1.032,1.032 2.255,1.549 3.667,1.549 h 146 c 1.412,0 2.635,-0.517 3.666,-1.549 1.032,-1.031 1.549,-2.254 1.549,-3.666 V 26.071 c 0,-1.412 -0.517,-2.633 -1.549,-3.666 z m -8.881,71.452 c -5.758,0 -10.672,2.037 -14.747,6.109 -4.074,4.073 -6.11,8.989 -6.11,14.746 H 61.071 c 0,-5.757 -2.037,-10.673 -6.11,-14.746 -4.074,-4.074 -8.989,-6.109 -14.747,-6.109 V 52.142 c 5.758,0 10.673,-2.037 14.747,-6.11 4.073,-4.073 6.11,-8.989 6.11,-14.747 h 93.859 c 0,5.758 2.035,10.674 6.109,14.747 4.074,4.073 8.988,6.11 14.746,6.11 v 41.715 z"
   id="path5"
   inkscape:connector-curvature="0" />
	<path
   d="m 127.512,50.514 c -2.091,-3.368 -4.848,-6.111 -8.27,-8.229 -3.422,-2.118 -7.169,-3.177 -11.243,-3.177 -4.074,0 -7.821,1.059 -11.243,3.177 -3.422,2.118 -6.179,4.861 -8.27,8.229 -2.092,3.367 -3.707,7.006 -4.848,10.917 -1.141,3.911 -1.711,7.768 -1.711,11.569 0,3.801 0.57,7.658 1.711,11.568 1.141,3.91 2.756,7.551 4.848,10.918 2.091,3.369 4.848,6.11 8.27,8.229 3.422,2.119 7.169,3.178 11.243,3.178 4.074,0 7.821,-1.059 11.243,-3.178 3.422,-2.119 6.179,-4.861 8.27,-8.229 2.092,-3.367 3.707,-7.008 4.848,-10.918 1.142,-3.91 1.711,-7.767 1.711,-11.568 0,-3.801 -0.569,-7.658 -1.711,-11.569 -1.141,-3.911 -2.756,-7.55 -4.848,-10.917 z m -3.869,43.343 H 92.356 v -7.822 h 10.427 V 62.571 h -0.163 c -0.706,1.086 -2.199,2.635 -4.48,4.644 l -6.273,-6.518 12.058,-11.162 h 9.289 v 36.5 h 10.429 v 7.822 z"
   id="path7"
   inkscape:connector-curvature="0" />
</g>
</svg>