<?xml version="1.0" encoding="UTF-8" standalone="no"?>
<!-- Generator: Adobe Illustrator 16.0.4, SVG Export Plug-In . SVG Version: 6.00 Build 0)  -->

<svg
   xmlns:dc="http://purl.org/dc/elements/1.1/"
   xmlns:cc="http://creativecommons.org/ns#"
   xmlns:rdf="http://www.w3.org/1999/02/22-rdf-syntax-ns#"
   xmlns:svg="http://www.w3.org/2000/svg"
   xmlns="http://www.w3.org/2000/svg"
   xmlns:sodipodi="http://sodipodi.sourceforge.net/DTD/sodipodi-0.dtd"
   xmlns:inkscape="http://www.inkscape.org/namespaces/inkscape"
   version="1.1"
   id="Capa_1"
   x="0px"
   y="0px"
   width="150"
   height="130"
   viewBox="0 0 150 130"
   enable-background="new 0 0 216 146"
   xml:space="preserve"
   inkscape:version="0.48.3.1 r9886"
   sodipodi:docname="icon-yen.svg"><metadata
   id="metadata9"><rdf:RDF><cc:Work
       rdf:about=""><dc:format>image/svg+xml</dc:format><dc:type
         rdf:resource="http://purl.org/dc/dcmitype/StillImage" /></cc:Work></rdf:RDF></metadata><defs
   id="defs7" /><sodipodi:namedview
   pagecolor="#ffffff"
   bordercolor="#666666"
   borderopacity="1"
   objecttolerance="10"
   gridtolerance="10"
   guidetolerance="10"
   inkscape:pageopacity="0"
   inkscape:pageshadow="2"
   inkscape:window-width="640"
   inkscape:window-height="480"
   id="namedview5"
   showgrid="false"
   inkscape:zoom="1.4305556"
   inkscape:cx="108"
   inkscape:cy="73"
   inkscape:window-x="65"
   inkscape:window-y="24"
   inkscape:window-maximized="0"
   inkscape:current-layer="Capa_1" />
<path
   d="m 113.83396,11.996381 c -0.47948,-0.778978 -1.12673,-1.168915 -1.94175,-1.168915 H 98.150764 c -1.006636,0 -1.70245,0.463442 -2.086561,1.387639 L 82.323634,42.889277 c -0.336428,0.828281 -0.996039,2.312732 -1.97795,4.456042 -0.982794,2.142414 -1.713929,3.797183 -2.193405,4.966098 -1.774856,-4.236422 -3.11792,-7.279726 -4.029189,-9.129911 L 58.654464,12.142496 c -0.48036,-0.876687 -1.175291,-1.31503 -2.086561,-1.31503 H 42.610996 c -0.862704,0 -1.534677,0.389937 -2.014153,1.168915 -0.383228,0.778978 -0.383228,1.557956 0,2.336934 L 63.690288,56.546944 H 48.294069 c -0.623407,0 -1.162928,0.230376 -1.618563,0.692923 -0.455635,0.463442 -0.683452,1.010251 -0.683452,1.643115 v 7.596158 c 0,0.682166 0.227817,1.242421 0.683452,1.679868 0.455635,0.437447 0.995156,0.657067 1.618563,0.657067 h 20.719023 v 6.207623 H 48.294069 c -0.623407,0 -1.162928,0.231273 -1.618563,0.693819 -0.455635,0.462546 -0.683452,1.010251 -0.683452,1.643115 v 7.522653 c 0,0.682166 0.227817,1.242421 0.683452,1.679868 0.455635,0.437447 0.995156,0.657067 1.618563,0.657067 h 20.719906 v 24.10082 c 0,0.68216 0.227818,1.24152 0.683452,1.67986 0.455635,0.43745 0.995156,0.65707 1.618564,0.65707 h 12.374547 c 0.623408,0 1.162046,-0.23127 1.62033,-0.69382 0.453868,-0.46344 0.681686,-1.01025 0.681686,-1.64311 V 87.22022 h 20.863836 c 0.62252,0 1.16204,-0.21962 1.61768,-0.657067 0.45563,-0.437447 0.68257,-0.997702 0.68257,-1.679868 v -7.522653 c 0,-0.632864 -0.22605,-1.180569 -0.68257,-1.643115 -0.45564,-0.463443 -0.99516,-0.693819 -1.61768,-0.693819 H 85.992554 v -6.207623 h 20.863836 c 0.62252,0 1.16204,-0.21962 1.61768,-0.657067 0.45563,-0.437447 0.68257,-0.997702 0.68257,-1.679868 v -7.596158 c 0,-0.632864 -0.22605,-1.179673 -0.68257,-1.643115 -0.45564,-0.46165 -0.99516,-0.692923 -1.61768,-0.692923 H 91.388648 L 113.90725,14.25981 c 0.38234,-0.826488 0.3585,-1.581263 -0.0733,-2.263429 z"
   id="path3"
   inkscape:connector-curvature="0" />
</svg>