<?xml version="1.0" encoding="UTF-8" standalone="no"?>
<!-- Generator: Adobe Illustrator 16.0.4, SVG Export Plug-In . SVG Version: 6.00 Build 0)  -->

<svg
   xmlns:dc="http://purl.org/dc/elements/1.1/"
   xmlns:cc="http://creativecommons.org/ns#"
   xmlns:rdf="http://www.w3.org/1999/02/22-rdf-syntax-ns#"
   xmlns:svg="http://www.w3.org/2000/svg"
   xmlns="http://www.w3.org/2000/svg"
   xmlns:sodipodi="http://sodipodi.sourceforge.net/DTD/sodipodi-0.dtd"
   xmlns:inkscape="http://www.inkscape.org/namespaces/inkscape"
   version="1.1"
   id="Capa_1"
   x="0px"
   y="0px"
   width="150"
   height="130"
   viewBox="0 0 150 130"
   enable-background="new 0 0 216 146"
   xml:space="preserve"
   inkscape:version="0.48.3.1 r9886"
   sodipodi:docname="icon-save.svg"><metadata
   id="metadata9"><rdf:RDF><cc:Work
       rdf:about=""><dc:format>image/svg+xml</dc:format><dc:type
         rdf:resource="http://purl.org/dc/dcmitype/StillImage" /></cc:Work></rdf:RDF></metadata><defs
   id="defs7" /><sodipodi:namedview
   pagecolor="#ffffff"
   bordercolor="#666666"
   borderopacity="1"
   objecttolerance="10"
   gridtolerance="10"
   guidetolerance="10"
   inkscape:pageopacity="0"
   inkscape:pageshadow="2"
   inkscape:window-width="640"
   inkscape:window-height="480"
   id="namedview5"
   showgrid="false"
   inkscape:zoom="1.4305556"
   inkscape:cx="108"
   inkscape:cy="73"
   inkscape:window-x="65"
   inkscape:window-y="24"
   inkscape:window-maximized="0"
   inkscape:current-layer="Capa_1" />
<path
   d="m 125.90147,41.67128 c -0.88581,-2.140181 -1.95025,-3.835245 -3.19088,-5.084368 L 104.10366,17.85252 c -1.23981,-1.248302 -2.92415,-2.319214 -5.05059,-3.211915 -2.125621,-0.891879 -4.075059,-1.337819 -5.846681,-1.337819 H 31.536465 c -1.771623,0 -3.278155,0.624152 -4.51878,1.873275 -1.240625,1.248303 -1.86053,2.765154 -1.86053,4.549734 v 89.927045 c 0,1.78458 0.619905,3.30143 1.86053,4.54974 1.240625,1.2483 2.747157,1.87327 4.51878,1.87327 h 89.315225 c 1.77244,0 3.27897,-0.62497 4.51878,-1.87327 1.23981,-1.24831 1.85972,-2.76516 1.85972,-4.54974 V 47.560475 c 0,-1.784579 -0.44291,-3.747371 -1.32872,-5.889195 z M 67.688335,24.007801 c 0,-0.579804 0.210442,-1.080767 0.631324,-1.505354 0.420883,-0.422945 0.919254,-0.634828 1.495113,-0.634828 h 12.760251 c 0.574228,0 1.072599,0.211062 1.493482,0.634828 0.421698,0.424587 0.632139,0.92555 0.632139,1.505354 v 21.41085 c 0,0.580625 -0.211257,1.08241 -0.632139,1.506176 -0.420883,0.422944 -0.919254,0.634827 -1.493482,0.634827 H 69.814772 c -0.575859,0 -1.07423,-0.211062 -1.495113,-0.634827 -0.420882,-0.424587 -0.631324,-0.925551 -0.631324,-1.506176 V 24.007801 z M 101.71295,107.51184 H 50.675211 V 81.818165 h 51.037739 v 25.693675 z m 17.01394,0 h -8.50819 -8.2e-4 V 79.676341 c 0,-1.78458 -0.6199,-3.300611 -1.86053,-4.549734 -1.23981,-1.249124 -2.74634,-1.873275 -4.51796,-1.873275 H 48.548774 c -1.772438,0 -3.27897,0.624151 -4.519596,1.873275 -1.239809,1.248302 -1.86053,2.765154 -1.86053,4.549734 V 107.51184 H 33.662902 V 21.866798 h 8.505746 v 27.83468 c 0,1.78458 0.619905,3.300611 1.86053,4.549734 1.240626,1.248303 2.747158,1.873275 4.519596,1.873275 h 38.278307 c 1.771623,0 3.279786,-0.624972 4.518777,-1.873275 1.238994,-1.248302 1.860531,-2.765154 1.860531,-4.549734 v -27.83468 c 0.66395,0 1.527739,0.222559 2.591365,0.668499 1.064442,0.445939 1.8173,0.891879 2.260205,1.337818 l 18.674631,18.802556 c 0.44372,0.44594 0.88663,1.216274 1.32953,2.308538 0.44372,1.093086 0.66477,1.952115 0.66477,2.576266 v 59.951365 z"
   id="path3"
   inkscape:connector-curvature="0" />
</svg>