<?xml version="1.0" encoding="UTF-8" standalone="no"?>
<!-- Generator: Adobe Illustrator 16.0.4, SVG Export Plug-In . SVG Version: 6.00 Build 0)  -->

<svg
   xmlns:dc="http://purl.org/dc/elements/1.1/"
   xmlns:cc="http://creativecommons.org/ns#"
   xmlns:rdf="http://www.w3.org/1999/02/22-rdf-syntax-ns#"
   xmlns:svg="http://www.w3.org/2000/svg"
   xmlns="http://www.w3.org/2000/svg"
   xmlns:sodipodi="http://sodipodi.sourceforge.net/DTD/sodipodi-0.dtd"
   xmlns:inkscape="http://www.inkscape.org/namespaces/inkscape"
   version="1.1"
   id="Capa_1"
   x="0px"
   y="0px"
   width="150"
   height="130"
   viewBox="0 0 150 130"
   enable-background="new 0 0 216 146"
   xml:space="preserve"
   inkscape:version="0.48.3.1 r9886"
   sodipodi:docname="icon-microphone.svg"><metadata
   id="metadata13"><rdf:RDF><cc:Work
       rdf:about=""><dc:format>image/svg+xml</dc:format><dc:type
         rdf:resource="http://purl.org/dc/dcmitype/StillImage" /></cc:Work></rdf:RDF></metadata><defs
   id="defs11" /><sodipodi:namedview
   pagecolor="#ffffff"
   bordercolor="#666666"
   borderopacity="1"
   objecttolerance="10"
   gridtolerance="10"
   guidetolerance="10"
   inkscape:pageopacity="0"
   inkscape:pageshadow="2"
   inkscape:window-width="640"
   inkscape:window-height="480"
   id="namedview9"
   showgrid="false"
   inkscape:zoom="1.4305556"
   inkscape:cx="108"
   inkscape:cy="73"
   inkscape:window-x="65"
   inkscape:window-y="24"
   inkscape:window-maximized="0"
   inkscape:current-layer="Capa_1" />
<g
   id="g3"
   transform="matrix(0.73188454,0,0,0.80922257,-1.1016492,1.7714124)">
	<path
   d="m 108,99.07 c 7.17,0 13.307,-2.553 18.412,-7.657 C 131.517,86.309 134.07,80.17 134.07,73 V 31.286 c 0,-7.17 -2.551,-13.307 -7.658,-18.413 C 121.307,7.768 115.17,5.214 108,5.214 c -7.17,0 -13.307,2.554 -18.413,7.659 -5.106,5.105 -7.659,11.243 -7.659,18.413 V 73 c 0,7.17 2.554,13.309 7.659,18.413 5.105,5.104 11.243,7.657 18.413,7.657 z"
   id="path5"
   inkscape:connector-curvature="0" />
	<path
   d="m 153.38,58.905 c -1.03,-1.032 -2.254,-1.548 -3.666,-1.548 -1.412,0 -2.634,0.516 -3.666,1.548 -1.032,1.032 -1.548,2.254 -1.548,3.666 V 73 c 0,10.049 -3.572,18.643 -10.714,25.786 C 126.645,105.929 118.049,109.5 108,109.5 97.951,109.5 89.356,105.929 82.213,98.786 75.071,91.645 71.5,83.049 71.5,73 V 62.571 c 0,-1.412 -0.516,-2.634 -1.548,-3.666 -1.032,-1.032 -2.253,-1.548 -3.666,-1.548 -1.413,0 -2.635,0.516 -3.667,1.548 -1.032,1.032 -1.548,2.254 -1.548,3.666 V 73 c 0,12.004 4.006,22.446 12.017,31.326 8.011,8.88 17.91,13.972 29.697,15.275 v 10.756 H 81.928 c -1.412,0 -2.634,0.516 -3.666,1.548 -1.032,1.032 -1.548,2.254 -1.548,3.666 0,1.411 0.516,2.635 1.548,3.666 1.032,1.032 2.254,1.549 3.666,1.549 h 52.142 c 1.412,0 2.636,-0.517 3.666,-1.549 1.033,-1.031 1.55,-2.255 1.55,-3.666 0,-1.412 -0.517,-2.634 -1.55,-3.666 -1.03,-1.032 -2.254,-1.548 -3.666,-1.548 H 113.215 V 119.601 C 125,118.298 134.899,113.206 142.911,104.326 150.923,95.446 154.93,85.004 154.93,73 V 62.571 c 0,-1.412 -0.517,-2.633 -1.55,-3.666 z"
   id="path7"
   inkscape:connector-curvature="0" />
</g>
</svg>