<?xml version="1.0" encoding="UTF-8" standalone="no"?>
<!-- Generator: Adobe Illustrator 16.0.4, SVG Export Plug-In . SVG Version: 6.00 Build 0)  -->

<svg
   xmlns:dc="http://purl.org/dc/elements/1.1/"
   xmlns:cc="http://creativecommons.org/ns#"
   xmlns:rdf="http://www.w3.org/1999/02/22-rdf-syntax-ns#"
   xmlns:svg="http://www.w3.org/2000/svg"
   xmlns="http://www.w3.org/2000/svg"
   xmlns:sodipodi="http://sodipodi.sourceforge.net/DTD/sodipodi-0.dtd"
   xmlns:inkscape="http://www.inkscape.org/namespaces/inkscape"
   version="1.1"
   id="Capa_1"
   x="0px"
   y="0px"
   width="150"
   height="130"
   viewBox="0 0 150 130"
   enable-background="new 0 0 216 146"
   xml:space="preserve"
   inkscape:version="0.48.3.1 r9886"
   sodipodi:docname="icon-print.svg"><metadata
   id="metadata9"><rdf:RDF><cc:Work
       rdf:about=""><dc:format>image/svg+xml</dc:format><dc:type
         rdf:resource="http://purl.org/dc/dcmitype/StillImage" /></cc:Work></rdf:RDF></metadata><defs
   id="defs7" /><sodipodi:namedview
   pagecolor="#ffffff"
   bordercolor="#666666"
   borderopacity="1"
   objecttolerance="10"
   gridtolerance="10"
   guidetolerance="10"
   inkscape:pageopacity="0"
   inkscape:pageshadow="2"
   inkscape:window-width="640"
   inkscape:window-height="480"
   id="namedview5"
   showgrid="false"
   inkscape:zoom="1.4305556"
   inkscape:cx="108"
   inkscape:cy="73"
   inkscape:window-x="65"
   inkscape:window-y="24"
   inkscape:window-maximized="0"
   inkscape:current-layer="Capa_1" />
<path
   d="m 120.08506,61.56389 c -2.18354,-2.384053 -4.80095,-3.575303 -7.85293,-3.575303 h -3.70775 V 41.791782 c 0,-1.686699 -0.38763,-3.543464 -1.16005,-5.567191 -0.77242,-2.024504 -1.69918,-3.627333 -2.78099,-4.808488 l -8.808863,-9.616975 c -1.0811,-1.180378 -2.54912,-2.193018 -4.40335,-3.037143 -1.85424,-0.843349 -3.55342,-1.265024 -5.099677,-1.265024 H 47.330429 c -1.545549,0 -2.859231,0.590189 -3.941044,1.771344 -1.081103,1.180378 -1.622365,2.614692 -1.622365,4.302167 v 34.418115 h -3.708465 c -3.051981,0 -5.669386,1.192027 -7.852217,3.575303 -2.182831,2.3825 -3.273891,5.240258 -3.273891,8.572496 v 26.32088 c 0,0.54903 0.183503,1.02196 0.550509,1.42422 0.367005,0.39993 0.80158,0.5995 1.303724,0.5995 h 12.98034 v 10.123304 c 0,1.68747 0.540551,3.12179 1.622365,4.30217 1.081813,1.18037 2.395495,1.77134 3.941044,1.77134 h 55.629831 c 1.54484,0 2.85994,-0.59097 3.94104,-1.77134 1.08111,-1.18116 1.62237,-2.6147 1.62237,-4.30217 V 98.480986 h 12.98034 c 0.50143,0 0.93601,-0.19957 1.30301,-0.5995 0.36701,-0.40226 0.5498,-0.87519 0.5498,-1.42422 v -26.32088 c 7.1e-4,-3.332238 -1.08964,-6.189996 -3.27176,-8.572496 z m -18.97903,45.0159 H 49.184662 V 90.383752 h 51.921368 v 16.196038 z m 0,-40.492411 H 49.184662 V 25.595752 H 86.27145 v 10.122519 c 0,1.687474 0.541977,3.121012 1.622367,4.302167 1.08181,1.181154 2.39478,1.771344 3.94104,1.771344 h 9.271173 v 24.295597 z m 13.73355,6.896669 c -0.7333,0.800638 -1.60316,1.202122 -2.60745,1.202122 -1.00428,0 -1.87343,-0.401484 -2.60744,-1.202122 -0.7333,-0.800638 -1.10031,-1.751153 -1.10031,-2.847662 0,-1.096509 0.36701,-2.045471 1.10031,-2.846886 0.73401,-0.801414 1.60316,-1.202121 2.60744,-1.202121 1.00429,0 1.87415,0.400707 2.60745,1.202121 0.73401,0.801415 1.10173,1.750377 1.10173,2.846886 0,1.096509 -0.36701,2.047024 -1.10173,2.847662 z"
   id="path3"
   inkscape:connector-curvature="0" />
</svg>