<?xml version="1.0" encoding="UTF-8" standalone="no"?>
<!-- Generator: Adobe Illustrator 16.0.4, SVG Export Plug-In . SVG Version: 6.00 Build 0)  -->

<svg
   xmlns:dc="http://purl.org/dc/elements/1.1/"
   xmlns:cc="http://creativecommons.org/ns#"
   xmlns:rdf="http://www.w3.org/1999/02/22-rdf-syntax-ns#"
   xmlns:svg="http://www.w3.org/2000/svg"
   xmlns="http://www.w3.org/2000/svg"
   xmlns:sodipodi="http://sodipodi.sourceforge.net/DTD/sodipodi-0.dtd"
   xmlns:inkscape="http://www.inkscape.org/namespaces/inkscape"
   version="1.1"
   id="Capa_1"
   x="0px"
   y="0px"
   width="150"
   height="130"
   viewBox="0 0 150 130"
   enable-background="new 0 0 216 146"
   xml:space="preserve"
   inkscape:version="0.48.3.1 r9886"
   sodipodi:docname="icon-archive.svg"><metadata
   id="metadata13"><rdf:RDF><cc:Work
       rdf:about=""><dc:format>image/svg+xml</dc:format><dc:type
         rdf:resource="http://purl.org/dc/dcmitype/StillImage" /></cc:Work></rdf:RDF></metadata><defs
   id="defs11" /><sodipodi:namedview
   pagecolor="#ffffff"
   bordercolor="#666666"
   borderopacity="1"
   objecttolerance="10"
   gridtolerance="10"
   guidetolerance="10"
   inkscape:pageopacity="0"
   inkscape:pageshadow="2"
   inkscape:window-width="640"
   inkscape:window-height="480"
   id="namedview9"
   showgrid="false"
   inkscape:zoom="1.4305556"
   inkscape:cx="108"
   inkscape:cy="73"
   inkscape:window-x="65"
   inkscape:window-y="24"
   inkscape:window-maximized="0"
   inkscape:current-layer="Capa_1" />
<g
   id="g3"
   transform="matrix(0.72672019,0,0,0.8044955,-1.5925771,7.7088195)">
	<path
   d="M 165.357,46.929 H 50.644 c -1.413,0 -2.635,0.516 -3.667,1.548 -1.032,1.032 -1.548,2.254 -1.548,3.666 v 78.214 c 0,1.412 0.516,2.635 1.548,3.666 1.032,1.032 2.254,1.549 3.667,1.549 h 114.713 c 1.412,0 2.634,-0.517 3.666,-1.549 1.031,-1.031 1.547,-2.254 1.547,-3.666 V 52.143 c 0,-1.413 -0.514,-2.634 -1.547,-3.666 -1.031,-1.032 -2.253,-1.548 -3.666,-1.548 z M 122.094,71.452 C 121.062,72.484 119.84,73 118.428,73 H 97.571 c -1.412,0 -2.634,-0.516 -3.666,-1.548 -1.032,-1.032 -1.548,-2.254 -1.548,-3.667 0,-1.412 0.516,-2.634 1.548,-3.666 1.032,-1.032 2.254,-1.548 3.666,-1.548 h 20.859 c 1.411,0 2.633,0.516 3.666,1.548 1.031,1.032 1.547,2.254 1.547,3.666 0,1.413 -0.517,2.635 -1.549,3.667 z"
   id="path5"
   inkscape:connector-curvature="0" />
	<path
   d="m 174.238,11.977 c -1.032,-1.032 -2.254,-1.548 -3.666,-1.548 H 45.429 c -1.412,0 -2.634,0.516 -3.666,1.548 -1.032,1.032 -1.548,2.254 -1.548,3.666 V 36.5 c 0,1.412 0.516,2.634 1.548,3.666 1.032,1.032 2.254,1.548 3.666,1.548 H 170.57 c 1.412,0 2.635,-0.516 3.668,-1.548 1.031,-1.032 1.547,-2.254 1.547,-3.666 V 15.643 c 0,-1.413 -0.515,-2.634 -1.547,-3.666 z"
   id="path7"
   inkscape:connector-curvature="0" />
</g>
</svg>