<?xml version="1.0" encoding="UTF-8" standalone="no"?>
<!-- Generator: Adobe Illustrator 16.0.4, SVG Export Plug-In . SVG Version: 6.00 Build 0)  -->

<svg
   xmlns:dc="http://purl.org/dc/elements/1.1/"
   xmlns:cc="http://creativecommons.org/ns#"
   xmlns:rdf="http://www.w3.org/1999/02/22-rdf-syntax-ns#"
   xmlns:svg="http://www.w3.org/2000/svg"
   xmlns="http://www.w3.org/2000/svg"
   xmlns:sodipodi="http://sodipodi.sourceforge.net/DTD/sodipodi-0.dtd"
   xmlns:inkscape="http://www.inkscape.org/namespaces/inkscape"
   version="1.1"
   id="Capa_1"
   x="0px"
   y="0px"
   width="150"
   height="130"
   viewBox="0 0 150 130"
   enable-background="new 0 0 216 146"
   xml:space="preserve"
   inkscape:version="0.48.3.1 r9886"
   sodipodi:docname="icon-anchor.svg"><metadata
   id="metadata9"><rdf:RDF><cc:Work
       rdf:about=""><dc:format>image/svg+xml</dc:format><dc:type
         rdf:resource="http://purl.org/dc/dcmitype/StillImage" /></cc:Work></rdf:RDF></metadata><defs
   id="defs7" /><sodipodi:namedview
   pagecolor="#ffffff"
   bordercolor="#666666"
   borderopacity="1"
   objecttolerance="10"
   gridtolerance="10"
   guidetolerance="10"
   inkscape:pageopacity="0"
   inkscape:pageshadow="2"
   inkscape:window-width="640"
   inkscape:window-height="480"
   id="namedview5"
   showgrid="false"
   inkscape:zoom="1.4305556"
   inkscape:cx="108"
   inkscape:cy="73"
   inkscape:window-x="65"
   inkscape:window-y="24"
   inkscape:window-maximized="0"
   inkscape:current-layer="Capa_1" />
<path
   d="m 125.95961,80.457248 c -0.34314,-0.354346 -0.78261,-0.531157 -1.317,-0.531157 h -20.1657 c -0.83956,0 -1.41263,0.393476 -1.7185,1.181153 -0.30587,0.748547 -0.17157,1.436949 0.40009,2.06738 l 5.72858,5.902868 c -2.55877,3.58186 -6.17719,6.60214 -10.855257,9.06299 -4.678071,2.460128 -9.86241,4.083308 -15.553723,4.870998 V 64.812404 h 10.999407 c 0.992851,0 1.852806,-0.374636 2.579162,-1.121734 0.72495,-0.747097 1.087776,-1.633324 1.087776,-2.656507 v -7.557206 c 0,-1.023183 -0.362826,-1.908686 -1.087776,-2.656508 -0.726356,-0.747822 -1.586311,-1.121733 -2.579162,-1.121733 H 82.4781 v -9.623137 c 2.214929,-1.338399 3.991091,-3.158679 5.327783,-5.46084 1.336692,-2.302887 2.006093,-4.831134 2.006093,-7.586916 0,-4.171717 -1.432321,-7.734017 -4.296962,-10.685451 -2.863938,-2.952158 -6.31993,-4.428237 -10.36868,-4.428237 -4.048749,0 -7.505444,1.476079 -10.370086,4.428237 -2.863938,2.951434 -4.296259,6.513734 -4.296259,10.685451 0,2.755782 0.668698,5.284029 2.00539,7.586916 1.336692,2.302161 3.112854,4.122441 5.327783,5.46084 v 9.623137 H 56.813755 c -0.993554,0 -1.852806,0.373911 -2.578459,1.121733 -0.725652,0.747822 -1.088479,1.633325 -1.088479,2.656508 v 7.557206 c 0,1.023183 0.362827,1.90941 1.088479,2.656507 0.726356,0.747823 1.585608,1.121734 2.578459,1.121734 h 10.999407 v 38.198356 c -5.690609,-0.78769 -10.875652,-2.41087 -15.553723,-4.870998 -4.67807,-2.46086 -8.297194,-5.48113 -10.855964,-9.062995 l 5.72858,-5.902867 c 0.572366,-0.630432 0.706668,-1.318834 0.400796,-2.06738 -0.305168,-0.787677 -0.878236,-1.181154 -1.718503,-1.181154 H 25.648651 c -0.535099,0 -0.974569,0.176811 -1.317707,0.531157 -0.343139,0.354346 -0.515411,0.807242 -0.515411,1.358688 v 20.781769 c 0,0.8645 0.381812,1.4558 1.145435,1.77029 0.305871,0.0783 0.535099,0.11739 0.687683,0.11739 0.535098,0 0.973865,-0.17681 1.317707,-0.52971 l 5.327782,-5.490558 c 4.544472,5.627518 10.626737,10.085468 18.246093,13.371678 7.619355,3.28622 15.82092,4.93041 24.605398,4.93041 8.783775,0 16.98534,-1.64419 24.604695,-4.93041 7.619354,-3.28621 13.701624,-7.74344 18.246094,-13.371678 l 5.32848,5.490558 c 0.38181,0.3529 0.81988,0.52971 1.31701,0.52971 0.15258,0 0.38181,-0.0391 0.68838,-0.11739 0.76363,-0.31449 1.14544,-0.90579 1.14544,-1.77029 V 81.815211 c 0,-0.551446 -0.17228,-1.004342 -0.51612,-1.357963 z M 77.723386,29.684331 c -0.724949,0.747822 -1.584201,1.122457 -2.577755,1.122457 -0.993554,0 -1.852806,-0.374635 -2.578458,-1.122457 -0.725653,-0.747098 -1.08848,-1.633325 -1.08848,-2.656508 0,-1.023183 0.362827,-1.908685 1.08848,-2.656508 0.726356,-0.747822 1.585607,-1.121733 2.578458,-1.121733 0.992851,0 1.852806,0.373911 2.577755,1.121733 0.725653,0.747823 1.089183,1.633325 1.089183,2.656508 0,1.023183 -0.36353,1.90941 -1.089183,2.656508 z"
   id="path3"
   inkscape:connector-curvature="0" />
</svg>