<?xml version="1.0" encoding="UTF-8" standalone="no"?>
<!-- Generator: Adobe Illustrator 16.0.4, SVG Export Plug-In . SVG Version: 6.00 Build 0)  -->

<svg
   xmlns:dc="http://purl.org/dc/elements/1.1/"
   xmlns:cc="http://creativecommons.org/ns#"
   xmlns:rdf="http://www.w3.org/1999/02/22-rdf-syntax-ns#"
   xmlns:svg="http://www.w3.org/2000/svg"
   xmlns="http://www.w3.org/2000/svg"
   xmlns:sodipodi="http://sodipodi.sourceforge.net/DTD/sodipodi-0.dtd"
   xmlns:inkscape="http://www.inkscape.org/namespaces/inkscape"
   version="1.1"
   id="Capa_1"
   x="0px"
   y="0px"
   width="150"
   height="130"
   viewBox="0 0 150 130"
   enable-background="new 0 0 216 146"
   xml:space="preserve"
   inkscape:version="0.48.3.1 r9886"
   sodipodi:docname="icon-exchange.svg"><metadata
   id="metadata13"><rdf:RDF><cc:Work
       rdf:about=""><dc:format>image/svg+xml</dc:format><dc:type
         rdf:resource="http://purl.org/dc/dcmitype/StillImage" /></cc:Work></rdf:RDF></metadata><defs
   id="defs11" /><sodipodi:namedview
   pagecolor="#ffffff"
   bordercolor="#666666"
   borderopacity="1"
   objecttolerance="10"
   gridtolerance="10"
   guidetolerance="10"
   inkscape:pageopacity="0"
   inkscape:pageshadow="2"
   inkscape:window-width="640"
   inkscape:window-height="480"
   id="namedview9"
   showgrid="false"
   inkscape:zoom="1.4305556"
   inkscape:cx="108"
   inkscape:cy="73"
   inkscape:window-x="65"
   inkscape:window-y="24"
   inkscape:window-maximized="0"
   inkscape:current-layer="Capa_1" />
<g
   id="g3"
   transform="matrix(0.77018063,0,0,0.77018011,-8.033992,7.767029)">
	<path
   d="M 37.607,57.357 H 149.716 V 73 c 0,0.706 0.257,1.316 0.773,1.833 0.516,0.517 1.127,0.774 1.833,0.774 0.761,0 1.386,-0.244 1.873,-0.733 l 26.072,-26.071 c 0.488,-0.489 0.732,-1.114 0.732,-1.874 0,-0.761 -0.244,-1.386 -0.734,-1.874 l -25.988,-25.99 c -0.652,-0.544 -1.305,-0.815 -1.957,-0.815 -0.76,0 -1.385,0.244 -1.873,0.733 -0.488,0.489 -0.732,1.113 -0.732,1.874 V 36.5 H 37.607 c -0.706,0 -1.317,0.258 -1.833,0.774 C 35.258,37.79 35,38.401 35,39.107 V 54.75 c 0,0.706 0.258,1.317 0.774,1.833 0.516,0.516 1.127,0.774 1.833,0.774 z"
   id="path5"
   inkscape:connector-curvature="0" />
	<path
   d="M 178.393,88.644 H 66.285 V 73.001 c 0,-0.706 -0.258,-1.317 -0.774,-1.833 -0.516,-0.516 -1.127,-0.774 -1.833,-0.774 -0.761,0 -1.385,0.244 -1.874,0.733 L 35.733,97.197 C 35.245,97.687 35,98.311 35,99.072 c 0,0.705 0.244,1.304 0.733,1.791 l 25.99,26.072 c 0.652,0.543 1.304,0.814 1.956,0.814 0.706,0 1.317,-0.258 1.833,-0.773 0.516,-0.517 0.774,-1.127 0.774,-1.834 V 109.5 h 112.106 c 0.707,0 1.317,-0.257 1.834,-0.773 0.516,-0.517 0.773,-1.127 0.773,-1.834 V 91.25 c 0,-0.706 -0.258,-1.316 -0.773,-1.832 -0.517,-0.516 -1.126,-0.774 -1.833,-0.774 z"
   id="path7"
   inkscape:connector-curvature="0" />
</g>
</svg>