<?xml version="1.0" encoding="UTF-8" standalone="no"?>
<!-- Generator: Adobe Illustrator 16.0.4, SVG Export Plug-In . SVG Version: 6.00 Build 0)  -->

<svg
   xmlns:dc="http://purl.org/dc/elements/1.1/"
   xmlns:cc="http://creativecommons.org/ns#"
   xmlns:rdf="http://www.w3.org/1999/02/22-rdf-syntax-ns#"
   xmlns:svg="http://www.w3.org/2000/svg"
   xmlns="http://www.w3.org/2000/svg"
   xmlns:sodipodi="http://sodipodi.sourceforge.net/DTD/sodipodi-0.dtd"
   xmlns:inkscape="http://www.inkscape.org/namespaces/inkscape"
   version="1.1"
   id="Capa_1"
   x="0px"
   y="0px"
   width="150"
   height="130"
   viewBox="0 0 150 130"
   enable-background="new 0 0 216 146"
   xml:space="preserve"
   inkscape:version="0.48.3.1 r9886"
   sodipodi:docname="icon-instagram.svg"><metadata
   id="metadata9"><rdf:RDF><cc:Work
       rdf:about=""><dc:format>image/svg+xml</dc:format><dc:type
         rdf:resource="http://purl.org/dc/dcmitype/StillImage" /></cc:Work></rdf:RDF></metadata><defs
   id="defs7" /><sodipodi:namedview
   pagecolor="#ffffff"
   bordercolor="#666666"
   borderopacity="1"
   objecttolerance="10"
   gridtolerance="10"
   guidetolerance="10"
   inkscape:pageopacity="0"
   inkscape:pageshadow="2"
   inkscape:window-width="640"
   inkscape:window-height="480"
   id="namedview5"
   showgrid="false"
   inkscape:zoom="1.4305556"
   inkscape:cx="108"
   inkscape:cy="73"
   inkscape:window-x="65"
   inkscape:window-y="24"
   inkscape:window-maximized="0"
   inkscape:current-layer="Capa_1" />
<path
   d="m 122.16364,19.254717 c -2.44617,-2.570167 -5.37848,-3.854843 -8.79381,-3.854843 H 41.115938 c -3.416884,0 -6.347638,1.285492 -8.794593,3.854843 -2.446955,2.569352 -3.670044,5.648496 -3.670044,9.236616 v 75.891307 c 0,3.58812 1.223089,6.66726 3.670044,9.23661 2.446955,2.57017 5.378486,3.85566 8.794593,3.85566 h 72.253112 c 3.41533,0 6.34764,-1.28549 8.79382,-3.85566 2.44695,-2.56935 3.66926,-5.64849 3.66926,-9.23661 V 28.491333 c 0,-3.588936 -1.22231,-6.666448 -3.66849,-9.236616 z M 63.54545,52.182386 c 3.816815,-3.87605 8.403981,-5.814891 13.760723,-5.814891 5.398677,0 10.006808,1.938841 13.824398,5.814891 3.81682,3.876866 5.72561,8.562058 5.72561,14.055577 0,5.492703 -1.90879,10.178711 -5.72561,14.053946 -3.81759,3.876866 -8.424945,5.815707 -13.824398,5.815707 -5.356742,0 -9.943132,-1.939657 -13.760723,-5.815707 -3.817591,-3.876051 -5.726386,-8.561243 -5.726386,-14.053946 0,-5.493519 1.908795,-10.178711 5.726386,-14.055577 z m 51.27966,49.476734 c 0,1.15091 -0.38052,2.11421 -1.13922,2.88991 -0.76026,0.7757 -1.66651,1.16314 -2.72186,1.16314 H 43.3307 c -1.096509,0 -2.014409,-0.38744 -2.752145,-1.16314 -0.738513,-0.77407 -1.107381,-1.739 -1.107381,-2.88991 V 58.595161 h 8.920397 c -0.843349,2.791214 -1.265024,5.693357 -1.265024,8.705616 0,8.507409 2.952498,15.761953 8.857495,21.765264 5.905773,6.002494 13.012891,9.004962 21.322131,9.004962 5.483322,0 10.544968,-1.374396 15.185718,-4.120747 4.63997,-2.747983 8.307689,-6.47966 11.008579,-11.198295 2.70011,-4.718635 4.04978,-9.869573 4.04978,-15.451184 0,-3.012259 -0.42322,-5.913587 -1.26657,-8.705616 h 8.54221 v 43.063959 z m 0,-59.345491 c 0,1.284676 -0.42167,2.370329 -1.26658,3.256143 -0.84335,0.88663 -1.87618,1.329538 -3.10004,1.329538 H 99.449911 c -1.22231,0 -2.2567,-0.442908 -3.10005,-1.329538 -0.84335,-0.885814 -1.26502,-1.971467 -1.26502,-3.256143 V 31.34943 c 0,-1.240629 0.42167,-2.314863 1.26502,-3.223516 0.84335,-0.907838 1.87774,-1.362165 3.10005,-1.362165 h 11.008579 c 1.22386,0 2.25669,0.454327 3.10004,1.362165 0.84491,0.908653 1.26658,1.982887 1.26658,3.223516 v 10.964199 z"
   id="path3"
   inkscape:connector-curvature="0" />
</svg>