<?xml version="1.0" encoding="UTF-8" standalone="no"?>
<!-- Generator: Adobe Illustrator 16.0.4, SVG Export Plug-In . SVG Version: 6.00 Build 0)  -->

<svg
   xmlns:dc="http://purl.org/dc/elements/1.1/"
   xmlns:cc="http://creativecommons.org/ns#"
   xmlns:rdf="http://www.w3.org/1999/02/22-rdf-syntax-ns#"
   xmlns:svg="http://www.w3.org/2000/svg"
   xmlns="http://www.w3.org/2000/svg"
   xmlns:sodipodi="http://sodipodi.sourceforge.net/DTD/sodipodi-0.dtd"
   xmlns:inkscape="http://www.inkscape.org/namespaces/inkscape"
   version="1.1"
   id="Capa_1"
   x="0px"
   y="0px"
   width="150"
   height="130"
   viewBox="0 0 150 130"
   enable-background="new 0 0 216 146"
   xml:space="preserve"
   inkscape:version="0.48.3.1 r9886"
   sodipodi:docname="icon-legal.svg"><metadata
   id="metadata9"><rdf:RDF><cc:Work
       rdf:about=""><dc:format>image/svg+xml</dc:format><dc:type
         rdf:resource="http://purl.org/dc/dcmitype/StillImage" /></cc:Work></rdf:RDF></metadata><defs
   id="defs7" /><sodipodi:namedview
   pagecolor="#ffffff"
   bordercolor="#666666"
   borderopacity="1"
   objecttolerance="10"
   gridtolerance="10"
   guidetolerance="10"
   inkscape:pageopacity="0"
   inkscape:pageshadow="2"
   inkscape:window-width="640"
   inkscape:window-height="480"
   id="namedview5"
   showgrid="false"
   inkscape:zoom="1.4305556"
   inkscape:cx="108"
   inkscape:cy="73"
   inkscape:window-x="65"
   inkscape:window-y="24"
   inkscape:window-maximized="0"
   inkscape:current-layer="Capa_1" />
<path
   d="M 127.95156,96.139428 105.12054,75.213561 c -1.63432,-1.422181 -3.54346,-2.133271 -5.723583,-2.133271 -2.22258,0 -4.23517,0.826421 -6.037014,2.479264 l -16.100758,-14.75742 7.926088,-7.263733 c 0.586717,-0.538447 0.880848,-1.191518 0.880848,-1.960628 0,-0.768402 -0.294131,-1.421473 -0.880848,-1.95992 0.0826,0.07712 0.335046,0.316984 0.75424,0.720996 0.419194,0.404012 0.691709,0.643873 0.819088,0.720996 0.125836,0.07642 0.366699,0.268162 0.722589,0.575948 0.358206,0.307077 0.639213,0.499532 0.849968,0.575947 0.210755,0.07642 0.494078,0.191747 0.851512,0.345993 0.355891,0.153539 0.700973,0.258964 1.037564,0.316984 0.335046,0.05731 0.713324,0.08632 1.132518,0.08632 1.591857,0 3.018506,-0.53774 4.276085,-1.613927 0.12661,-0.115331 0.50335,-0.432314 1.13252,-0.951658 0.62918,-0.519343 1.05841,-0.883733 1.28924,-1.095291 0.23082,-0.211558 0.57745,-0.566749 1.0391,-1.066281 0.46089,-0.499532 0.78667,-0.922649 0.975043,-1.268642 0.18759,-0.345285 0.37596,-0.768402 0.56587,-1.267934 0.18837,-0.499532 0.28178,-0.999064 0.28178,-1.498596 0,-1.537511 -0.58672,-2.84436 -1.760933,-3.920547 L 73.489526,16.759121 c -1.174206,-1.076188 -2.600084,-1.613928 -4.27686,-1.613928 -0.545029,0 -1.090059,0.08632 -1.63586,0.258965 -0.54503,0.172642 -1.005912,0.345993 -1.383418,0.518636 -0.377506,0.172642 -0.838388,0.470522 -1.383418,0.893638 -0.545029,0.423117 -0.932571,0.7401 -1.163398,0.951658 -0.230827,0.211559 -0.629177,0.605665 -1.195051,1.181613 -0.566645,0.576655 -0.9125,0.922648 -1.038335,1.037979 -1.173435,1.152603 -1.760924,2.459452 -1.760924,3.91984 0,0.384201 0.03165,0.730195 0.09496,1.037272 0.0633,0.307786 0.178331,0.624769 0.345854,0.951658 0.167523,0.326889 0.293359,0.586561 0.377506,0.778308 0.08338,0.191747 0.292587,0.452126 0.628405,0.779015 0.335819,0.326182 0.54503,0.547646 0.629178,0.662977 0.08338,0.116038 0.345854,0.365097 0.785892,0.750005 0.44081,0.384201 0.703289,0.615571 0.786664,0.691986 -0.586717,-0.538447 -1.300042,-0.807317 -2.13843,-0.807317 -0.838388,0 -1.551713,0.26887 -2.13843,0.807317 L 37.132354,49.619976 c -0.58749,0.538447 -0.880848,1.191518 -0.880848,1.95992 0,0.769109 0.293358,1.42218 0.880848,1.960628 -0.08415,-0.07712 -0.335819,-0.317691 -0.755013,-0.720996 -0.419194,-0.404013 -0.691709,-0.643873 -0.817544,-0.720996 -0.125836,-0.07642 -0.366699,-0.268163 -0.723361,-0.575948 -0.356662,-0.307078 -0.639985,-0.499532 -0.849196,-0.575948 -0.209211,-0.07641 -0.492534,-0.191746 -0.849196,-0.345993 -0.35589,-0.153538 -0.701745,-0.258964 -1.037563,-0.316983 -0.335047,-0.05731 -0.712553,-0.08632 -1.131747,-0.08632 -1.593401,0 -3.02005,0.537739 -4.277632,1.613927 -0.125064,0.115331 -0.503342,0.433022 -1.131747,0.951657 -0.629177,0.519344 -1.058407,0.883733 -1.289234,1.095292 -0.230827,0.211558 -0.575909,0.566749 -1.037563,1.066281 -0.460882,0.499532 -0.786665,0.922648 -0.975032,1.268641 -0.188367,0.345286 -0.376734,0.768402 -0.565873,1.267934 -0.188367,0.499532 -0.283323,0.999064 -0.283323,1.498596 0,1.537512 0.586717,2.843653 1.760924,3.91984 l 25.661934,23.519041 c 1.174206,1.07619 2.600084,1.61393 4.27686,1.61393 0.54503,0 1.090059,-0.0856 1.635861,-0.25826 0.545029,-0.17264 1.005911,-0.34599 1.383417,-0.51863 0.377507,-0.17265 0.838388,-0.47053 1.383418,-0.89364 0.545029,-0.42312 0.932572,-0.7401 1.163399,-0.95237 0.230826,-0.211557 0.629177,-0.604956 1.19505,-1.181612 0.566645,-0.575947 0.9125,-0.922648 1.038335,-1.037979 1.173435,-1.152603 1.760924,-2.460159 1.760924,-3.91984 0,-0.384201 -0.03165,-0.730194 -0.09495,-1.037979 -0.0633,-0.307786 -0.178332,-0.624062 -0.345855,-0.951658 -0.167523,-0.326182 -0.293358,-0.585854 -0.377506,-0.778308 -0.08338,-0.191747 -0.292587,-0.452126 -0.628405,-0.779015 -0.335819,-0.326182 -0.54503,-0.547646 -0.629177,-0.662977 -0.08338,-0.116038 -0.345855,-0.365804 -0.785893,-0.750713 -0.44081,-0.384201 -0.703288,-0.61557 -0.786664,-0.692694 0.586717,0.539155 1.300042,0.808025 2.13843,0.808025 0.838388,0 1.551713,-0.26887 2.13843,-0.808025 l 7.925316,-7.263732 16.10153,14.75742 c -1.803384,1.652842 -2.705076,3.496016 -2.705076,5.533057 0,2.07596 0.797473,3.80451 2.390101,5.18919 L 109.8413,112.79521 c 1.55171,1.42147 3.4377,2.13327 5.66027,2.13327 2.18012,0 4.08773,-0.7118 5.72359,-2.13327 l 6.72949,-6.22646 c 1.55171,-1.42218 2.32834,-3.15073 2.32834,-5.18778 0,-1.994591 -0.77663,-3.743661 -2.33143,-5.241541 z"
   id="path3"
   inkscape:connector-curvature="0" />
</svg>