<?xml version="1.0" encoding="UTF-8" standalone="no"?>
<!-- Generator: Adobe Illustrator 16.0.4, SVG Export Plug-In . SVG Version: 6.00 Build 0)  -->

<svg
   xmlns:dc="http://purl.org/dc/elements/1.1/"
   xmlns:cc="http://creativecommons.org/ns#"
   xmlns:rdf="http://www.w3.org/1999/02/22-rdf-syntax-ns#"
   xmlns:svg="http://www.w3.org/2000/svg"
   xmlns="http://www.w3.org/2000/svg"
   xmlns:sodipodi="http://sodipodi.sourceforge.net/DTD/sodipodi-0.dtd"
   xmlns:inkscape="http://www.inkscape.org/namespaces/inkscape"
   version="1.1"
   id="Capa_1"
   x="0px"
   y="0px"
   width="150"
   height="130"
   viewBox="0 0 150 130"
   enable-background="new 0 0 216 146"
   xml:space="preserve"
   inkscape:version="0.48.3.1 r9886"
   sodipodi:docname="icon-rss.svg"><metadata
   id="metadata15"><rdf:RDF><cc:Work
       rdf:about=""><dc:format>image/svg+xml</dc:format><dc:type
         rdf:resource="http://purl.org/dc/dcmitype/StillImage" /></cc:Work></rdf:RDF></metadata><defs
   id="defs13" /><sodipodi:namedview
   pagecolor="#ffffff"
   bordercolor="#666666"
   borderopacity="1"
   objecttolerance="10"
   gridtolerance="10"
   guidetolerance="10"
   inkscape:pageopacity="0"
   inkscape:pageshadow="2"
   inkscape:window-width="640"
   inkscape:window-height="480"
   id="namedview11"
   showgrid="false"
   inkscape:zoom="1.4305556"
   inkscape:cx="108"
   inkscape:cy="73"
   inkscape:window-x="65"
   inkscape:window-y="24"
   inkscape:window-maximized="0"
   inkscape:current-layer="Capa_1" />
<g
   id="g3"
   transform="matrix(0.77456217,0,0,0.85375577,-12.35172,4.4623092)">
	<path
   d="m 66.279,99.072 c -4.346,0 -8.039,1.521 -11.081,4.562 -3.041,3.042 -4.562,6.735 -4.562,11.08 0,4.347 1.52,8.039 4.562,11.081 3.042,3.041 6.736,4.562 11.081,4.562 4.345,0 8.038,-1.521 11.08,-4.562 3.041,-3.042 4.562,-6.734 4.562,-11.081 0,-4.345 -1.521,-8.038 -4.562,-11.08 -3.041,-3.041 -6.734,-4.562 -11.08,-4.562 z"
   id="path5"
   inkscape:connector-curvature="0" />
	<path
   d="M 102.29,78.703 C 96.152,72.511 89.118,67.582 81.188,63.916 73.258,60.249 64.947,58.063 56.257,57.357 H 55.85 c -1.412,0 -2.58,0.462 -3.503,1.385 -1.141,0.977 -1.711,2.254 -1.711,3.829 V 73.57 c 0,1.357 0.448,2.525 1.344,3.503 0.896,0.979 2.023,1.522 3.381,1.63 12.438,1.195 23.07,6.206 31.896,15.032 8.826,8.825 13.837,19.458 15.032,31.896 0.109,1.358 0.652,2.485 1.63,3.381 0.978,0.897 2.145,1.346 3.503,1.346 h 10.999 c 1.575,0 2.851,-0.57 3.829,-1.711 1.032,-1.088 1.494,-2.391 1.387,-3.912 -0.707,-8.689 -2.894,-17 -6.559,-24.93 -3.667,-7.93 -8.596,-14.964 -14.788,-21.102 z"
   id="path7"
   inkscape:connector-curvature="0" />
	<path
   d="M 155.573,84.039 C 149.761,71.03 141.777,59.475 131.62,49.372 121.517,39.215 109.962,31.231 96.953,25.419 83.945,19.608 70.325,16.348 56.094,15.642 H 55.85 c -1.412,0 -2.607,0.489 -3.585,1.467 -1.086,0.977 -1.629,2.227 -1.629,3.748 v 11.65 c 0,1.358 0.476,2.539 1.426,3.544 0.95,1.005 2.104,1.534 3.462,1.589 11.678,0.707 22.772,3.478 33.282,8.312 10.51,4.834 19.635,11.121 27.375,18.86 7.739,7.74 14.026,16.865 18.86,27.375 4.834,10.512 7.578,21.604 8.229,33.282 0.055,1.358 0.584,2.513 1.588,3.463 1.006,0.95 2.215,1.427 3.627,1.427 h 11.65 c 1.521,0 2.768,-0.543 3.747,-1.631 1.087,-1.086 1.574,-2.361 1.468,-3.828 -0.705,-14.232 -3.965,-27.852 -9.777,-40.861 z"
   id="path9"
   inkscape:connector-curvature="0" />
</g>
</svg>