<?xml version="1.0" encoding="UTF-8" standalone="no"?>
<!-- Generator: Adobe Illustrator 16.0.4, SVG Export Plug-In . SVG Version: 6.00 Build 0)  -->

<svg
   xmlns:dc="http://purl.org/dc/elements/1.1/"
   xmlns:cc="http://creativecommons.org/ns#"
   xmlns:rdf="http://www.w3.org/1999/02/22-rdf-syntax-ns#"
   xmlns:svg="http://www.w3.org/2000/svg"
   xmlns="http://www.w3.org/2000/svg"
   xmlns:sodipodi="http://sodipodi.sourceforge.net/DTD/sodipodi-0.dtd"
   xmlns:inkscape="http://www.inkscape.org/namespaces/inkscape"
   version="1.1"
   id="Capa_1"
   x="0px"
   y="0px"
   width="150"
   height="130"
   viewBox="0 0 150 130"
   enable-background="new 0 0 216 146"
   xml:space="preserve"
   inkscape:version="0.48.3.1 r9886"
   sodipodi:docname="icon-heart-empty.svg"><metadata
   id="metadata9"><rdf:RDF><cc:Work
       rdf:about=""><dc:format>image/svg+xml</dc:format><dc:type
         rdf:resource="http://purl.org/dc/dcmitype/StillImage" /></cc:Work></rdf:RDF></metadata><defs
   id="defs7" /><sodipodi:namedview
   pagecolor="#ffffff"
   bordercolor="#666666"
   borderopacity="1"
   objecttolerance="10"
   gridtolerance="10"
   guidetolerance="10"
   inkscape:pageopacity="0"
   inkscape:pageshadow="2"
   inkscape:window-width="640"
   inkscape:window-height="480"
   id="namedview5"
   showgrid="false"
   inkscape:zoom="1.4305556"
   inkscape:cx="108"
   inkscape:cy="73"
   inkscape:window-x="65"
   inkscape:window-y="24"
   inkscape:window-maximized="0"
   inkscape:current-layer="Capa_1" />
<path
   d="m 126.39877,20.767176 c -5.64298,-5.908217 -13.44073,-8.861448 -23.3949,-8.861448 -2.75441,0 -5.565263,0.512233 -8.430929,1.53582 -2.866485,1.024466 -5.532546,2.406792 -7.997363,4.145225 -2.466454,1.738433 -4.586868,3.370736 -6.365333,4.895154 -1.776828,1.524418 -3.465305,3.144441 -5.064614,4.859192 -1.600128,-1.714751 -3.288605,-3.334774 -5.065433,-4.859192 -1.777647,-1.524418 -3.898879,-3.155844 -6.365333,-4.895154 -2.466453,-1.73931 -5.132514,-3.120759 -7.998181,-4.145225 -2.865667,-1.023587 -5.676525,-1.53582 -8.430936,-1.53582 -9.953348,0 -17.751103,2.954108 -23.394087,8.861448 -5.642985,5.90734 -8.464477,14.101305 -8.464477,24.581899 0,3.191804 0.522741,6.480092 1.566587,9.861353 1.043846,3.382138 2.233306,6.2652 3.565928,8.646555 1.33262,2.381354 2.843579,4.703943 4.532056,6.966888 1.688479,2.262945 2.922114,3.823324 3.699272,4.680262 0.777158,0.857814 1.388249,1.477054 1.832457,1.858597 l 41.589398,43.01963 c 0.800064,0.85781 1.777647,1.28672 2.932749,1.28672 1.155101,0 2.132684,-0.42891 2.932748,-1.28672 L 119.60151,77.504822 c 10.17505,-10.908623 15.26256,-21.627791 15.26256,-32.156624 0,-10.481471 -2.82148,-18.67456 -8.4653,-24.581022 z M 113.80227,70.787909 75.145631,110.73415 36.422718,70.715987 C 28.113672,61.80893 23.95956,53.351831 23.95956,45.348198 c 0,-3.858409 0.477747,-7.265107 1.432423,-10.218338 0.955496,-2.953231 2.177679,-5.300378 3.665732,-7.038812 1.48887,-1.73931 3.29924,-3.155843 5.431925,-4.252231 2.133502,-1.095511 4.222011,-1.834038 6.265528,-2.214704 2.043516,-0.380666 4.220376,-0.570999 6.531398,-0.570999 2.310205,0 4.798745,0.606961 7.464806,1.821759 2.665243,1.214798 5.120243,2.739216 7.364184,4.573253 2.243941,1.834915 4.165567,3.549667 5.765693,5.145131 1.599309,1.597218 2.931931,3.061115 3.998682,4.395201 0.799246,1.048146 1.888903,1.572658 3.2657,1.572658 1.377614,0 2.465635,-0.524512 3.265699,-1.572658 1.066751,-1.334086 2.40019,-2.79886 3.999499,-4.395201 1.599309,-1.595464 3.521752,-3.309338 5.764875,-5.145131 2.243941,-1.834037 4.698942,-3.358455 7.365821,-4.573253 2.665241,-1.214798 5.154595,-1.821759 7.464805,-1.821759 2.3102,0 4.48624,0.190333 6.53058,0.570999 2.04433,0.380666 4.13284,1.119193 6.26553,2.214704 2.13268,1.096388 3.94305,2.513798 5.43192,4.252231 1.48805,1.738434 2.71023,4.085581 3.66573,7.038812 0.95386,2.953231 1.4316,6.359929 1.4316,10.218338 0,8.003633 -4.17538,16.484414 -12.52942,25.439711 z"
   id="path3"
   inkscape:connector-curvature="0" />
</svg>