<?xml version="1.0" encoding="UTF-8" standalone="no"?>
<!-- Generator: Adobe Illustrator 16.0.4, SVG Export Plug-In . SVG Version: 6.00 Build 0)  -->

<svg
   xmlns:dc="http://purl.org/dc/elements/1.1/"
   xmlns:cc="http://creativecommons.org/ns#"
   xmlns:rdf="http://www.w3.org/1999/02/22-rdf-syntax-ns#"
   xmlns:svg="http://www.w3.org/2000/svg"
   xmlns="http://www.w3.org/2000/svg"
   xmlns:sodipodi="http://sodipodi.sourceforge.net/DTD/sodipodi-0.dtd"
   xmlns:inkscape="http://www.inkscape.org/namespaces/inkscape"
   version="1.1"
   id="Capa_1"
   x="0px"
   y="0px"
   width="150"
   height="130"
   viewBox="0 0 150 130"
   enable-background="new 0 0 216 146"
   xml:space="preserve"
   inkscape:version="0.48.3.1 r9886"
   sodipodi:docname="icon-bitcoin.svg"><metadata
   id="metadata9"><rdf:RDF><cc:Work
       rdf:about=""><dc:format>image/svg+xml</dc:format><dc:type
         rdf:resource="http://purl.org/dc/dcmitype/StillImage" /></cc:Work></rdf:RDF></metadata><defs
   id="defs7" /><sodipodi:namedview
   pagecolor="#ffffff"
   bordercolor="#666666"
   borderopacity="1"
   objecttolerance="10"
   gridtolerance="10"
   guidetolerance="10"
   inkscape:pageopacity="0"
   inkscape:pageshadow="2"
   inkscape:window-width="640"
   inkscape:window-height="480"
   id="namedview5"
   showgrid="false"
   inkscape:zoom="1.4305556"
   inkscape:cx="108"
   inkscape:cy="73"
   inkscape:window-x="65"
   inkscape:window-y="24"
   inkscape:window-maximized="0"
   inkscape:current-layer="Capa_1" />
<path
   d="m 112.03293,66.951579 c -2.45319,-3.610968 -6.15478,-6.090682 -11.104,-7.439143 6.30276,-3.65973 9.07292,-9.871871 8.31204,-18.636426 -0.25311,-3.178325 -1.02567,-5.932874 -2.31613,-8.268079 -1.29123,-2.335205 -3.03494,-4.212944 -5.23581,-5.633217 -2.199302,-1.422046 -4.590967,-2.504538 -7.169543,-3.251024 -2.580135,-0.746485 -5.541876,-1.288175 -8.883668,-1.625069 V 3.8966118 h -9.77071 V 21.593281 c -1.691534,0 -4.271668,0.04787 -7.740403,0.14451 V 3.8966118 H 58.353217 V 22.098621 c -1.396372,0.04876 -3.447708,0.0727 -6.154785,0.0727 l -13.451276,-0.0727 v 11.846245 h 7.042606 c 3.214849,0 5.097186,1.637481 5.647013,4.911555 v 20.730486 c 0.423662,0 0.761657,0.02482 1.015543,0.0727 h -1.015543 v 29.0358 c -0.337996,2.455778 -1.564591,3.683667 -3.679787,3.683667 h -7.042606 l -1.967226,13.218636 h 12.690398 c 0.803712,0 1.966447,0.0124 3.489762,0.0346 1.522536,0.0239 2.664243,0.0363 3.425901,0.0363 v 18.41833 h 9.773046 v -18.20201 c 1.776423,0.0488 4.356557,0.0727 7.740403,0.0727 v 18.12931 h 9.770711 v -18.41833 c 3.469513,-0.19238 6.546516,-0.55233 9.231787,-1.08338 2.686047,-0.53105 5.256056,-1.36087 7.709246,-2.49301 2.45241,-1.13126 4.50375,-2.540001 6.15401,-4.226243 1.64948,-1.683581 3.01314,-3.827289 4.09332,-6.428462 1.07707,-2.601174 1.76552,-5.610166 2.06068,-9.030524 0.55216,-6.689998 -0.4003,-11.843585 -2.85349,-15.45544 z M 68.314731,34.737453 c 0.29594,0 1.131583,-0.01241 2.506149,-0.03635 1.375345,-0.02482 2.517052,-0.04876 3.42668,-0.0727 0.909628,-0.02394 2.136223,0.03635 3.680566,0.180859 1.544342,0.144509 2.844923,0.33778 3.902521,0.578038 1.056819,0.240259 2.221111,0.637439 3.488983,1.19154 1.269429,0.553215 2.284194,1.227889 3.045072,2.022248 0.761658,0.79436 1.406497,1.805928 1.934517,3.033817 0.529578,1.227888 0.794367,2.636636 0.794367,4.225355 0,1.348461 -0.190025,2.57635 -0.570854,3.684553 -0.379271,1.107316 -0.951683,2.03466 -1.712561,2.781146 -0.760879,0.746485 -1.544343,1.397222 -2.348055,1.950437 -0.803712,0.553215 -1.830158,0.999155 -3.077003,1.336049 -1.247623,0.336894 -2.337151,0.601976 -3.267027,0.79436 -0.930656,0.192384 -2.09339,0.325368 -3.489762,0.39718 -1.396372,0.07181 -2.45397,0.120572 -3.172794,0.144509 -0.719603,0.02394 -1.702437,0.02394 -2.950839,0 -1.248402,-0.02394 -1.97735,-0.03635 -2.189181,-0.03635 V 34.737453 z m 26.682155,49.189134 c -0.403414,1.108203 -0.920531,2.071009 -1.554467,2.890193 -0.635493,0.81741 -1.471136,1.540845 -2.506928,2.164985 -1.036571,0.6268 -2.041211,1.13214 -3.013921,1.517795 -0.97271,0.386541 -2.147126,0.721661 -3.520913,1.011567 -1.376124,0.289019 -2.580913,0.492929 -3.618263,0.614388 -1.035792,0.119686 -2.27329,0.215434 -3.711717,0.288133 -1.437648,0.07093 -2.559107,0.107274 -3.362819,0.107274 -0.803712,0 -1.819256,-0.01241 -3.045851,-0.03635 -1.227375,-0.02217 -2.009281,-0.03458 -2.348055,-0.03458 V 68.034959 c 0.337995,0 1.342636,-0.02305 3.013921,-0.0727 1.671285,-0.04787 3.034948,-0.07093 4.092546,-0.07093 1.057598,0 2.517052,0.07093 4.379141,0.216322 1.860532,0.143623 3.425122,0.359944 4.69533,0.648963 1.268651,0.289019 2.653341,0.734074 4.155629,1.336936 1.501508,0.601089 2.71798,1.335163 3.648635,2.202221 0.931434,0.867944 1.71334,1.974374 2.348054,3.322835 0.635494,1.348461 0.952462,2.889307 0.952462,4.623422 0,1.350235 -0.200928,2.57635 -0.602784,3.684553 z"
   id="path3"
   inkscape:connector-curvature="0" />
</svg>