<?xml version="1.0" encoding="UTF-8" standalone="no"?>
<!-- Generator: Adobe Illustrator 16.0.4, SVG Export Plug-In . SVG Version: 6.00 Build 0)  -->

<svg
   xmlns:dc="http://purl.org/dc/elements/1.1/"
   xmlns:cc="http://creativecommons.org/ns#"
   xmlns:rdf="http://www.w3.org/1999/02/22-rdf-syntax-ns#"
   xmlns:svg="http://www.w3.org/2000/svg"
   xmlns="http://www.w3.org/2000/svg"
   xmlns:sodipodi="http://sodipodi.sourceforge.net/DTD/sodipodi-0.dtd"
   xmlns:inkscape="http://www.inkscape.org/namespaces/inkscape"
   version="1.1"
   id="Capa_1"
   x="0px"
   y="0px"
   width="150"
   height="130"
   viewBox="0 0 150 130"
   enable-background="new 0 0 216 146"
   xml:space="preserve"
   inkscape:version="0.48.3.1 r9886"
   sodipodi:docname="iconbug.svg"><metadata
   id="metadata13"><rdf:RDF><cc:Work
       rdf:about=""><dc:format>image/svg+xml</dc:format><dc:type
         rdf:resource="http://purl.org/dc/dcmitype/StillImage" /></cc:Work></rdf:RDF></metadata><defs
   id="defs11" /><sodipodi:namedview
   pagecolor="#ffffff"
   bordercolor="#666666"
   borderopacity="1"
   objecttolerance="10"
   gridtolerance="10"
   guidetolerance="10"
   inkscape:pageopacity="0"
   inkscape:pageshadow="2"
   inkscape:window-width="640"
   inkscape:window-height="480"
   id="namedview9"
   showgrid="false"
   inkscape:zoom="1.4305556"
   inkscape:cx="108"
   inkscape:cy="73"
   inkscape:window-x="65"
   inkscape:window-y="24"
   inkscape:window-maximized="0"
   inkscape:current-layer="Capa_1" />
<g
   id="g3"
   transform="matrix(0.7211648,0,0,0.75924227,-2.7401667,12.060751)">
	<path
   d="m 171.628,78.458 c -1.03,-1.032 -2.254,-1.549 -3.666,-1.549 h -18.25 V 52.956 l 14.095,-14.095 c 1.032,-1.032 1.549,-2.254 1.549,-3.667 0,-1.412 -0.517,-2.634 -1.549,-3.666 -1.031,-1.032 -2.254,-1.548 -3.666,-1.548 -1.412,0 -2.634,0.516 -3.666,1.548 L 142.38,45.623 H 73.616 L 59.521,31.528 c -1.032,-1.032 -2.254,-1.548 -3.666,-1.548 -1.413,0 -2.635,0.516 -3.667,1.548 -1.032,1.032 -1.548,2.254 -1.548,3.666 0,1.413 0.516,2.635 1.548,3.667 l 14.095,14.095 v 23.953 h -18.25 c -1.412,0 -2.634,0.517 -3.666,1.549 -1.032,1.031 -1.548,2.255 -1.548,3.666 0,1.412 0.516,2.636 1.548,3.666 1.032,1.032 2.254,1.55 3.666,1.55 h 18.25 c 0,8.688 1.576,16.131 4.726,22.322 l -16.457,18.494 c -0.924,1.087 -1.345,2.35 -1.263,3.788 0.081,1.438 0.638,2.647 1.67,3.626 1.032,0.869 2.199,1.304 3.503,1.304 1.521,0 2.824,-0.569 3.911,-1.711 l 14.909,-16.865 1.223,1.142 c 0.76,0.707 1.941,1.588 3.544,2.647 1.603,1.059 3.395,2.118 5.377,3.179 1.983,1.059 4.346,1.955 7.088,2.688 2.744,0.734 5.5,1.101 8.27,1.101 v -73 h 10.429 v 73 c 2.607,0 5.241,-0.353 7.902,-1.06 2.662,-0.705 4.889,-1.493 6.682,-2.362 1.792,-0.87 3.559,-1.86 5.295,-2.974 1.738,-1.113 2.879,-1.887 3.422,-2.322 0.545,-0.436 0.952,-0.788 1.223,-1.059 l 16.133,16.05 c 0.979,1.032 2.199,1.548 3.666,1.548 1.467,0 2.688,-0.516 3.667,-1.548 1.03,-1.032 1.547,-2.255 1.547,-3.667 0,-1.412 -0.517,-2.635 -1.547,-3.666 l -16.947,-17.027 c 3.64,-6.464 5.459,-14.34 5.459,-23.627 h 18.25 c 1.412,0 2.636,-0.517 3.666,-1.549 1.032,-1.031 1.55,-2.254 1.55,-3.666 0,-1.412 -0.519,-2.636 -1.553,-3.668 z"
   id="path5"
   inkscape:connector-curvature="0" />
	<path
   d="M 126.453,16.742 C 121.375,11.664 115.224,9.124 108,9.124 c -7.225,0 -13.375,2.54 -18.454,7.618 -5.078,5.079 -7.617,11.23 -7.617,18.454 h 52.141 c 0,-7.223 -2.538,-13.375 -7.617,-18.454 z"
   id="path7"
   inkscape:connector-curvature="0" />
</g>
</svg>