<?xml version="1.0" encoding="UTF-8" standalone="no"?>
<!-- Generator: Adobe Illustrator 16.0.4, SVG Export Plug-In . SVG Version: 6.00 Build 0)  -->

<svg
   xmlns:dc="http://purl.org/dc/elements/1.1/"
   xmlns:cc="http://creativecommons.org/ns#"
   xmlns:rdf="http://www.w3.org/1999/02/22-rdf-syntax-ns#"
   xmlns:svg="http://www.w3.org/2000/svg"
   xmlns="http://www.w3.org/2000/svg"
   xmlns:sodipodi="http://sodipodi.sourceforge.net/DTD/sodipodi-0.dtd"
   xmlns:inkscape="http://www.inkscape.org/namespaces/inkscape"
   version="1.1"
   id="Capa_1"
   x="0px"
   y="0px"
   width="150"
   height="130"
   viewBox="0 0 150 130"
   enable-background="new 0 0 216 146"
   xml:space="preserve"
   inkscape:version="0.48.3.1 r9886"
   sodipodi:docname="icon-briefcase.svg"><metadata
   id="metadata15"><rdf:RDF><cc:Work
       rdf:about=""><dc:format>image/svg+xml</dc:format><dc:type
         rdf:resource="http://purl.org/dc/dcmitype/StillImage" /></cc:Work></rdf:RDF></metadata><defs
   id="defs13" /><sodipodi:namedview
   pagecolor="#ffffff"
   bordercolor="#666666"
   borderopacity="1"
   objecttolerance="10"
   gridtolerance="10"
   guidetolerance="10"
   inkscape:pageopacity="0"
   inkscape:pageshadow="2"
   inkscape:window-width="640"
   inkscape:window-height="480"
   id="namedview11"
   showgrid="false"
   inkscape:zoom="1.4305556"
   inkscape:cx="108"
   inkscape:cy="73"
   inkscape:window-x="65"
   inkscape:window-y="24"
   inkscape:window-maximized="0"
   inkscape:current-layer="Capa_1" />
<g
   id="g3"
   transform="matrix(0.77497008,0,0,0.79332216,-10.99774,11.320492)">
	<path
   d="m 126.251,96.464 c 0,1.413 -0.517,2.636 -1.548,3.667 -1.032,1.032 -2.255,1.548 -3.667,1.548 H 94.965 c -1.413,0 -2.635,-0.516 -3.667,-1.548 C 90.266,99.1 89.75,97.877 89.75,96.464 V 83.429 H 35 v 39.107 c 0,3.584 1.276,6.653 3.829,9.206 2.553,2.553 5.622,3.829 9.207,3.829 h 119.929 c 3.584,0 6.653,-1.276 9.206,-3.829 2.554,-2.553 3.829,-5.622 3.829,-9.206 V 83.429 h -54.749 v 13.035 z"
   id="path5"
   inkscape:connector-curvature="0" />
	<rect
   x="97.570999"
   y="83.429001"
   width="20.858999"
   height="10.429"
   id="rect7" />
	<path
   d="m 177.171,35.115 c -2.553,-2.553 -5.622,-3.829 -9.206,-3.829 h -28.68 V 18.25 c 0,-2.173 -0.76,-4.019 -2.281,-5.54 -1.52,-1.52 -3.367,-2.281 -5.539,-2.281 H 84.536 c -2.172,0 -4.019,0.761 -5.54,2.281 -1.521,1.52 -2.281,3.367 -2.281,5.54 V 31.286 H 48.036 c -3.585,0 -6.654,1.276 -9.207,3.829 C 36.276,37.668 35,40.736 35,44.321 V 75.607 H 181 V 44.321 c 0,-3.585 -1.275,-6.653 -3.829,-9.206 z M 128.857,31.286 H 87.143 V 20.857 h 41.714 v 10.429 z"
   id="path9"
   inkscape:connector-curvature="0" />
</g>
</svg>