<?xml version="1.0" encoding="UTF-8" standalone="no"?>
<!-- Generator: Adobe Illustrator 16.0.4, SVG Export Plug-In . SVG Version: 6.00 Build 0)  -->

<svg
   xmlns:dc="http://purl.org/dc/elements/1.1/"
   xmlns:cc="http://creativecommons.org/ns#"
   xmlns:rdf="http://www.w3.org/1999/02/22-rdf-syntax-ns#"
   xmlns:svg="http://www.w3.org/2000/svg"
   xmlns="http://www.w3.org/2000/svg"
   xmlns:sodipodi="http://sodipodi.sourceforge.net/DTD/sodipodi-0.dtd"
   xmlns:inkscape="http://www.inkscape.org/namespaces/inkscape"
   version="1.1"
   id="Capa_1"
   x="0px"
   y="0px"
   width="150"
   height="130"
   viewBox="0 0 150 130"
   enable-background="new 0 0 216 146"
   xml:space="preserve"
   inkscape:version="0.48.3.1 r9886"
   sodipodi:docname="icon-inbox.svg"><metadata
   id="metadata9"><rdf:RDF><cc:Work
       rdf:about=""><dc:format>image/svg+xml</dc:format><dc:type
         rdf:resource="http://purl.org/dc/dcmitype/StillImage" /></cc:Work></rdf:RDF></metadata><defs
   id="defs7" /><sodipodi:namedview
   pagecolor="#ffffff"
   bordercolor="#666666"
   borderopacity="1"
   objecttolerance="10"
   gridtolerance="10"
   guidetolerance="10"
   inkscape:pageopacity="0"
   inkscape:pageshadow="2"
   inkscape:window-width="640"
   inkscape:window-height="480"
   id="namedview5"
   showgrid="false"
   inkscape:zoom="1.4305556"
   inkscape:cx="108"
   inkscape:cy="73"
   inkscape:window-x="65"
   inkscape:window-y="24"
   inkscape:window-maximized="0"
   inkscape:current-layer="Capa_1" />
<path
   d="M 128.24051,66.074893 111.23159,25.925158 c -0.47628,-1.21325 -1.34461,-2.230987 -2.60765,-3.054997 -1.26217,-0.824903 -2.51293,-1.236462 -3.75141,-1.236462 H 45.417602 c -1.23848,0 -2.489239,0.411559 -3.751401,1.236462 -1.262162,0.82401 -2.132256,1.841747 -2.608527,3.054997 L 22.049625,66.074893 c -1.191116,2.957688 -1.786674,5.940372 -1.786674,8.946268 v 35.059269 c 0,1.26057 0.452589,2.35151 1.357767,3.27283 0.906055,0.92132 1.977884,1.38198 3.216364,1.38198 H 125.45393 c 1.23848,0 2.31031,-0.46066 3.21549,-1.38198 0.9043,-0.92132 1.35689,-2.01226 1.35689,-3.27283 V 75.021161 c 0,-3.005896 -0.5938,-5.98858 -1.7858,-8.946268 z M 93.367481,72.839275 86.580397,86.805487 H 63.712373 L 56.923538,72.839275 H 34.341451 c 0.04824,-0.09642 0.107008,-0.290144 0.178931,-0.581181 0.07192,-0.290145 0.131566,-0.484765 0.17893,-0.581182 L 49.848765,35.600804 h 50.594365 l 15.14857,36.076108 c 0.0491,0.145519 0.10789,0.340138 0.17806,0.581182 0.0719,0.241935 0.13068,0.435663 0.1798,0.581181 H 93.367481 z"
   id="path3"
   inkscape:connector-curvature="0" />
</svg>