<?xml version="1.0" encoding="UTF-8" standalone="no"?>
<!-- Generator: Adobe Illustrator 16.0.4, SVG Export Plug-In . SVG Version: 6.00 Build 0)  -->

<svg
   xmlns:dc="http://purl.org/dc/elements/1.1/"
   xmlns:cc="http://creativecommons.org/ns#"
   xmlns:rdf="http://www.w3.org/1999/02/22-rdf-syntax-ns#"
   xmlns:svg="http://www.w3.org/2000/svg"
   xmlns="http://www.w3.org/2000/svg"
   xmlns:sodipodi="http://sodipodi.sourceforge.net/DTD/sodipodi-0.dtd"
   xmlns:inkscape="http://www.inkscape.org/namespaces/inkscape"
   version="1.1"
   id="Capa_1"
   x="0px"
   y="0px"
   width="150"
   height="130"
   viewBox="0 0 150 130"
   enable-background="new 0 0 216 146"
   xml:space="preserve"
   inkscape:version="0.48.3.1 r9886"
   sodipodi:docname="icon-star-empty.svg"><metadata
   id="metadata9"><rdf:RDF><cc:Work
       rdf:about=""><dc:format>image/svg+xml</dc:format><dc:type
         rdf:resource="http://purl.org/dc/dcmitype/StillImage" /></cc:Work></rdf:RDF></metadata><defs
   id="defs7" /><sodipodi:namedview
   pagecolor="#ffffff"
   bordercolor="#666666"
   borderopacity="1"
   objecttolerance="10"
   gridtolerance="10"
   guidetolerance="10"
   inkscape:pageopacity="0"
   inkscape:pageshadow="2"
   inkscape:window-width="640"
   inkscape:window-height="480"
   id="namedview5"
   showgrid="false"
   inkscape:zoom="1.4305556"
   inkscape:cx="108"
   inkscape:cy="73"
   inkscape:window-x="65"
   inkscape:window-y="24"
   inkscape:window-maximized="0"
   inkscape:current-layer="Capa_1" />
<path
   d="m 125.45491,53.422302 c 0,-1.412324 -1.11245,-2.289933 -3.34028,-2.633528 L 92.183158,46.610121 78.767168,20.562925 c -0.754562,-1.564799 -1.729419,-2.346848 -2.921642,-2.346848 -1.192224,0 -2.166349,0.782049 -2.921643,2.346848 L 59.507161,46.610121 29.574228,50.788774 c -2.22563,0.343595 -3.338811,1.221204 -3.338811,2.633528 0,0.801723 0.496943,1.717977 1.490828,2.74806 l 21.704468,20.265098 -5.127512,28.62311 c -0.07977,0.53472 -0.119295,0.91696 -0.119295,1.14532 0,0.80172 0.208584,1.47837 0.625752,2.03276 0.417169,0.55369 1.042921,0.82983 1.87799,0.82983 0.715773,0 1.510589,-0.22766 2.385179,-0.68649 L 75.844794,94.868756 102.61822,108.37929 c 0.83507,0.45813 1.62989,0.68719 2.38445,0.68719 1.63135,0 2.44593,-0.95279 2.44593,-2.86119 0,-0.49607 -0.0198,-0.8776 -0.06,-1.14602 l -5.12752,-28.622405 21.64446,-20.265098 c 1.0334,-0.993545 1.54938,-1.909799 1.54938,-2.749465 z M 94.031873,73.859549 98.324316,97.961106 75.844794,86.568356 53.305257,97.961106 57.658446,73.859549 39.412084,56.85685 64.575391,53.30777 75.844794,31.439228 87.114196,53.30777 112.27897,56.85685 94.031873,73.859549 z"
   id="path3"
   inkscape:connector-curvature="0" />
</svg>