<?xml version="1.0" encoding="UTF-8" standalone="no"?>
<!-- Generator: Adobe Illustrator 16.0.4, SVG Export Plug-In . SVG Version: 6.00 Build 0)  -->

<svg
   xmlns:dc="http://purl.org/dc/elements/1.1/"
   xmlns:cc="http://creativecommons.org/ns#"
   xmlns:rdf="http://www.w3.org/1999/02/22-rdf-syntax-ns#"
   xmlns:svg="http://www.w3.org/2000/svg"
   xmlns="http://www.w3.org/2000/svg"
   xmlns:sodipodi="http://sodipodi.sourceforge.net/DTD/sodipodi-0.dtd"
   xmlns:inkscape="http://www.inkscape.org/namespaces/inkscape"
   version="1.1"
   id="Capa_1"
   x="0px"
   y="0px"
   width="150"
   height="130"
   viewBox="0 0 150 130"
   enable-background="new 0 0 216 146"
   xml:space="preserve"
   inkscape:version="0.48.3.1 r9886"
   sodipodi:docname="icon-medkit.svg"><metadata
   id="metadata15"><rdf:RDF><cc:Work
       rdf:about=""><dc:format>image/svg+xml</dc:format><dc:type
         rdf:resource="http://purl.org/dc/dcmitype/StillImage" /></cc:Work></rdf:RDF></metadata><defs
   id="defs13" /><sodipodi:namedview
   pagecolor="#ffffff"
   bordercolor="#666666"
   borderopacity="1"
   objecttolerance="10"
   gridtolerance="10"
   guidetolerance="10"
   inkscape:pageopacity="0"
   inkscape:pageshadow="2"
   inkscape:window-width="640"
   inkscape:window-height="480"
   id="namedview11"
   showgrid="false"
   inkscape:zoom="1.4305556"
   inkscape:cx="108"
   inkscape:cy="73"
   inkscape:window-x="65"
   inkscape:window-y="24"
   inkscape:window-maximized="0"
   inkscape:current-layer="Capa_1" />
<g
   id="g3"
   transform="matrix(0.79412156,0,0,0.74863507,-10.969012,11.087504)">
	<path
   d="M 40.377,36.663 C 36.792,40.248 35,44.539 35,49.535 v 67.786 c 0,4.997 1.792,9.288 5.377,12.873 3.585,3.585 7.876,5.377 12.873,5.377 h 2.607 V 31.285 H 53.25 c -4.998,0 -9.289,1.793 -12.873,5.378 z"
   id="path5"
   inkscape:connector-curvature="0" />
	<path
   d="m 139.285,18.25 c 0,-2.173 -0.76,-4.019 -2.281,-5.54 -1.52,-1.521 -3.367,-2.281 -5.539,-2.281 H 84.536 c -2.172,0 -4.019,0.76 -5.54,2.281 -1.521,1.52 -2.281,3.367 -2.281,5.54 V 31.285 H 63.679 V 135.571 H 152.32 V 31.285 H 139.285 V 18.25 z m -52.142,2.607 h 41.714 V 31.285 H 87.143 V 20.857 z m 52.142,70.393 c 0,0.761 -0.244,1.385 -0.732,1.874 -0.488,0.488 -1.113,0.733 -1.873,0.733 h -18.25 v 18.25 c 0,0.76 -0.246,1.385 -0.734,1.873 -0.487,0.488 -1.112,0.732 -1.873,0.732 H 100.18 c -0.761,0 -1.385,-0.244 -1.874,-0.732 -0.488,-0.488 -0.733,-1.113 -0.733,-1.873 v -18.25 h -18.25 c -0.761,0 -1.385,-0.245 -1.874,-0.733 C 76.96,92.635 76.716,92.011 76.716,91.25 V 75.607 c 0,-0.762 0.244,-1.387 0.733,-1.875 C 77.937,73.244 78.562,73 79.322,73 h 18.25 V 54.75 c 0,-0.761 0.244,-1.385 0.733,-1.874 0.489,-0.489 1.113,-0.733 1.874,-0.733 h 15.643 c 0.761,0 1.386,0.244 1.873,0.733 0.488,0.489 0.734,1.113 0.734,1.874 V 73 h 18.25 c 0.76,0 1.385,0.244 1.873,0.732 0.488,0.488 0.732,1.113 0.732,1.875 V 91.25 z"
   id="path7"
   inkscape:connector-curvature="0" />
	<path
   d="m 175.623,36.663 c -3.585,-3.585 -7.876,-5.378 -12.873,-5.378 h -2.607 v 104.286 h 2.607 c 4.997,0 9.288,-1.792 12.873,-5.377 3.584,-3.585 5.377,-7.876 5.377,-12.873 V 49.535 c 0,-4.996 -1.793,-9.287 -5.377,-12.872 z"
   id="path9"
   inkscape:connector-curvature="0" />
</g>
</svg>