<?xml version="1.0" encoding="UTF-8" standalone="no"?>
<!-- Generator: Adobe Illustrator 16.0.4, SVG Export Plug-In . SVG Version: 6.00 Build 0)  -->

<svg
   xmlns:dc="http://purl.org/dc/elements/1.1/"
   xmlns:cc="http://creativecommons.org/ns#"
   xmlns:rdf="http://www.w3.org/1999/02/22-rdf-syntax-ns#"
   xmlns:svg="http://www.w3.org/2000/svg"
   xmlns="http://www.w3.org/2000/svg"
   xmlns:sodipodi="http://sodipodi.sourceforge.net/DTD/sodipodi-0.dtd"
   xmlns:inkscape="http://www.inkscape.org/namespaces/inkscape"
   version="1.1"
   id="Capa_1"
   x="0px"
   y="0px"
   width="150"
   height="130"
   viewBox="0 0 150 130"
   enable-background="new 0 0 216 146"
   xml:space="preserve"
   inkscape:version="0.48.3.1 r9886"
   sodipodi:docname="icon-skype.svg"><metadata
   id="metadata9"><rdf:RDF><cc:Work
       rdf:about=""><dc:format>image/svg+xml</dc:format><dc:type
         rdf:resource="http://purl.org/dc/dcmitype/StillImage" /></cc:Work></rdf:RDF></metadata><defs
   id="defs7" /><sodipodi:namedview
   pagecolor="#ffffff"
   bordercolor="#666666"
   borderopacity="1"
   objecttolerance="10"
   gridtolerance="10"
   guidetolerance="10"
   inkscape:pageopacity="0"
   inkscape:pageshadow="2"
   inkscape:window-width="640"
   inkscape:window-height="480"
   id="namedview5"
   showgrid="false"
   inkscape:zoom="1.4305556"
   inkscape:cx="108"
   inkscape:cy="73"
   inkscape:window-x="65"
   inkscape:window-y="24"
   inkscape:window-maximized="0"
   inkscape:current-layer="Capa_1" />
<path
   d="m 123.50385,74.026807 c 0.77587,-3.434474 1.16471,-6.780253 1.16471,-10.036516 0,-6.378661 -1.34617,-12.478918 -4.04118,-18.299949 C 117.93327,39.86931 114.29165,34.851463 109.70343,30.635979 105.11521,26.420494 99.653676,23.074715 93.317944,20.598641 86.981319,18.124211 80.34346,16.885763 73.399899,16.885763 c -3.544184,0 -7.185799,0.357245 -10.923952,1.070912 -5.049456,-3.568338 -10.729983,-5.352918 -17.04158,-5.352918 -7.719438,0 -14.309921,2.508924 -19.772344,7.526771 -5.462423,5.018669 -8.193188,11.073757 -8.193188,18.166085 0,5.798858 1.942374,11.017912 5.826227,15.657162 -0.776771,3.434474 -1.165603,6.780253 -1.165603,10.036516 0,6.37784 1.347058,12.478097 4.041174,18.299949 2.694116,5.821032 6.335731,10.838875 10.923952,15.054365 4.588221,4.215475 10.050644,7.560435 16.386375,10.036505 6.335732,2.47608 12.975378,3.7137 19.918045,3.7137 3.544184,0 7.185799,-0.35806 10.92574,-1.07173 5.047669,3.56916 10.728196,5.35374 17.039795,5.35374 7.71944,0 14.31082,-2.50974 19.77056,-7.52759 5.46242,-5.01785 8.19319,-11.072935 8.19319,-18.166085 -9e-4,-5.798034 -1.94238,-11.017088 -5.82444,-15.656338 z m -23.0153,9.936323 c -1.600918,2.609938 -3.749775,4.695095 -6.443892,6.256295 -2.69501,1.5612 -5.668012,2.75366 -8.920795,3.57901 -3.252784,0.82454 -6.651267,1.23845 -10.195451,1.23845 -8.204808,0 -15.268147,-1.46101 -21.191806,-4.38384 -5.923658,-2.922013 -8.88504,-6.433685 -8.88504,-10.5383 0,-2.006318 0.61945,-3.678386 1.857456,-5.017026 1.238006,-1.33864 3.070434,-2.007139 5.498178,-2.007139 1.407841,0 2.71825,0.357244 3.932122,1.070912 1.213872,0.713668 2.330312,1.573518 3.350214,2.577088 1.019903,1.003569 2.123829,2.007139 3.313566,3.010708 1.188844,1.004391 2.76652,1.862599 4.733028,2.576266 1.966508,0.713668 4.187768,1.070912 6.664674,1.070912 3.155352,0 5.703767,-0.567484 7.647035,-1.704918 1.942374,-1.139076 2.913113,-2.577087 2.913113,-4.316498 0,-1.78458 -0.77677,-3.12322 -2.329418,-4.015099 -1.067277,-0.625794 -3.786422,-1.428157 -8.156539,-2.409553 L 63.64155,68.540846 c -2.913114,-0.624151 -5.41326,-1.348495 -7.501334,-2.173032 -2.088074,-0.826179 -4.030448,-1.906946 -5.826227,-3.245586 -1.79578,-1.337819 -3.155352,-3.021385 -4.077823,-5.051518 -0.922471,-2.029313 -1.383707,-4.405194 -1.383707,-7.126001 0,-3.256262 0.81342,-6.121609 2.439364,-8.597683 1.625945,-2.476073 3.787316,-4.416691 6.481432,-5.821852 2.694116,-1.405162 5.594715,-2.453079 8.702692,-3.144573 3.107083,-0.691493 6.311597,-1.03724 9.612649,-1.03724 4.661518,0 9.078116,0.513282 13.254264,1.539025 4.175254,1.025743 7.622006,2.531098 10.340258,4.516063 2.71825,1.985786 4.077822,4.204808 4.077822,6.657886 0,2.006318 -0.690959,3.724376 -2.07556,5.151712 -1.381918,1.426514 -3.21524,2.140181 -5.497284,2.140181 -1.262141,0 -2.42685,-0.267728 -3.495021,-0.803184 -1.068172,-0.534635 -2.038912,-1.181781 -2.914008,-1.939796 -0.874202,-0.758015 -1.796673,-1.505354 -2.768307,-2.241196 -0.97074,-0.735841 -2.281149,-1.37149 -3.930334,-1.906946 -1.652761,-0.535456 -3.520943,-0.803184 -5.608124,-0.803184 -6.990936,0 -10.486851,1.716416 -10.486851,5.151711 0,0.758016 0.182349,1.427336 0.546153,2.007139 0.363804,0.579804 0.765151,1.047917 1.201358,1.405162 0.436207,0.357244 1.164709,0.713667 2.184612,1.070912 1.019902,0.357244 1.86997,0.614296 2.549309,0.769513 0.679339,0.156037 1.748404,0.390094 3.204514,0.70217 l 7.573738,1.605547 c 2.379475,0.491108 4.502409,1.00439 6.373274,1.539025 1.869076,0.536277 3.871339,1.294293 6.007682,2.275688 2.136343,0.981396 3.908882,2.073661 5.315829,3.278437 1.408735,1.204776 2.58506,2.731483 3.53256,4.582584 0.9475,1.851922 1.42036,3.892732 1.42036,6.12243 -0.002,3.256263 -0.8018,6.189774 -2.40629,8.79889 z"
   id="path3"
   inkscape:connector-curvature="0" />
</svg>