<?xml version="1.0" encoding="UTF-8" standalone="no"?>
<!-- Generator: Adobe Illustrator 16.0.4, SVG Export Plug-In . SVG Version: 6.00 Build 0)  -->

<svg
   xmlns:dc="http://purl.org/dc/elements/1.1/"
   xmlns:cc="http://creativecommons.org/ns#"
   xmlns:rdf="http://www.w3.org/1999/02/22-rdf-syntax-ns#"
   xmlns:svg="http://www.w3.org/2000/svg"
   xmlns="http://www.w3.org/2000/svg"
   xmlns:sodipodi="http://sodipodi.sourceforge.net/DTD/sodipodi-0.dtd"
   xmlns:inkscape="http://www.inkscape.org/namespaces/inkscape"
   version="1.1"
   id="Capa_1"
   x="0px"
   y="0px"
   width="150"
   height="130"
   viewBox="0 0 150 130"
   enable-background="new 0 0 216 146"
   xml:space="preserve"
   inkscape:version="0.48.3.1 r9886"
   sodipodi:docname="icon-beaker.svg"><metadata
   id="metadata9"><rdf:RDF><cc:Work
       rdf:about=""><dc:format>image/svg+xml</dc:format><dc:type
         rdf:resource="http://purl.org/dc/dcmitype/StillImage" /></cc:Work></rdf:RDF></metadata><defs
   id="defs7" /><sodipodi:namedview
   pagecolor="#ffffff"
   bordercolor="#666666"
   borderopacity="1"
   objecttolerance="10"
   gridtolerance="10"
   guidetolerance="10"
   inkscape:pageopacity="0"
   inkscape:pageshadow="2"
   inkscape:window-width="640"
   inkscape:window-height="480"
   id="namedview5"
   showgrid="false"
   inkscape:showpageshadow="false"
   inkscape:zoom="1.4305556"
   inkscape:cx="108"
   inkscape:cy="73"
   inkscape:window-x="65"
   inkscape:window-y="24"
   inkscape:window-maximized="0"
   inkscape:current-layer="Capa_1" />
<path
   d="M 126.4927,105.43546 90.087878,48.407926 V 19.71232 h 4.632438 c 1.254267,0 2.340647,-0.456355 3.256475,-1.367299 0.917605,-0.91006 1.375963,-1.989599 1.375963,-3.235968 0,-1.246368 -0.458358,-2.325025 -1.375963,-3.235968 -0.915828,-0.910944 -2.002208,-1.366416 -3.256475,-1.366416 H 57.666144 c -1.255155,0 -2.340647,0.455472 -3.257363,1.366416 -0.916716,0.910943 -1.375075,1.9896 -1.375075,3.235968 0,1.246369 0.458359,2.325908 1.375075,3.235968 0.917605,0.910944 2.003096,1.367299 3.257363,1.367299 h 4.63155 V 48.407043 L 25.894639,105.43458 c -2.701293,4.26872 -3.220055,7.92485 -1.555397,10.96839 1.664657,3.04443 5.054375,4.56708 10.168267,4.56708 h 83.374101 c 5.113,0 8.50183,-1.52265 10.16649,-4.56708 1.66465,-3.04354 1.14589,-6.69879 -1.5554,-10.96751 z M 50.429237,84.14834 70.114655,53.296304 71.561681,51.06661 V 48.406161 19.711437 h 9.263098 v 28.694724 2.660449 l 1.447027,2.229694 19.685414,30.852036 H 50.429237 z"
   id="path3"
   inkscape:connector-curvature="0" />
</svg>