<?xml version="1.0" encoding="UTF-8" standalone="no"?>
<!-- Generator: Adobe Illustrator 16.0.4, SVG Export Plug-In . SVG Version: 6.00 Build 0)  -->

<svg
   xmlns:dc="http://purl.org/dc/elements/1.1/"
   xmlns:cc="http://creativecommons.org/ns#"
   xmlns:rdf="http://www.w3.org/1999/02/22-rdf-syntax-ns#"
   xmlns:svg="http://www.w3.org/2000/svg"
   xmlns="http://www.w3.org/2000/svg"
   xmlns:sodipodi="http://sodipodi.sourceforge.net/DTD/sodipodi-0.dtd"
   xmlns:inkscape="http://www.inkscape.org/namespaces/inkscape"
   version="1.1"
   id="Capa_1"
   x="0px"
   y="0px"
   width="150"
   height="130"
   viewBox="0 0 150 130"
   enable-background="new 0 0 216 146"
   xml:space="preserve"
   inkscape:version="0.48.3.1 r9886"
   sodipodi:docname="icon-music.svg"><metadata
   id="metadata9"><rdf:RDF><cc:Work
       rdf:about=""><dc:format>image/svg+xml</dc:format><dc:type
         rdf:resource="http://purl.org/dc/dcmitype/StillImage" /></cc:Work></rdf:RDF></metadata><defs
   id="defs7" /><sodipodi:namedview
   pagecolor="#ffffff"
   bordercolor="#666666"
   borderopacity="1"
   objecttolerance="10"
   gridtolerance="10"
   guidetolerance="10"
   inkscape:pageopacity="0"
   inkscape:pageshadow="2"
   inkscape:window-width="640"
   inkscape:window-height="480"
   id="namedview5"
   showgrid="false"
   inkscape:zoom="1.4305556"
   inkscape:cx="108"
   inkscape:cy="73"
   inkscape:window-x="65"
   inkscape:window-y="24"
   inkscape:window-maximized="0"
   inkscape:current-layer="Capa_1" />
<path
   d="m 121.88744,13.360186 c -1.23132,-1.183762 -2.72755,-1.775254 -4.48786,-1.775254 -0.70396,0 -1.32043,0.08483 -1.8478,0.253718 L 60.639505,28.071218 c -1.319626,0.422606 -2.397846,1.172868 -3.233851,2.250784 -0.836006,1.078695 -1.254009,2.272575 -1.254009,3.583197 v 61.316725 c -3.828452,-1.649169 -8.052223,-2.473376 -12.672126,-2.473376 -1.979842,0 -4.103069,0.221812 -6.368871,0.665436 -2.266612,0.442841 -4.543755,1.119167 -6.831429,2.028194 -2.288484,0.909027 -4.180028,2.188526 -5.676251,3.836136 -1.496222,1.648386 -2.243929,3.530276 -2.243929,5.644076 0,2.11458 0.747707,3.99491 2.243929,5.64409 1.496223,1.64683 3.387767,2.92633 5.676251,3.83535 2.288485,0.90903 4.565628,1.58536 6.831429,2.0282 2.265802,0.44362 4.389029,0.66465 6.368871,0.66465 1.979843,0 4.102259,-0.22103 6.368872,-0.66465 2.266612,-0.44284 4.542944,-1.11917 6.831429,-2.0282 2.287673,-0.90902 4.179217,-2.18852 5.67544,-3.83535 C 63.852293,108.9173 64.6,107.03697 64.6,104.92239 V 59.965877 l 50.68851,-15.027792 v 34.050491 c -3.82927,-1.648395 -8.05223,-2.473372 -12.67294,-2.473372 -1.97984,0 -4.103073,0.221032 -6.368874,0.664651 -2.265802,0.442841 -4.542134,1.119165 -6.830618,2.028195 -2.288484,0.90903 -4.180028,2.188522 -5.677061,3.837695 -1.495412,1.646837 -2.244739,3.529492 -2.244739,5.642525 0,2.114582 0.749327,3.994904 2.244739,5.644082 1.497033,1.648395 3.388577,2.927882 5.677061,3.836132 2.287674,0.90904 4.564816,1.58536 6.830618,2.028976 2.265801,0.44362 4.389034,0.66465 6.368874,0.66465 1.97984,0 4.10307,-0.22103 6.36887,-0.66465 2.2658,-0.443616 4.54213,-1.119936 6.83143,-2.028976 2.28767,-0.90825 4.17922,-2.187737 5.67625,-3.836132 1.49704,-1.649178 2.24393,-3.5295 2.24393,-5.644082 V 17.670296 c -8.1e-4,-1.690422 -0.61486,-3.127126 -1.84861,-4.31011 z"
   id="path3"
   inkscape:connector-curvature="0" />
</svg>