<?xml version="1.0" encoding="UTF-8" standalone="no"?>
<!-- Generator: Adobe Illustrator 16.0.4, SVG Export Plug-In . SVG Version: 6.00 Build 0)  -->

<svg
   xmlns:dc="http://purl.org/dc/elements/1.1/"
   xmlns:cc="http://creativecommons.org/ns#"
   xmlns:rdf="http://www.w3.org/1999/02/22-rdf-syntax-ns#"
   xmlns:svg="http://www.w3.org/2000/svg"
   xmlns="http://www.w3.org/2000/svg"
   xmlns:sodipodi="http://sodipodi.sourceforge.net/DTD/sodipodi-0.dtd"
   xmlns:inkscape="http://www.inkscape.org/namespaces/inkscape"
   version="1.1"
   id="Capa_1"
   x="0px"
   y="0px"
   width="150"
   height="130"
   viewBox="0 0 150 130"
   enable-background="new 0 0 216 146"
   xml:space="preserve"
   inkscape:version="0.48.3.1 r9886"
   sodipodi:docname="icon-screenshot.svg"><metadata
   id="metadata9"><rdf:RDF><cc:Work
       rdf:about=""><dc:format>image/svg+xml</dc:format><dc:type
         rdf:resource="http://purl.org/dc/dcmitype/StillImage" /></cc:Work></rdf:RDF></metadata><defs
   id="defs7" /><sodipodi:namedview
   pagecolor="#ffffff"
   bordercolor="#666666"
   borderopacity="1"
   objecttolerance="10"
   gridtolerance="10"
   guidetolerance="10"
   inkscape:pageopacity="0"
   inkscape:pageshadow="2"
   inkscape:window-width="643"
   inkscape:window-height="480"
   id="namedview5"
   showgrid="false"
   inkscape:zoom="1.4305556"
   inkscape:cx="108"
   inkscape:cy="73"
   inkscape:window-x="65"
   inkscape:window-y="24"
   inkscape:window-maximized="0"
   inkscape:current-layer="Capa_1" />
<path
   d="m 122.4905,59.589734 c -0.83024,-0.795648 -1.81332,-1.193472 -2.94927,-1.193472 h -9.37314 C 108.55026,51.65407 105.17541,45.823172 100.04195,40.902799 94.90848,35.982425 88.822493,32.747406 81.788816,31.197743 v -8.981879 c 0,-1.08862 -0.416727,-2.030753 -1.246158,-2.826401 -0.829432,-0.795648 -1.813326,-1.193472 -2.94927,-1.193472 h -8.390051 c -1.135943,0 -2.119032,0.397824 -2.949269,1.193472 -0.830236,0.795648 -1.245354,1.737781 -1.245354,2.826401 v 8.981879 c -7.035286,1.549663 -13.119662,4.784682 -18.253932,9.705056 -5.13427,4.919602 -8.50992,10.751271 -10.12695,17.493463 h -9.372336 c -1.136748,0 -2.119838,0.397824 -2.950074,1.193472 -0.830236,0.795648 -1.245354,1.737781 -1.245354,2.826401 v 8.040517 c 0,1.088619 0.415118,2.032294 1.245354,2.827171 0.831041,0.794878 1.814131,1.193473 2.950074,1.193473 h 9.372336 c 1.61703,6.741421 4.99268,12.573089 10.12695,17.49346 5.133466,4.92038 11.218646,8.153854 18.253932,9.704294 v 8.98265 c 0,1.08862 0.415118,2.03075 1.245354,2.8264 0.830237,0.79488 1.813326,1.1927 2.949269,1.1927 h 8.390051 c 1.135944,0 2.119838,-0.39782 2.94927,-1.1927 0.829431,-0.79565 1.246158,-1.73778 1.246158,-2.8264 v -8.98265 c 7.033677,-1.55044 13.118859,-4.783914 18.253134,-9.704294 5.13427,-4.921142 8.50831,-10.752039 10.12614,-17.49346 h 9.37314 c 1.13595,0 2.11903,-0.398595 2.94927,-1.193473 0.82943,-0.794877 1.24455,-1.738552 1.24455,-2.827171 v -8.040517 c 0,-1.08862 -0.41431,-2.030753 -1.24455,-2.826401 z M 91.42181,73.283823 c 0.83104,0.794878 1.81413,1.193473 2.949269,1.193473 h 7.145501 c -1.39821,4.522549 -3.855932,8.469179 -7.373977,11.83989 -3.517242,3.37071 -7.635439,5.72682 -12.353787,7.06677 v -6.847042 c 0,-1.088619 -0.416727,-2.030752 -1.246158,-2.826401 -0.829432,-0.795648 -1.813326,-1.193472 -2.94927,-1.193472 h -8.390051 c -1.135943,0 -2.119032,0.397824 -2.949269,1.193472 -0.830236,0.795649 -1.245354,1.737782 -1.245354,2.826401 v 6.847042 c -4.719152,-1.33995 -8.837349,-3.69606 -12.355394,-7.06677 -3.518045,-3.370711 -5.975769,-7.317341 -7.373977,-11.83989 h 7.143892 c 1.136748,0 2.119838,-0.398595 2.950074,-1.193473 0.830236,-0.794877 1.245354,-1.738552 1.245354,-2.827171 v -8.040517 c 0,-1.08862 -0.415118,-2.030753 -1.245354,-2.826401 -0.831041,-0.795648 -1.81413,-1.193472 -2.950074,-1.193472 h -7.143892 c 1.398208,-4.52255 3.855932,-8.46918 7.373977,-11.839891 3.518045,-3.371481 7.636242,-5.726815 12.355394,-7.066773 v 6.847045 c 0,1.088619 0.415118,2.030753 1.245354,2.826401 0.830237,0.795648 1.813326,1.193472 2.949269,1.193472 h 8.390051 c 1.135944,0 2.119838,-0.397824 2.94927,-1.193472 0.829431,-0.795648 1.246158,-1.737782 1.246158,-2.826401 v -6.847045 c 4.718348,1.339958 8.836545,3.695292 12.353787,7.066773 3.518045,3.370711 5.975767,7.317341 7.373977,11.839891 h -7.145501 c -1.135139,0 -2.118229,0.397824 -2.949269,1.193472 -0.829434,0.795648 -1.244552,1.737781 -1.244552,2.826401 v 8.040517 c 0,1.088619 0.415118,2.032294 1.244552,2.827171 z"
   id="path3"
   inkscape:connector-curvature="0" />
</svg>