<?xml version="1.0" encoding="UTF-8" standalone="no"?>
<!-- Generator: Adobe Illustrator 16.0.4, SVG Export Plug-In . SVG Version: 6.00 Build 0)  -->

<svg
   xmlns:dc="http://purl.org/dc/elements/1.1/"
   xmlns:cc="http://creativecommons.org/ns#"
   xmlns:rdf="http://www.w3.org/1999/02/22-rdf-syntax-ns#"
   xmlns:svg="http://www.w3.org/2000/svg"
   xmlns="http://www.w3.org/2000/svg"
   xmlns:sodipodi="http://sodipodi.sourceforge.net/DTD/sodipodi-0.dtd"
   xmlns:inkscape="http://www.inkscape.org/namespaces/inkscape"
   version="1.1"
   id="Capa_1"
   x="0px"
   y="0px"
   width="150"
   height="130"
   viewBox="0 0 150 130"
   enable-background="new 0 0 216 146"
   xml:space="preserve"
   inkscape:version="0.48.3.1 r9886"
   sodipodi:docname="icon-refresh.svg"><metadata
   id="metadata13"><rdf:RDF><cc:Work
       rdf:about=""><dc:format>image/svg+xml</dc:format><dc:type
         rdf:resource="http://purl.org/dc/dcmitype/StillImage" /></cc:Work></rdf:RDF></metadata><defs
   id="defs11" /><sodipodi:namedview
   pagecolor="#ffffff"
   bordercolor="#666666"
   borderopacity="1"
   objecttolerance="10"
   gridtolerance="10"
   guidetolerance="10"
   inkscape:pageopacity="0"
   inkscape:pageshadow="2"
   inkscape:window-width="640"
   inkscape:window-height="480"
   id="namedview9"
   showgrid="false"
   inkscape:zoom="1.4305556"
   inkscape:cx="108"
   inkscape:cy="73"
   inkscape:window-x="65"
   inkscape:window-y="24"
   inkscape:window-maximized="0"
   inkscape:current-layer="Capa_1" />
<g
   id="g3"
   transform="matrix(0.75980492,0,0,0.74304302,-5.864877,12.544139)">
	<path
   d="m 169.023,17.191 c -1.031,-1.031 -2.254,-1.548 -3.666,-1.548 -1.412,0 -2.633,0.517 -3.666,1.548 L 151.1,27.702 C 145.288,22.216 138.634,17.965 131.139,14.951 123.645,11.937 115.93,10.43 108,10.43 93.063,10.43 80.028,14.951 68.893,23.995 57.758,33.038 50.426,44.837 46.895,59.394 v 0.57 c 0,0.706 0.258,1.317 0.774,1.833 0.516,0.516 1.127,0.774 1.833,0.774 h 16.213 c 1.195,0 2.009,-0.625 2.444,-1.874 2.281,-5.431 3.72,-8.608 4.318,-9.532 3.802,-6.192 8.853,-11.053 15.154,-14.584 6.301,-3.53 13.09,-5.296 20.368,-5.296 10.918,0 20.396,3.721 28.435,11.162 L 125.189,53.69 c -1.03,1.032 -1.547,2.255 -1.547,3.667 0,1.412 0.517,2.634 1.547,3.666 1.033,1.032 2.256,1.548 3.668,1.548 h 36.5 c 1.412,0 2.634,-0.516 3.666,-1.548 1.031,-1.032 1.547,-2.254 1.547,-3.666 v -36.5 c 0,-1.412 -0.513,-2.634 -1.547,-3.666 z"
   id="path5"
   inkscape:connector-curvature="0" />
	<path
   d="m 165.926,83.429 h -15.644 c -1.194,0 -2.009,0.624 -2.443,1.874 -2.28,5.432 -3.72,8.608 -4.317,9.532 -3.803,6.19 -8.854,11.053 -15.154,14.583 -6.301,3.531 -13.09,5.296 -20.368,5.296 -5.268,0 -10.347,-0.977 -15.235,-2.933 -4.888,-1.956 -9.261,-4.727 -13.117,-8.312 L 90.81,92.308 c 1.032,-1.031 1.548,-2.255 1.548,-3.666 0,-1.412 -0.516,-2.635 -1.548,-3.666 -1.032,-1.033 -2.254,-1.549 -3.666,-1.549 h -36.5 c -1.413,0 -2.635,0.516 -3.667,1.549 -1.032,1.031 -1.548,2.254 -1.548,3.666 v 36.5 c 0,1.411 0.516,2.635 1.548,3.666 1.033,1.031 2.255,1.549 3.667,1.549 1.412,0 2.634,-0.518 3.666,-1.549 l 10.51,-10.511 c 5.812,5.54 12.425,9.804 19.839,12.791 7.414,2.988 15.086,4.481 23.016,4.481 14.883,0 27.864,-4.521 38.944,-13.565 11.08,-9.043 18.358,-20.843 21.835,-35.399 0.055,-0.108 0.081,-0.299 0.081,-0.57 0,-0.706 -0.259,-1.316 -0.775,-1.833 -0.517,-0.514 -1.128,-0.773 -1.834,-0.773 z"
   id="path7"
   inkscape:connector-curvature="0" />
</g>
</svg>