<?xml version="1.0" encoding="UTF-8" standalone="no"?>
<!-- Generator: Adobe Illustrator 16.0.4, SVG Export Plug-In . SVG Version: 6.00 Build 0)  -->

<svg
   xmlns:dc="http://purl.org/dc/elements/1.1/"
   xmlns:cc="http://creativecommons.org/ns#"
   xmlns:rdf="http://www.w3.org/1999/02/22-rdf-syntax-ns#"
   xmlns:svg="http://www.w3.org/2000/svg"
   xmlns="http://www.w3.org/2000/svg"
   xmlns:sodipodi="http://sodipodi.sourceforge.net/DTD/sodipodi-0.dtd"
   xmlns:inkscape="http://www.inkscape.org/namespaces/inkscape"
   version="1.1"
   id="Capa_1"
   x="0px"
   y="0px"
   width="150"
   height="130"
   viewBox="0 0 150 130"
   enable-background="new 0 0 216 146"
   xml:space="preserve"
   inkscape:version="0.48.3.1 r9886"
   sodipodi:docname="icon-rupee.svg"><metadata
   id="metadata9"><rdf:RDF><cc:Work
       rdf:about=""><dc:format>image/svg+xml</dc:format><dc:type
         rdf:resource="http://purl.org/dc/dcmitype/StillImage" /></cc:Work></rdf:RDF></metadata><defs
   id="defs7" /><sodipodi:namedview
   pagecolor="#ffffff"
   bordercolor="#666666"
   borderopacity="1"
   objecttolerance="10"
   gridtolerance="10"
   guidetolerance="10"
   inkscape:pageopacity="0"
   inkscape:pageshadow="2"
   inkscape:window-width="640"
   inkscape:window-height="480"
   id="namedview5"
   showgrid="false"
   inkscape:zoom="1.4305556"
   inkscape:cx="108"
   inkscape:cy="73"
   inkscape:window-x="65"
   inkscape:window-y="24"
   inkscape:window-maximized="0"
   inkscape:current-layer="Capa_1" />
<path
   d="m 107.56862,36.921264 c -0.44138,-0.438344 -1.00666,-0.657068 -1.69405,-0.657068 H 93.273667 C 92.437948,32.224079 90.866001,28.717325 88.556923,25.747521 h 17.168407 c 0.6892,0 1.25268,-0.218724 1.69586,-0.656172 0.44047,-0.438344 0.66116,-0.9986 0.66116,-1.679871 v -7.450956 c 0,-0.682167 -0.22069,-1.241527 -0.66116,-1.679871 -0.44318,-0.437448 -1.00666,-0.657068 -1.69586,-0.657068 H 44.416697 c -0.688292,0 -1.252673,0.21962 -1.694953,0.657068 -0.441375,0.438344 -0.662967,0.997704 -0.662967,1.679871 v 9.713493 c 0,0.632865 0.23335,1.180571 0.70005,1.643119 0.4667,0.462547 1.019323,0.693821 1.65787,0.693821 h 10.685258 c 10.36508,0 16.947719,2.750184 19.747919,8.252345 H 44.416697 c -0.688292,0 -1.253578,0.218724 -1.694953,0.657068 -0.441375,0.438344 -0.662967,0.997704 -0.662967,1.679871 v 7.450059 c 0,0.681271 0.220688,1.241527 0.662967,1.678975 0.44228,0.438344 1.007566,0.657068 1.694953,0.657068 h 31.466067 c -1.080826,3.993504 -3.598835,7.035918 -7.554027,9.12993 -3.955191,2.094013 -9.173909,3.141019 -15.658868,3.141019 h -8.253172 c -0.638547,0 -1.19117,0.231274 -1.65787,0.693821 -0.4667,0.462547 -0.70005,1.010253 -0.70005,1.643118 v 9.276045 c 0,0.633762 0.220688,1.168918 0.662967,1.607262 9.43168,9.932217 21.664464,23.831942 36.697448,41.701864 0.442279,0.58446 1.056406,0.87669 1.842379,0.87669 h 14.369115 c 1.03198,0 1.74469,-0.43745 2.13723,-1.31503 0.49112,-0.87669 0.39434,-1.70408 -0.29485,-2.48395 C 83.129275,95.22732 71.854311,82.178288 63.64998,73.511801 72.001738,72.537404 78.780645,69.859829 83.98851,65.47818 89.19547,61.096531 92.363783,55.398952 93.494354,48.388134 h 12.380216 c 0.68739,0 1.25267,-0.218724 1.69405,-0.657068 0.44228,-0.437448 0.66387,-0.997704 0.66387,-1.678975 v -7.450059 c 0,-0.683064 -0.22159,-1.242423 -0.66387,-1.680768 z"
   id="path3"
   inkscape:connector-curvature="0" />
</svg>