<?xml version="1.0" encoding="UTF-8" standalone="no"?>
<!-- Generator: Adobe Illustrator 16.0.4, SVG Export Plug-In . SVG Version: 6.00 Build 0)  -->

<svg
   xmlns:dc="http://purl.org/dc/elements/1.1/"
   xmlns:cc="http://creativecommons.org/ns#"
   xmlns:rdf="http://www.w3.org/1999/02/22-rdf-syntax-ns#"
   xmlns:svg="http://www.w3.org/2000/svg"
   xmlns="http://www.w3.org/2000/svg"
   xmlns:sodipodi="http://sodipodi.sourceforge.net/DTD/sodipodi-0.dtd"
   xmlns:inkscape="http://www.inkscape.org/namespaces/inkscape"
   version="1.1"
   id="Capa_1"
   x="0px"
   y="0px"
   width="150"
   height="130"
   viewBox="0 0 150 130"
   enable-background="new 0 0 216 146"
   xml:space="preserve"
   inkscape:version="0.48.3.1 r9886"
   sodipodi:docname="icon-female.svg"><metadata
   id="metadata13"><rdf:RDF><cc:Work
       rdf:about=""><dc:format>image/svg+xml</dc:format><dc:type
         rdf:resource="http://purl.org/dc/dcmitype/StillImage" /></cc:Work></rdf:RDF></metadata><defs
   id="defs11" /><sodipodi:namedview
   pagecolor="#ffffff"
   bordercolor="#666666"
   borderopacity="1"
   objecttolerance="10"
   gridtolerance="10"
   guidetolerance="10"
   inkscape:pageopacity="0"
   inkscape:pageshadow="2"
   inkscape:window-width="640"
   inkscape:window-height="480"
   id="namedview9"
   showgrid="false"
   inkscape:zoom="1.4305556"
   inkscape:cx="108"
   inkscape:cy="73"
   inkscape:window-x="65"
   inkscape:window-y="24"
   inkscape:window-maximized="0"
   inkscape:current-layer="Capa_1" />
<g
   id="g3"
   transform="matrix(0.71847397,0,0,0.71724884,-0.35247135,13.028902)">
	<path
   d="m 108,37.804 c 5.052,0 9.355,-1.778 12.914,-5.336 3.559,-3.558 5.336,-7.863 5.336,-12.914 0,-5.052 -1.777,-9.355 -5.336,-12.914 C 117.355,3.083 113.051,1.304 108,1.304 c -5.052,0 -9.357,1.778 -12.914,5.336 -3.557,3.558 -5.336,7.862 -5.336,12.914 0,5.052 1.778,9.357 5.336,12.914 3.558,3.557 7.862,5.336 12.914,5.336 z"
   id="path5"
   inkscape:connector-curvature="0" />
	<path
   d="M 158.839,80.414 137.983,49.128 c -3.965,-5.812 -8.744,-8.718 -14.34,-8.718 H 92.357 c -5.594,0 -10.374,2.906 -14.339,8.718 L 57.161,80.414 c -0.869,1.303 -1.304,2.743 -1.304,4.318 0,2.172 0.76,4.02 2.281,5.539 1.521,1.521 3.368,2.281 5.54,2.281 2.77,0 4.943,-1.168 6.518,-3.503 L 88.69,61.267 h 3.667 v 10.754 l -20.124,33.485 c -0.489,0.814 -0.733,1.71 -0.733,2.688 0,1.413 0.516,2.634 1.548,3.667 1.032,1.031 2.254,1.547 3.666,1.547 h 15.642 v 22.161 c 0,2.499 0.895,4.645 2.688,6.437 1.793,1.792 3.938,2.688 6.437,2.688 h 13.035 c 2.5,0 4.646,-0.896 6.438,-2.688 1.792,-1.793 2.688,-3.938 2.688,-6.437 v -22.161 h 15.644 c 1.412,0 2.634,-0.516 3.666,-1.547 1.032,-1.033 1.548,-2.254 1.548,-3.667 0,-0.978 -0.244,-1.874 -0.732,-2.688 L 123.643,72.021 V 61.267 h 3.668 l 18.494,27.783 c 1.575,2.335 3.747,3.503 6.519,3.503 2.172,0 4.018,-0.76 5.538,-2.281 1.521,-1.52 2.281,-3.367 2.281,-5.539 0,-1.576 -0.434,-3.015 -1.304,-4.319 z"
   id="path7"
   inkscape:connector-curvature="0" />
</g>
</svg>