<?xml version="1.0" encoding="UTF-8" standalone="no"?>
<!-- Generator: Adobe Illustrator 16.0.4, SVG Export Plug-In . SVG Version: 6.00 Build 0)  -->

<svg
   xmlns:dc="http://purl.org/dc/elements/1.1/"
   xmlns:cc="http://creativecommons.org/ns#"
   xmlns:rdf="http://www.w3.org/1999/02/22-rdf-syntax-ns#"
   xmlns:svg="http://www.w3.org/2000/svg"
   xmlns="http://www.w3.org/2000/svg"
   xmlns:sodipodi="http://sodipodi.sourceforge.net/DTD/sodipodi-0.dtd"
   xmlns:inkscape="http://www.inkscape.org/namespaces/inkscape"
   version="1.1"
   id="Capa_1"
   x="0px"
   y="0px"
   width="150"
   height="130"
   viewBox="0 0 150 130"
   enable-background="new 0 0 216 146"
   xml:space="preserve"
   inkscape:version="0.48.3.1 r9886"
   sodipodi:docname="icon-table.svg"><metadata
   id="metadata9"><rdf:RDF><cc:Work
       rdf:about=""><dc:format>image/svg+xml</dc:format><dc:type
         rdf:resource="http://purl.org/dc/dcmitype/StillImage" /></cc:Work></rdf:RDF></metadata><defs
   id="defs7" /><sodipodi:namedview
   pagecolor="#ffffff"
   bordercolor="#666666"
   borderopacity="1"
   objecttolerance="10"
   gridtolerance="10"
   guidetolerance="10"
   inkscape:pageopacity="0"
   inkscape:pageshadow="2"
   inkscape:window-width="640"
   inkscape:window-height="480"
   id="namedview5"
   showgrid="false"
   inkscape:zoom="1.4305556"
   inkscape:cx="108"
   inkscape:cy="73"
   inkscape:window-x="65"
   inkscape:window-y="24"
   inkscape:window-maximized="0"
   inkscape:current-layer="Capa_1" />
<path
   d="m 124.0316,31.734588 c -1.88165,-1.821815 -4.14288,-2.732365 -6.78588,-2.732365 H 36.54043 c -2.642269,0 -4.904228,0.91055 -6.785878,2.732365 -1.881649,1.822528 -2.822105,4.011846 -2.822105,6.570093 v 63.256139 c 0,2.55825 0.940456,4.74614 2.822105,6.56938 1.88165,1.82253 4.143609,2.73165 6.785878,2.73165 h 80.70529 c 2.643,0 4.90423,-0.90912 6.78588,-2.73165 1.88165,-1.82324 2.82136,-4.01185 2.82136,-6.56938 V 38.304681 c 0,-2.558247 -0.93971,-4.748278 -2.82136,-6.570093 z M 57.677844,101.55868 c 0,0.54376 -0.180573,0.98904 -0.540983,1.33799 -0.36041,0.34824 -0.82032,0.52164 -1.381203,0.52164 H 36.54043 c -0.560147,0 -1.020793,-0.1734 -1.381203,-0.52164 -0.36041,-0.34895 -0.540246,-0.79423 -0.540246,-1.33799 V 90.395162 c 0,-0.543048 0.179836,-0.988332 0.540246,-1.335854 0.36041,-0.349663 0.821056,-0.523781 1.381203,-0.523781 h 19.215965 c 0.560884,0 1.02153,0.174118 1.381203,0.523781 0.359673,0.347522 0.540246,0.792806 0.540246,1.335854 v 11.163518 z m 0,-22.324184 c 0,0.542334 -0.180573,0.988333 -0.540983,1.336569 -0.36041,0.348949 -0.82032,0.523067 -1.381203,0.523067 H 36.54043 c -0.560147,0 -1.020793,-0.174118 -1.381203,-0.523067 -0.36041,-0.348236 -0.540246,-0.794235 -0.540246,-1.336569 v -11.16352 c 0,-0.542334 0.179836,-0.988333 0.540246,-1.337282 0.36041,-0.348235 0.821056,-0.522353 1.381203,-0.522353 h 19.215965 c 0.560884,0 1.020793,0.174118 1.381203,0.522353 0.359673,0.348949 0.540246,0.794948 0.540246,1.337282 v 11.16352 z m 0,-22.325613 c 0,0.543048 -0.180573,0.988333 -0.540983,1.337282 -0.36041,0.348235 -0.82032,0.523067 -1.381203,0.523067 H 36.54043 c -0.560147,0 -1.020793,-0.174832 -1.381203,-0.523067 -0.36041,-0.348949 -0.540246,-0.794234 -0.540246,-1.337282 V 45.746076 c 0,-0.543048 0.179836,-0.989046 0.540246,-1.337282 0.36041,-0.348949 0.821056,-0.523067 1.381203,-0.523067 h 19.215965 c 0.560884,0 1.020793,0.174118 1.381203,0.523067 0.359673,0.348236 0.540246,0.794234 0.540246,1.337282 v 11.162807 z m 30.744663,44.649797 c 0,0.54376 -0.17984,0.98904 -0.53877,1.33799 -0.35968,0.34824 -0.82032,0.52164 -1.381944,0.52164 H 67.28509 c -0.560146,0 -1.020793,-0.1734 -1.381203,-0.52164 -0.36041,-0.34895 -0.540246,-0.79423 -0.540246,-1.33799 V 90.395162 c 0,-0.543048 0.179836,-0.988332 0.540246,-1.335854 0.36041,-0.349663 0.821057,-0.523781 1.381203,-0.523781 h 19.215966 c 0.561621,0 1.022271,0.174118 1.381941,0.523781 0.35893,0.347522 0.53877,0.792806 0.53877,1.335854 v 11.163518 z m 0,-22.324184 c 0,0.542334 -0.17984,0.988333 -0.53877,1.336569 -0.35968,0.348949 -0.82032,0.523067 -1.381944,0.523067 H 67.28509 c -0.560146,0 -1.020793,-0.174118 -1.381203,-0.523067 -0.36041,-0.348236 -0.540246,-0.794235 -0.540246,-1.336569 v -11.16352 c 0,-0.542334 0.179836,-0.988333 0.540246,-1.337282 0.36041,-0.348235 0.821057,-0.522353 1.381203,-0.522353 h 19.215966 c 0.561621,0 1.022271,0.174118 1.381941,0.522353 0.35893,0.348949 0.53877,0.794948 0.53877,1.337282 v 11.16352 z m 0,-22.325613 c 0,0.543048 -0.17984,0.988333 -0.53877,1.337282 -0.35968,0.348235 -0.82032,0.523067 -1.381944,0.523067 H 67.28509 c -0.560146,0 -1.020793,-0.174832 -1.381203,-0.523067 -0.36041,-0.348949 -0.540246,-0.794234 -0.540246,-1.337282 V 45.746076 c 0,-0.543048 0.179836,-0.989046 0.540246,-1.337282 0.36041,-0.348949 0.821057,-0.523067 1.381203,-0.523067 h 19.215966 c 0.561621,0 1.022271,0.174118 1.381941,0.523067 0.35893,0.348236 0.53877,0.794234 0.53877,1.337282 v 11.162807 z m 30.744663,44.649797 c 0,0.54376 -0.17984,0.98904 -0.53951,1.33799 -0.36115,0.34824 -0.82179,0.52164 -1.38194,0.52164 H 98.031227 c -0.56162,0 -1.02227,-0.1734 -1.38194,-0.52164 -0.35968,-0.34895 -0.53804,-0.79423 -0.53804,-1.33799 V 90.395162 c 0,-0.543048 0.17836,-0.988332 0.53804,-1.335854 0.35967,-0.349663 0.82032,-0.523781 1.38194,-0.523781 h 19.214493 c 0.56015,0 1.02079,0.174118 1.38194,0.523781 0.35967,0.347522 0.53951,0.792806 0.53951,1.335854 v 11.163518 z m 0,-22.324184 c 0,0.542334 -0.17984,0.988333 -0.53951,1.336569 -0.36115,0.348949 -0.82179,0.523067 -1.38194,0.523067 H 98.031227 c -0.56162,0 -1.02227,-0.174118 -1.38194,-0.523067 -0.35968,-0.348236 -0.53804,-0.794235 -0.53804,-1.336569 v -11.16352 c 0,-0.542334 0.17836,-0.988333 0.53804,-1.337282 0.35967,-0.348235 0.82032,-0.522353 1.38194,-0.522353 h 19.214493 c 0.56015,0 1.02079,0.174118 1.38194,0.522353 0.35967,0.348949 0.53951,0.794948 0.53951,1.337282 v 11.16352 z m 0,-22.325613 c 0,0.543048 -0.17984,0.988333 -0.53951,1.337282 -0.36115,0.348235 -0.82179,0.523067 -1.38194,0.523067 H 98.031227 c -0.56162,0 -1.02227,-0.174832 -1.38194,-0.523067 -0.35968,-0.348949 -0.53804,-0.794234 -0.53804,-1.337282 V 45.746076 c 0,-0.543048 0.17836,-0.989046 0.53804,-1.337282 0.35967,-0.348949 0.82032,-0.523067 1.38194,-0.523067 h 19.214493 c 0.56015,0 1.02079,0.174118 1.38194,0.523067 0.35967,0.348236 0.53951,0.794234 0.53951,1.337282 v 11.162807 z"
   id="path3"
   inkscape:connector-curvature="0" />
</svg>