<?xml version="1.0" encoding="UTF-8" standalone="no"?>
<!-- Generator: Adobe Illustrator 16.0.4, SVG Export Plug-In . SVG Version: 6.00 Build 0)  -->

<svg
   xmlns:dc="http://purl.org/dc/elements/1.1/"
   xmlns:cc="http://creativecommons.org/ns#"
   xmlns:rdf="http://www.w3.org/1999/02/22-rdf-syntax-ns#"
   xmlns:svg="http://www.w3.org/2000/svg"
   xmlns="http://www.w3.org/2000/svg"
   xmlns:sodipodi="http://sodipodi.sourceforge.net/DTD/sodipodi-0.dtd"
   xmlns:inkscape="http://www.inkscape.org/namespaces/inkscape"
   version="1.1"
   id="Capa_1"
   x="0px"
   y="0px"
   width="150"
   height="130"
   viewBox="0 0 150 130"
   enable-background="new 0 0 216 146"
   xml:space="preserve"
   inkscape:version="0.48.3.1 r9886"
   sodipodi:docname="icon-apple.svg"><metadata
   id="metadata13"><rdf:RDF><cc:Work
       rdf:about=""><dc:format>image/svg+xml</dc:format><dc:type
         rdf:resource="http://purl.org/dc/dcmitype/StillImage" /></cc:Work></rdf:RDF></metadata><defs
   id="defs11" /><sodipodi:namedview
   pagecolor="#ffffff"
   bordercolor="#666666"
   borderopacity="1"
   objecttolerance="10"
   gridtolerance="10"
   guidetolerance="10"
   inkscape:pageopacity="0"
   inkscape:pageshadow="2"
   inkscape:window-width="640"
   inkscape:window-height="480"
   id="namedview9"
   showgrid="false"
   inkscape:zoom="1.4305556"
   inkscape:cx="108"
   inkscape:cy="73"
   inkscape:window-x="65"
   inkscape:window-y="24"
   inkscape:window-maximized="0"
   inkscape:current-layer="Capa_1" />
<g
   id="g3"
   transform="matrix(0.84601662,0,0,0.78344343,-17.272631,6.7992451)">
	<path
   d="m 151.874,93.938 c -3.748,-5.377 -5.621,-11.435 -5.621,-18.168 0,-6.138 1.767,-11.761 5.295,-16.866 1.901,-2.77 4.998,-5.974 9.289,-9.614 -2.825,-3.475 -5.649,-6.191 -8.474,-8.147 -5.106,-3.53 -10.891,-5.295 -17.354,-5.295 -3.856,0 -8.555,0.923 -14.094,2.771 -5.323,1.847 -9.207,2.771 -11.651,2.771 -1.847,0 -5.594,-0.814 -11.243,-2.444 -5.703,-1.63 -10.51,-2.444 -14.421,-2.444 -9.342,0 -17.055,3.911 -23.138,11.732 -6.138,7.93 -9.207,18.087 -9.207,30.471 0,13.144 3.993,26.804 11.977,40.981 8.092,14.067 16.267,21.102 24.523,21.102 2.77,0 6.355,-0.924 10.754,-2.771 4.4,-1.791 8.256,-2.688 11.57,-2.688 3.53,0 7.631,0.869 12.302,2.607 4.942,1.736 8.745,2.605 11.406,2.605 6.952,0 13.932,-5.323 20.938,-15.969 4.562,-6.789 7.903,-13.578 10.021,-20.368 -4.834,-1.467 -9.124,-4.89 -12.872,-10.266 z"
   id="path5"
   inkscape:connector-curvature="0" />
	<path
   d="m 124.172,30.96 c 3.422,-3.422 5.948,-7.17 7.578,-11.243 1.574,-4.074 2.361,-7.768 2.361,-11.081 0,-0.217 -0.012,-0.489 -0.041,-0.815 -0.025,-0.326 -0.039,-0.597 -0.039,-0.814 -0.055,-0.163 -0.123,-0.462 -0.204,-0.896 -0.081,-0.434 -0.149,-0.733 -0.204,-0.896 -9.559,2.228 -16.348,6.247 -20.368,12.059 -4.073,5.866 -6.192,12.845 -6.355,20.938 3.639,-0.326 6.463,-0.787 8.473,-1.385 2.934,-0.978 5.865,-2.934 8.799,-5.867 z"
   id="path7"
   inkscape:connector-curvature="0" />
</g>
</svg>