<?xml version="1.0" encoding="UTF-8" standalone="no"?>
<!-- Generator: Adobe Illustrator 16.0.4, SVG Export Plug-In . SVG Version: 6.00 Build 0)  -->

<svg
   xmlns:dc="http://purl.org/dc/elements/1.1/"
   xmlns:cc="http://creativecommons.org/ns#"
   xmlns:rdf="http://www.w3.org/1999/02/22-rdf-syntax-ns#"
   xmlns:svg="http://www.w3.org/2000/svg"
   xmlns="http://www.w3.org/2000/svg"
   xmlns:sodipodi="http://sodipodi.sourceforge.net/DTD/sodipodi-0.dtd"
   xmlns:inkscape="http://www.inkscape.org/namespaces/inkscape"
   version="1.1"
   id="Capa_1"
   x="0px"
   y="0px"
   width="150"
   height="130"
   viewBox="0 0 150 130"
   enable-background="new 0 0 216 146"
   xml:space="preserve"
   inkscape:version="0.48.3.1 r9886"
   sodipodi:docname="icon-heart.svg"><metadata
   id="metadata9"><rdf:RDF><cc:Work
       rdf:about=""><dc:format>image/svg+xml</dc:format><dc:type
         rdf:resource="http://purl.org/dc/dcmitype/StillImage" /></cc:Work></rdf:RDF></metadata><defs
   id="defs7" /><sodipodi:namedview
   pagecolor="#ffffff"
   bordercolor="#666666"
   borderopacity="1"
   objecttolerance="10"
   gridtolerance="10"
   guidetolerance="10"
   inkscape:pageopacity="0"
   inkscape:pageshadow="2"
   inkscape:window-width="640"
   inkscape:window-height="480"
   id="namedview5"
   showgrid="false"
   inkscape:zoom="1.4305556"
   inkscape:cx="108"
   inkscape:cy="73"
   inkscape:window-x="65"
   inkscape:window-y="24"
   inkscape:window-maximized="0"
   inkscape:current-layer="Capa_1" />
<path
   d="m 126.39878,25.737632 c -5.64298,-5.494324 -13.44074,-8.240671 -23.3949,-8.240671 -2.75441,0 -5.565269,0.476349 -8.43094,1.42823 -2.866484,0.952699 -5.532544,2.238187 -7.997362,3.854837 -2.466453,1.61665 -4.586867,3.134604 -6.365331,4.55223 -1.776829,1.417628 -3.465306,2.924163 -5.064615,4.518789 -1.600128,-1.594626 -3.288606,-3.101161 -5.065434,-4.518789 -1.777646,-1.417626 -3.898878,-2.934764 -6.365332,-4.55223 -2.466454,-1.617465 -5.132514,-2.902138 -7.998181,-3.854837 -2.865668,-0.951881 -5.676525,-1.42823 -8.430936,-1.42823 -9.953348,0 -17.751104,2.747163 -23.394089,8.240671 -5.642983,5.493509 -8.464475,13.113458 -8.464475,22.859847 0,2.968208 0.52274,6.026139 1.566586,9.17053 1.043846,3.145208 2.233306,5.826301 3.565927,8.040833 1.332622,2.214532 2.84358,4.375231 4.532058,6.479648 1.688478,2.104418 2.922113,3.554672 3.699272,4.352393 0.777157,0.796905 1.388249,1.372765 1.832456,1.726764 L 72.212883,118.3736 c 0.800063,0.79854 1.777646,1.1974 2.932749,1.1974 1.155101,0 2.132684,-0.39886 2.932747,-1.19576 L 119.60151,78.501416 c 10.17505,-10.144434 15.26256,-20.112686 15.26256,-29.903937 0,-9.746389 -2.82231,-17.366338 -8.46529,-22.859847 z"
   id="path3"
   inkscape:connector-curvature="0" />
</svg>