<?xml version="1.0" encoding="UTF-8" standalone="no"?>
<!-- Generator: Adobe Illustrator 16.0.4, SVG Export Plug-In . SVG Version: 6.00 Build 0)  -->

<svg
   xmlns:dc="http://purl.org/dc/elements/1.1/"
   xmlns:cc="http://creativecommons.org/ns#"
   xmlns:rdf="http://www.w3.org/1999/02/22-rdf-syntax-ns#"
   xmlns:svg="http://www.w3.org/2000/svg"
   xmlns="http://www.w3.org/2000/svg"
   xmlns:sodipodi="http://sodipodi.sourceforge.net/DTD/sodipodi-0.dtd"
   xmlns:inkscape="http://www.inkscape.org/namespaces/inkscape"
   version="1.1"
   id="Capa_1"
   x="0px"
   y="0px"
   width="150"
   height="130"
   viewBox="0 0 150 130"
   enable-background="new 0 0 216 146"
   xml:space="preserve"
   inkscape:version="0.48.3.1 r9886"
   sodipodi:docname="icon-hostpital.svg"><metadata
   id="metadata31"><rdf:RDF><cc:Work
       rdf:about=""><dc:format>image/svg+xml</dc:format><dc:type
         rdf:resource="http://purl.org/dc/dcmitype/StillImage" /></cc:Work></rdf:RDF></metadata><defs
   id="defs29" /><sodipodi:namedview
   pagecolor="#ffffff"
   bordercolor="#666666"
   borderopacity="1"
   objecttolerance="10"
   gridtolerance="10"
   guidetolerance="10"
   inkscape:pageopacity="0"
   inkscape:pageshadow="2"
   inkscape:window-width="640"
   inkscape:window-height="480"
   id="namedview27"
   showgrid="false"
   inkscape:zoom="1.4305556"
   inkscape:cx="108"
   inkscape:cy="73"
   inkscape:window-x="65"
   inkscape:window-y="24"
   inkscape:window-maximized="0"
   inkscape:current-layer="Capa_1" />
<g
   id="g3"
   transform="matrix(0.76235106,0,0,0.76060646,-6.1397393,9.8640774)">
	<path
   d="m 163.807,32.834 c -1.031,-1.032 -2.254,-1.548 -3.666,-1.548 h -26.07 V 7.822 c 0,-2.173 -0.76,-4.021 -2.281,-5.541 C 130.27,0.761 128.421,0 126.249,0 h -36.5 C 87.577,0 85.73,0.76 84.209,2.281 82.688,3.802 81.928,5.649 81.928,7.822 V 31.286 H 55.857 c -1.413,0 -2.635,0.516 -3.667,1.548 -1.032,1.032 -1.548,2.254 -1.548,3.666 v 104.285 c 0,1.413 0.516,2.635 1.548,3.667 1.033,1.032 2.255,1.548 3.667,1.548 h 104.286 c 1.412,0 2.635,-0.516 3.666,-1.548 1.031,-1.032 1.549,-2.254 1.549,-3.667 V 36.5 c -0.001,-1.412 -0.517,-2.634 -1.551,-3.666 z M 92.359,13.035 c 0,-0.706 0.258,-1.317 0.774,-1.833 0.516,-0.516 1.127,-0.774 1.833,-0.774 h 5.214 c 0.706,0 1.317,0.258 1.833,0.774 0.516,0.516 0.774,1.127 0.774,1.833 v 7.822 h 10.428 v -7.822 c 0,-0.706 0.258,-1.317 0.773,-1.833 0.517,-0.516 1.128,-0.774 1.834,-0.774 h 5.214 c 0.707,0 1.317,0.258 1.834,0.774 0.515,0.516 0.772,1.127 0.772,1.833 v 26.072 c 0,0.706 -0.258,1.317 -0.772,1.833 -0.517,0.516 -1.127,0.774 -1.834,0.774 h -5.214 c -0.706,0 -1.318,-0.258 -1.834,-0.774 -0.514,-0.516 -0.773,-1.127 -0.773,-1.833 v -7.822 h -10.428 v 7.822 c 0,0.706 -0.258,1.317 -0.774,1.833 -0.516,0.516 -1.127,0.774 -1.833,0.774 h -5.214 c -0.706,0 -1.317,-0.258 -1.833,-0.774 -0.516,-0.516 -0.774,-1.127 -0.774,-1.833 V 13.035 z m 62.569,122.537 h -31.285 v -18.25 c 0,-0.707 -0.258,-1.318 -0.773,-1.834 -0.518,-0.516 -1.127,-0.773 -1.834,-0.773 H 94.964 c -0.706,0 -1.317,0.258 -1.833,0.773 -0.516,0.516 -0.774,1.127 -0.774,1.834 v 18.25 H 61.071 V 41.714 H 81.93 v 2.607 c 0,2.172 0.76,4.019 2.281,5.54 1.521,1.521 3.368,2.281 5.54,2.281 h 36.5 c 2.172,0 4.021,-0.76 5.54,-2.281 1.52,-1.521 2.281,-3.368 2.281,-5.54 v -2.607 h 20.855 v 93.858 z"
   id="path5"
   inkscape:connector-curvature="0" />
	<path
   d="m 79.321,104.286 h -5.214 c -0.706,0 -1.317,0.258 -1.833,0.774 -0.516,0.516 -0.774,1.127 -0.774,1.832 v 5.215 c 0,0.707 0.258,1.316 0.774,1.834 0.516,0.516 1.127,0.773 1.833,0.773 h 5.214 c 0.706,0 1.317,-0.257 1.833,-0.773 0.516,-0.518 0.774,-1.127 0.774,-1.834 v -5.215 c 0,-0.705 -0.258,-1.316 -0.774,-1.832 -0.516,-0.515 -1.127,-0.774 -1.833,-0.774 z"
   id="path7"
   inkscape:connector-curvature="0" />
	<path
   d="m 79.321,83.429 h -5.214 c -0.706,0 -1.317,0.259 -1.833,0.774 -0.516,0.515 -0.774,1.127 -0.774,1.832 v 5.215 c 0,0.707 0.258,1.316 0.774,1.834 0.516,0.515 1.127,0.773 1.833,0.773 h 5.214 c 0.706,0 1.317,-0.258 1.833,-0.773 0.516,-0.518 0.774,-1.127 0.774,-1.834 v -5.215 c 0,-0.705 -0.258,-1.317 -0.774,-1.832 -0.516,-0.515 -1.127,-0.774 -1.833,-0.774 z"
   id="path9"
   inkscape:connector-curvature="0" />
	<path
   d="m 100.179,83.429 h -5.214 c -0.706,0 -1.317,0.259 -1.833,0.774 -0.516,0.516 -0.774,1.127 -0.774,1.832 v 5.215 c 0,0.707 0.258,1.316 0.774,1.834 0.516,0.515 1.127,0.773 1.833,0.773 h 5.214 c 0.706,0 1.317,-0.258 1.833,-0.773 0.516,-0.518 0.774,-1.127 0.774,-1.834 v -5.215 c 0,-0.705 -0.259,-1.316 -0.774,-1.832 -0.516,-0.515 -1.127,-0.774 -1.833,-0.774 z"
   id="path11"
   inkscape:connector-curvature="0" />
	<path
   d="m 79.321,62.572 h -5.214 c -0.706,0 -1.317,0.258 -1.833,0.774 -0.516,0.516 -0.774,1.127 -0.774,1.833 v 5.214 c 0,0.706 0.258,1.317 0.774,1.833 C 72.79,72.742 73.401,73 74.107,73 h 5.214 c 0.706,0 1.317,-0.258 1.833,-0.774 0.516,-0.516 0.774,-1.127 0.774,-1.833 v -5.214 c 0,-0.706 -0.258,-1.317 -0.774,-1.833 -0.516,-0.516 -1.127,-0.774 -1.833,-0.774 z"
   id="path13"
   inkscape:connector-curvature="0" />
	<path
   d="m 141.893,104.286 h -5.215 c -0.705,0 -1.316,0.258 -1.832,0.774 -0.516,0.516 -0.773,1.127 -0.773,1.832 v 5.215 c 0,0.707 0.257,1.316 0.773,1.834 0.516,0.516 1.127,0.773 1.832,0.773 h 5.215 c 0.707,0 1.317,-0.257 1.834,-0.773 0.516,-0.518 0.773,-1.127 0.773,-1.834 v -5.215 c 0,-0.705 -0.258,-1.316 -0.773,-1.832 -0.517,-0.515 -1.127,-0.774 -1.834,-0.774 z"
   id="path15"
   inkscape:connector-curvature="0" />
	<path
   d="m 121.036,83.429 h -5.214 c -0.706,0 -1.318,0.259 -1.834,0.774 -0.514,0.516 -0.773,1.127 -0.773,1.832 v 5.215 c 0,0.707 0.258,1.316 0.773,1.834 0.517,0.515 1.128,0.773 1.834,0.773 h 5.214 c 0.707,0 1.317,-0.258 1.834,-0.773 0.515,-0.518 0.772,-1.127 0.772,-1.834 v -5.215 c 0,-0.705 -0.258,-1.316 -0.772,-1.832 -0.516,-0.515 -1.127,-0.774 -1.834,-0.774 z"
   id="path17"
   inkscape:connector-curvature="0" />
	<path
   d="m 100.179,62.572 h -5.214 c -0.706,0 -1.317,0.258 -1.833,0.774 -0.516,0.516 -0.774,1.127 -0.774,1.833 v 5.214 c 0,0.706 0.258,1.317 0.774,1.833 0.516,0.516 1.127,0.774 1.833,0.774 h 5.214 c 0.706,0 1.317,-0.258 1.833,-0.774 0.516,-0.516 0.774,-1.127 0.774,-1.833 v -5.214 c 0,-0.706 -0.259,-1.316 -0.774,-1.833 -0.516,-0.516 -1.127,-0.774 -1.833,-0.774 z"
   id="path19"
   inkscape:connector-curvature="0" />
	<path
   d="m 141.893,83.429 h -5.215 c -0.705,0 -1.316,0.259 -1.832,0.774 -0.516,0.515 -0.773,1.127 -0.773,1.832 v 5.215 c 0,0.707 0.257,1.316 0.773,1.834 0.516,0.515 1.127,0.773 1.832,0.773 h 5.215 c 0.707,0 1.317,-0.258 1.834,-0.773 0.516,-0.518 0.773,-1.127 0.773,-1.834 v -5.215 c 0,-0.705 -0.258,-1.316 -0.773,-1.832 -0.517,-0.515 -1.127,-0.774 -1.834,-0.774 z"
   id="path21"
   inkscape:connector-curvature="0" />
	<path
   d="m 121.036,62.572 h -5.214 c -0.706,0 -1.318,0.258 -1.834,0.774 -0.514,0.516 -0.773,1.127 -0.773,1.833 v 5.214 c 0,0.706 0.258,1.317 0.773,1.833 0.517,0.516 1.128,0.774 1.834,0.774 h 5.214 c 0.707,0 1.317,-0.258 1.834,-0.774 0.515,-0.516 0.772,-1.127 0.772,-1.833 v -5.214 c 0,-0.706 -0.258,-1.316 -0.772,-1.833 -0.516,-0.516 -1.127,-0.774 -1.834,-0.774 z"
   id="path23"
   inkscape:connector-curvature="0" />
	<path
   d="m 134.072,70.393 c 0,0.706 0.257,1.317 0.773,1.833 0.516,0.516 1.127,0.774 1.832,0.774 h 5.215 c 0.707,0 1.317,-0.258 1.834,-0.774 0.516,-0.516 0.773,-1.127 0.773,-1.833 v -5.214 c 0,-0.706 -0.258,-1.316 -0.773,-1.833 -0.517,-0.516 -1.127,-0.774 -1.834,-0.774 h -5.215 c -0.705,0 -1.316,0.258 -1.832,0.774 -0.516,0.516 -0.773,1.127 -0.773,1.833 v 5.214 z"
   id="path25"
   inkscape:connector-curvature="0" />
</g>
</svg>