<?xml version="1.0" encoding="UTF-8" standalone="no"?>
<!-- Generator: Adobe Illustrator 16.0.4, SVG Export Plug-In . SVG Version: 6.00 Build 0)  -->

<svg
   xmlns:dc="http://purl.org/dc/elements/1.1/"
   xmlns:cc="http://creativecommons.org/ns#"
   xmlns:rdf="http://www.w3.org/1999/02/22-rdf-syntax-ns#"
   xmlns:svg="http://www.w3.org/2000/svg"
   xmlns="http://www.w3.org/2000/svg"
   xmlns:sodipodi="http://sodipodi.sourceforge.net/DTD/sodipodi-0.dtd"
   xmlns:inkscape="http://www.inkscape.org/namespaces/inkscape"
   version="1.1"
   id="Capa_1"
   x="0px"
   y="0px"
   width="150"
   height="130"
   viewBox="0 0 150 130"
   enable-background="new 0 0 216 146"
   xml:space="preserve"
   inkscape:version="0.48.3.1 r9886"
   sodipodi:docname="icon-pencil.svg"><metadata
   id="metadata13"><rdf:RDF><cc:Work
       rdf:about=""><dc:format>image/svg+xml</dc:format><dc:type
         rdf:resource="http://purl.org/dc/dcmitype/StillImage" /></cc:Work></rdf:RDF></metadata><defs
   id="defs11" /><sodipodi:namedview
   pagecolor="#ffffff"
   bordercolor="#666666"
   borderopacity="1"
   objecttolerance="10"
   gridtolerance="10"
   guidetolerance="10"
   inkscape:pageopacity="0"
   inkscape:pageshadow="2"
   inkscape:window-width="640"
   inkscape:window-height="480"
   id="namedview9"
   showgrid="false"
   inkscape:zoom="1.4305556"
   inkscape:cx="108"
   inkscape:cy="73"
   inkscape:window-x="65"
   inkscape:window-y="24"
   inkscape:window-maximized="0"
   inkscape:current-layer="Capa_1" />
<g
   id="g3"
   transform="matrix(0.76214446,0,0,0.80745027,-8.5639096,7.1434115)">
	<path
   d="m 46.284,100.823 v 33.893 H 80.177 L 147.963,66.93 114.07,33.037 46.284,100.823 z m 29.575,23.464 0,0 -8.718,10e-4 V 113.859 H 56.713 v -8.719 l 7.414,-7.414 19.146,19.146 -7.414,7.415 z m 40.819,-77.399 c 1.194,0 1.791,0.598 1.791,1.792 0,0.544 -0.189,1.005 -0.57,1.386 L 73.74,94.225 c -0.38,0.379 -0.842,0.569 -1.385,0.569 -1.194,0 -1.792,-0.599 -1.792,-1.792 0,-0.544 0.19,-1.005 0.57,-1.386 l 44.159,-44.158 c 0.38,-0.38 0.842,-0.57 1.386,-0.57 z"
   id="path5"
   inkscape:connector-curvature="0" />
	<path
   d="M 166.701,33.443 147.555,14.379 c -2.063,-2.063 -4.535,-3.096 -7.414,-3.096 -2.934,0 -5.377,1.033 -7.332,3.096 l -13.524,13.443 33.893,33.893 13.525,-13.524 c 2.01,-2.01 3.014,-4.454 3.014,-7.333 -0.001,-2.824 -1.005,-5.296 -3.016,-7.415 z"
   id="path7"
   inkscape:connector-curvature="0" />
</g>
</svg>