<?xml version="1.0" encoding="UTF-8" standalone="no"?>
<!-- Generator: Adobe Illustrator 16.0.4, SVG Export Plug-In . SVG Version: 6.00 Build 0)  -->

<svg
   xmlns:dc="http://purl.org/dc/elements/1.1/"
   xmlns:cc="http://creativecommons.org/ns#"
   xmlns:rdf="http://www.w3.org/1999/02/22-rdf-syntax-ns#"
   xmlns:svg="http://www.w3.org/2000/svg"
   xmlns="http://www.w3.org/2000/svg"
   xmlns:sodipodi="http://sodipodi.sourceforge.net/DTD/sodipodi-0.dtd"
   xmlns:inkscape="http://www.inkscape.org/namespaces/inkscape"
   version="1.1"
   id="Capa_1"
   x="0px"
   y="0px"
   width="150"
   height="130"
   viewBox="0 0 150 130"
   enable-background="new 0 0 216 146"
   xml:space="preserve"
   inkscape:version="0.48.3.1 r9886"
   sodipodi:docname="icon-fire.svg"><metadata
   id="metadata13"><rdf:RDF><cc:Work
       rdf:about=""><dc:format>image/svg+xml</dc:format><dc:type
         rdf:resource="http://purl.org/dc/dcmitype/StillImage" /></cc:Work></rdf:RDF></metadata><defs
   id="defs11" /><sodipodi:namedview
   pagecolor="#ffffff"
   bordercolor="#666666"
   borderopacity="1"
   objecttolerance="10"
   gridtolerance="10"
   guidetolerance="10"
   inkscape:pageopacity="0"
   inkscape:pageshadow="2"
   inkscape:window-width="640"
   inkscape:window-height="480"
   id="namedview9"
   showgrid="false"
   inkscape:zoom="1.4305556"
   inkscape:cx="108"
   inkscape:cy="73"
   inkscape:window-x="65"
   inkscape:window-y="24"
   inkscape:window-maximized="0"
   inkscape:current-layer="Capa_1" />
<g
   id="g3"
   transform="matrix(0.68922289,0,0,0.77975493,1.0590733,8.4664596)">
	<path
   d="m 79.646,100.253 c 2.444,3.502 5.527,6.83 9.247,9.979 3.721,3.15 7.481,5.865 11.284,8.147 3.803,2.282 8.148,4.535 13.036,6.763 l -0.081,-0.082 0.326,0.082 c -3.64,-6.953 -5.459,-13.035 -5.459,-18.25 0,-2.77 0.666,-5.391 1.997,-7.861 1.33,-2.473 3.068,-4.687 5.214,-6.641 2.146,-1.955 4.522,-3.91 7.129,-5.865 2.606,-1.956 5.213,-4.061 7.821,-6.314 2.607,-2.254 4.984,-4.645 7.129,-7.17 2.146,-2.526 3.884,-5.581 5.215,-9.166 1.33,-3.585 1.996,-7.496 1.996,-11.732 0,-5.323 -0.747,-10.32 -2.24,-14.991 -1.494,-4.671 -3.463,-8.759 -5.906,-12.262 -2.444,-3.503 -5.526,-6.83 -9.248,-9.979 -3.721,-3.15 -7.481,-5.866 -11.283,-8.147 -3.803,-2.281 -8.148,-4.535 -13.036,-6.762 l 0.081,0.082 -0.244,-0.082 c 3.584,7.06 5.376,13.144 5.376,18.249 0,2.77 -0.665,5.391 -1.996,7.862 -1.331,2.471 -3.069,4.684 -5.214,6.64 -2.146,1.955 -4.522,3.91 -7.129,5.866 -2.608,1.955 -5.215,4.06 -7.822,6.314 -2.607,2.254 -4.983,4.644 -7.129,7.169 -2.145,2.526 -3.883,5.581 -5.214,9.166 C 72.166,64.853 71.5,68.764 71.5,73 c 0,5.323 0.745,10.32 2.239,14.991 1.494,4.671 3.463,8.76 5.907,12.262 z"
   id="path5"
   inkscape:connector-curvature="0" />
	<path
   d="m 164.583,136.346 c -0.517,-0.515 -1.127,-0.772 -1.833,-0.772 H 53.25 c -0.706,0 -1.317,0.257 -1.833,0.772 -0.516,0.515 -0.774,1.127 -0.774,1.833 v 5.214 c 0,0.707 0.258,1.317 0.774,1.834 0.516,0.516 1.127,0.773 1.833,0.773 h 109.5 c 0.706,0 1.316,-0.257 1.833,-0.773 0.515,-0.517 0.774,-1.127 0.774,-1.834 v -5.214 c 0,-0.706 -0.257,-1.318 -0.774,-1.833 z"
   id="path7"
   inkscape:connector-curvature="0" />
</g>
</svg>