<?xml version="1.0" encoding="UTF-8" standalone="no"?>
<!-- Generator: Adobe Illustrator 16.0.4, SVG Export Plug-In . SVG Version: 6.00 Build 0)  -->

<svg
   xmlns:dc="http://purl.org/dc/elements/1.1/"
   xmlns:cc="http://creativecommons.org/ns#"
   xmlns:rdf="http://www.w3.org/1999/02/22-rdf-syntax-ns#"
   xmlns:svg="http://www.w3.org/2000/svg"
   xmlns="http://www.w3.org/2000/svg"
   xmlns:sodipodi="http://sodipodi.sourceforge.net/DTD/sodipodi-0.dtd"
   xmlns:inkscape="http://www.inkscape.org/namespaces/inkscape"
   version="1.1"
   id="Capa_1"
   x="0px"
   y="0px"
   width="150"
   height="130"
   viewBox="0 0 150 130"
   enable-background="new 0 0 216 146"
   xml:space="preserve"
   inkscape:version="0.48.3.1 r9886"
   sodipodi:docname="icon-android.svg"><metadata
   id="metadata17"><rdf:RDF><cc:Work
       rdf:about=""><dc:format>image/svg+xml</dc:format><dc:type
         rdf:resource="http://purl.org/dc/dcmitype/StillImage" /></cc:Work></rdf:RDF></metadata><defs
   id="defs15" /><sodipodi:namedview
   pagecolor="#ffffff"
   bordercolor="#666666"
   borderopacity="1"
   objecttolerance="10"
   gridtolerance="10"
   guidetolerance="10"
   inkscape:pageopacity="0"
   inkscape:pageshadow="2"
   inkscape:window-width="640"
   inkscape:window-height="480"
   id="namedview13"
   showgrid="false"
   inkscape:zoom="1.4305556"
   inkscape:cx="108"
   inkscape:cy="73"
   inkscape:window-x="65"
   inkscape:window-y="24"
   inkscape:window-maximized="0"
   inkscape:current-layer="Capa_1" />
<g
   id="g3"
   transform="matrix(0.77453623,0,0,0.81437325,-9.5529369,5.9389164)">
	<path
   d="m 59.034,49.128 c -2.335,0 -4.319,0.814 -5.948,2.444 -1.629,1.63 -2.444,3.585 -2.444,5.866 v 35.035 c 0,2.334 0.815,4.316 2.444,5.946 1.629,1.63 3.612,2.444 5.947,2.444 2.336,0 4.305,-0.814 5.907,-2.444 1.603,-1.63 2.404,-3.612 2.404,-5.946 V 57.438 c 0,-2.282 -0.815,-4.237 -2.444,-5.866 -1.629,-1.629 -3.585,-2.444 -5.866,-2.444 z"
   id="path5"
   inkscape:connector-curvature="0" />
	<path
   d="m 70.605,104.938 c 0,2.498 0.869,4.616 2.607,6.354 1.738,1.737 3.856,2.606 6.355,2.606 h 6.029 l 0.082,18.494 c 0,2.336 0.815,4.317 2.444,5.947 1.629,1.63 3.585,2.444 5.866,2.444 2.336,0 4.318,-0.814 5.948,-2.444 1.63,-1.63 2.444,-3.611 2.444,-5.947 v -18.494 h 11.243 v 18.494 c 0,2.336 0.814,4.317 2.443,5.947 1.631,1.63 3.613,2.444 5.949,2.444 2.334,0 4.316,-0.814 5.946,-2.444 1.629,-1.63 2.442,-3.611 2.442,-5.947 v -18.494 h 6.111 c 2.443,0 4.535,-0.868 6.273,-2.606 1.738,-1.738 2.607,-3.856 2.607,-6.354 V 50.676 H 70.605 v 54.262 z"
   id="path7"
   inkscape:connector-curvature="0" />
	<path
   d="m 126.494,17.68 5.783,-10.673 c 0.381,-0.706 0.244,-1.249 -0.407,-1.629 -0.706,-0.326 -1.249,-0.163 -1.629,0.489 l -5.866,10.754 c -5.16,-2.281 -10.618,-3.422 -16.376,-3.422 -5.757,0 -11.216,1.141 -16.376,3.422 L 85.757,5.867 C 85.378,5.215 84.834,5.052 84.128,5.378 83.476,5.758 83.341,6.301 83.721,7.007 l 5.785,10.673 c -5.867,2.987 -10.537,7.156 -14.014,12.506 -3.476,5.35 -5.214,11.203 -5.214,17.557 h 75.363 c 0,-6.354 -1.738,-12.207 -5.215,-17.557 -3.477,-5.35 -8.119,-9.519 -13.932,-12.506 z M 93.049,33.2 c -0.624,0.625 -1.371,0.937 -2.24,0.937 -0.869,0 -1.602,-0.312 -2.2,-0.937 -0.597,-0.624 -0.896,-1.371 -0.896,-2.24 0,-0.869 0.299,-1.616 0.896,-2.241 0.597,-0.625 1.331,-0.937 2.2,-0.937 0.868,0 1.615,0.312 2.24,0.937 0.625,0.625 0.937,1.372 0.937,2.241 0,0.869 -0.312,1.615 -0.937,2.24 z m 34.342,0 c -0.598,0.625 -1.332,0.937 -2.201,0.937 -0.869,0 -1.615,-0.312 -2.239,-0.937 -0.625,-0.624 -0.937,-1.371 -0.937,-2.24 0,-0.869 0.312,-1.616 0.937,-2.241 0.624,-0.625 1.37,-0.937 2.239,-0.937 0.869,0 1.603,0.312 2.201,0.937 0.596,0.625 0.896,1.372 0.896,2.241 0,0.869 -0.299,1.615 -0.896,2.24 z"
   id="path9"
   inkscape:connector-curvature="0" />
	<path
   d="m 162.912,51.531 c -1.629,-1.602 -3.611,-2.403 -5.947,-2.403 -2.281,0 -4.236,0.801 -5.865,2.403 -1.63,1.603 -2.445,3.572 -2.445,5.907 v 35.035 c 0,2.334 0.815,4.316 2.445,5.946 1.629,1.63 3.584,2.444 5.865,2.444 2.336,0 4.318,-0.814 5.947,-2.444 1.63,-1.63 2.445,-3.612 2.445,-5.946 V 57.438 c 0,-2.335 -0.815,-4.304 -2.445,-5.907 z"
   id="path11"
   inkscape:connector-curvature="0" />
</g>
</svg>