<?xml version="1.0" encoding="UTF-8" standalone="no"?>
<!-- Generator: Adobe Illustrator 16.0.4, SVG Export Plug-In . SVG Version: 6.00 Build 0)  -->

<svg
   xmlns:dc="http://purl.org/dc/elements/1.1/"
   xmlns:cc="http://creativecommons.org/ns#"
   xmlns:rdf="http://www.w3.org/1999/02/22-rdf-syntax-ns#"
   xmlns:svg="http://www.w3.org/2000/svg"
   xmlns="http://www.w3.org/2000/svg"
   xmlns:sodipodi="http://sodipodi.sourceforge.net/DTD/sodipodi-0.dtd"
   xmlns:inkscape="http://www.inkscape.org/namespaces/inkscape"
   version="1.1"
   id="Capa_1"
   x="0px"
   y="0px"
   width="150"
   height="130"
   viewBox="0 0 150 130"
   enable-background="new 0 0 216 146"
   xml:space="preserve"
   inkscape:version="0.48.3.1 r9886"
   sodipodi:docname="icon-building.svg"><metadata
   id="metadata47"><rdf:RDF><cc:Work
       rdf:about=""><dc:format>image/svg+xml</dc:format><dc:type
         rdf:resource="http://purl.org/dc/dcmitype/StillImage" /></cc:Work></rdf:RDF></metadata><defs
   id="defs45" /><sodipodi:namedview
   pagecolor="#ffffff"
   bordercolor="#666666"
   borderopacity="1"
   objecttolerance="10"
   gridtolerance="10"
   guidetolerance="10"
   inkscape:pageopacity="0"
   inkscape:pageshadow="2"
   inkscape:window-width="640"
   inkscape:window-height="480"
   id="namedview43"
   showgrid="false"
   inkscape:zoom="1.4305556"
   inkscape:cx="108"
   inkscape:cy="73"
   inkscape:window-x="65"
   inkscape:window-y="24"
   inkscape:window-maximized="0"
   inkscape:current-layer="Capa_1" />
<g
   id="g3"
   transform="matrix(0.70141543,0,0,0.77497008,1.1403375,11.262136)">
	<path
   d="M 163.809,1.548 C 162.777,0.516 161.555,0 160.143,0 H 55.857 C 54.444,0 53.222,0.516 52.19,1.548 51.158,2.58 50.642,3.802 50.642,5.214 v 135.571 c 0,1.413 0.516,2.635 1.548,3.667 1.033,1.032 2.255,1.548 3.667,1.548 h 104.286 c 1.412,0 2.635,-0.516 3.666,-1.548 1.031,-1.032 1.549,-2.254 1.549,-3.667 V 5.214 C 165.357,3.802 164.841,2.58 163.809,1.548 z m -8.881,134.024 h -31.285 v -18.25 c 0,-0.707 -0.258,-1.318 -0.773,-1.834 -0.518,-0.516 -1.127,-0.773 -1.834,-0.773 H 94.964 c -0.706,0 -1.317,0.258 -1.833,0.773 -0.516,0.516 -0.774,1.127 -0.774,1.834 v 18.25 H 61.071 V 10.428 h 93.857 v 125.144 z"
   id="path5"
   inkscape:connector-curvature="0" />
	<path
   d="m 74.107,114.715 h 5.214 c 0.706,0 1.317,-0.257 1.833,-0.773 0.516,-0.518 0.774,-1.127 0.774,-1.834 v -5.215 c 0,-0.705 -0.258,-1.316 -0.774,-1.832 -0.516,-0.516 -1.127,-0.774 -1.833,-0.774 h -5.214 c -0.706,0 -1.317,0.258 -1.833,0.774 -0.516,0.516 -0.774,1.127 -0.774,1.832 v 5.215 c 0,0.707 0.258,1.316 0.774,1.834 0.516,0.515 1.127,0.773 1.833,0.773 z"
   id="path7"
   inkscape:connector-curvature="0" />
	<path
   d="m 74.107,93.857 h 5.214 c 0.706,0 1.317,-0.258 1.833,-0.773 0.516,-0.518 0.774,-1.127 0.774,-1.834 v -5.215 c 0,-0.705 -0.258,-1.317 -0.774,-1.832 -0.516,-0.516 -1.127,-0.774 -1.833,-0.774 h -5.214 c -0.706,0 -1.317,0.259 -1.833,0.774 -0.516,0.515 -0.774,1.127 -0.774,1.832 v 5.215 c 0,0.707 0.258,1.316 0.774,1.834 0.516,0.515 1.127,0.773 1.833,0.773 z"
   id="path9"
   inkscape:connector-curvature="0" />
	<path
   d="m 94.965,93.857 h 5.214 c 0.706,0 1.317,-0.258 1.833,-0.773 0.516,-0.518 0.774,-1.127 0.774,-1.834 v -5.215 c 0,-0.705 -0.259,-1.316 -0.774,-1.832 -0.516,-0.516 -1.127,-0.774 -1.833,-0.774 h -5.214 c -0.706,0 -1.317,0.259 -1.833,0.774 -0.516,0.516 -0.774,1.127 -0.774,1.832 v 5.215 c 0,0.707 0.258,1.316 0.774,1.834 0.516,0.515 1.127,0.773 1.833,0.773 z"
   id="path11"
   inkscape:connector-curvature="0" />
	<path
   d="m 74.107,73 h 5.214 c 0.706,0 1.317,-0.258 1.833,-0.774 0.516,-0.516 0.774,-1.127 0.774,-1.833 v -5.214 c 0,-0.706 -0.258,-1.317 -0.774,-1.833 -0.516,-0.516 -1.127,-0.774 -1.833,-0.774 h -5.214 c -0.706,0 -1.317,0.258 -1.833,0.774 -0.516,0.516 -0.774,1.127 -0.774,1.833 v 5.214 c 0,0.706 0.258,1.317 0.774,1.833 C 72.79,72.742 73.401,73 74.107,73 z"
   id="path13"
   inkscape:connector-curvature="0" />
	<path
   d="m 136.678,114.715 h 5.215 c 0.707,0 1.317,-0.257 1.834,-0.773 0.516,-0.518 0.773,-1.127 0.773,-1.834 v -5.215 c 0,-0.705 -0.258,-1.316 -0.773,-1.832 -0.517,-0.516 -1.127,-0.774 -1.834,-0.774 h -5.215 c -0.705,0 -1.316,0.258 -1.832,0.774 -0.516,0.516 -0.773,1.127 -0.773,1.832 v 5.215 c 0,0.707 0.257,1.316 0.773,1.834 0.515,0.515 1.127,0.773 1.832,0.773 z"
   id="path15"
   inkscape:connector-curvature="0" />
	<path
   d="m 115.822,93.857 h 5.214 c 0.707,0 1.317,-0.258 1.834,-0.773 0.515,-0.518 0.772,-1.127 0.772,-1.834 v -5.215 c 0,-0.705 -0.258,-1.316 -0.772,-1.832 -0.517,-0.516 -1.127,-0.774 -1.834,-0.774 h -5.214 c -0.706,0 -1.318,0.259 -1.834,0.774 -0.514,0.516 -0.773,1.127 -0.773,1.832 v 5.215 c 0,0.707 0.258,1.316 0.773,1.834 0.517,0.515 1.128,0.773 1.834,0.773 z"
   id="path17"
   inkscape:connector-curvature="0" />
	<path
   d="m 94.965,73 h 5.214 c 0.706,0 1.317,-0.258 1.833,-0.774 0.516,-0.516 0.774,-1.127 0.774,-1.833 v -5.214 c 0,-0.706 -0.259,-1.316 -0.774,-1.833 -0.516,-0.516 -1.127,-0.774 -1.833,-0.774 h -5.214 c -0.706,0 -1.317,0.258 -1.833,0.774 -0.516,0.516 -0.774,1.127 -0.774,1.833 v 5.214 c 0,0.706 0.258,1.317 0.774,1.833 0.516,0.516 1.127,0.774 1.833,0.774 z"
   id="path19"
   inkscape:connector-curvature="0" />
	<path
   d="m 74.107,52.143 h 5.214 c 0.706,0 1.317,-0.258 1.833,-0.774 0.516,-0.516 0.774,-1.126 0.774,-1.833 v -5.214 c 0,-0.706 -0.258,-1.318 -0.774,-1.833 -0.516,-0.516 -1.127,-0.774 -1.833,-0.774 h -5.214 c -0.706,0 -1.317,0.258 -1.833,0.774 -0.516,0.516 -0.774,1.127 -0.774,1.833 v 5.214 c 0,0.706 0.258,1.317 0.774,1.833 0.516,0.516 1.127,0.774 1.833,0.774 z"
   id="path21"
   inkscape:connector-curvature="0" />
	<path
   d="m 136.678,93.857 h 5.215 c 0.707,0 1.317,-0.258 1.834,-0.773 0.516,-0.518 0.773,-1.127 0.773,-1.834 v -5.215 c 0,-0.705 -0.258,-1.316 -0.773,-1.832 -0.517,-0.516 -1.127,-0.774 -1.834,-0.774 h -5.215 c -0.705,0 -1.316,0.259 -1.832,0.774 -0.516,0.515 -0.773,1.127 -0.773,1.832 v 5.215 c 0,0.707 0.257,1.316 0.773,1.834 0.515,0.515 1.127,0.773 1.832,0.773 z"
   id="path23"
   inkscape:connector-curvature="0" />
	<path
   d="m 115.822,73 h 5.214 c 0.707,0 1.317,-0.258 1.834,-0.774 0.515,-0.516 0.772,-1.127 0.772,-1.833 v -5.214 c 0,-0.706 -0.258,-1.316 -0.772,-1.833 -0.517,-0.516 -1.127,-0.774 -1.834,-0.774 h -5.214 c -0.706,0 -1.318,0.258 -1.834,0.774 -0.514,0.516 -0.773,1.127 -0.773,1.833 v 5.214 c 0,0.706 0.258,1.317 0.773,1.833 0.517,0.516 1.128,0.774 1.834,0.774 z"
   id="path25"
   inkscape:connector-curvature="0" />
	<path
   d="m 94.965,52.143 h 5.214 c 0.706,0 1.317,-0.258 1.833,-0.774 0.516,-0.516 0.774,-1.126 0.774,-1.833 v -5.214 c 0,-0.706 -0.259,-1.318 -0.774,-1.833 -0.516,-0.516 -1.127,-0.774 -1.833,-0.774 h -5.214 c -0.706,0 -1.317,0.258 -1.833,0.774 -0.516,0.516 -0.774,1.127 -0.774,1.833 v 5.214 c 0,0.706 0.258,1.317 0.774,1.833 0.516,0.516 1.127,0.774 1.833,0.774 z"
   id="path27"
   inkscape:connector-curvature="0" />
	<path
   d="m 74.107,31.285 h 5.214 c 0.706,0 1.317,-0.258 1.833,-0.774 0.516,-0.516 0.774,-1.127 0.774,-1.833 v -5.214 c 0,-0.706 -0.258,-1.317 -0.774,-1.833 -0.516,-0.516 -1.127,-0.774 -1.833,-0.774 h -5.214 c -0.706,0 -1.317,0.258 -1.833,0.774 -0.516,0.516 -0.774,1.127 -0.774,1.833 v 5.214 c 0,0.706 0.258,1.317 0.774,1.833 0.516,0.516 1.127,0.774 1.833,0.774 z"
   id="path29"
   inkscape:connector-curvature="0" />
	<path
   d="m 136.678,73 h 5.215 c 0.707,0 1.317,-0.258 1.834,-0.774 0.516,-0.516 0.773,-1.127 0.773,-1.833 v -5.214 c 0,-0.706 -0.258,-1.316 -0.773,-1.833 -0.517,-0.516 -1.127,-0.774 -1.834,-0.774 h -5.215 c -0.705,0 -1.316,0.258 -1.832,0.774 -0.516,0.516 -0.773,1.127 -0.773,1.833 v 5.214 c 0,0.706 0.257,1.317 0.773,1.833 0.515,0.516 1.127,0.774 1.832,0.774 z"
   id="path31"
   inkscape:connector-curvature="0" />
	<path
   d="m 115.822,52.143 h 5.214 c 0.707,0 1.317,-0.258 1.834,-0.774 0.515,-0.516 0.772,-1.126 0.772,-1.833 v -5.214 c 0,-0.706 -0.258,-1.318 -0.772,-1.833 -0.517,-0.516 -1.127,-0.774 -1.834,-0.774 h -5.214 c -0.706,0 -1.317,0.258 -1.834,0.774 -0.514,0.516 -0.773,1.127 -0.773,1.833 v 5.214 c 0,0.706 0.258,1.317 0.773,1.833 0.517,0.516 1.128,0.774 1.834,0.774 z"
   id="path33"
   inkscape:connector-curvature="0" />
	<path
   d="m 94.965,31.285 h 5.214 c 0.706,0 1.317,-0.258 1.833,-0.774 0.516,-0.516 0.774,-1.127 0.774,-1.833 v -5.214 c 0,-0.706 -0.259,-1.317 -0.774,-1.833 -0.516,-0.516 -1.127,-0.774 -1.833,-0.774 h -5.214 c -0.706,0 -1.317,0.258 -1.833,0.774 -0.516,0.516 -0.774,1.127 -0.774,1.833 v 5.214 c 0,0.706 0.258,1.317 0.774,1.833 0.516,0.516 1.127,0.774 1.833,0.774 z"
   id="path35"
   inkscape:connector-curvature="0" />
	<path
   d="m 136.678,52.143 h 5.215 c 0.707,0 1.317,-0.258 1.834,-0.774 0.516,-0.516 0.773,-1.126 0.773,-1.833 v -5.214 c 0,-0.706 -0.258,-1.318 -0.773,-1.833 -0.517,-0.516 -1.127,-0.774 -1.834,-0.774 h -5.215 c -0.705,0 -1.316,0.258 -1.832,0.774 -0.516,0.516 -0.773,1.127 -0.773,1.833 v 5.214 c 0,0.706 0.257,1.317 0.773,1.833 0.515,0.516 1.127,0.774 1.832,0.774 z"
   id="path37"
   inkscape:connector-curvature="0" />
	<path
   d="m 115.822,31.285 h 5.214 c 0.707,0 1.317,-0.258 1.834,-0.774 0.515,-0.516 0.772,-1.127 0.772,-1.833 v -5.214 c 0,-0.706 -0.258,-1.317 -0.772,-1.833 -0.517,-0.516 -1.127,-0.774 -1.834,-0.774 h -5.214 c -0.706,0 -1.318,0.258 -1.834,0.774 -0.514,0.516 -0.773,1.127 -0.773,1.833 v 5.214 c 0,0.706 0.258,1.317 0.773,1.833 0.517,0.516 1.128,0.774 1.834,0.774 z"
   id="path39"
   inkscape:connector-curvature="0" />
	<path
   d="m 136.678,31.285 h 5.215 c 0.707,0 1.317,-0.258 1.834,-0.774 0.516,-0.516 0.773,-1.127 0.773,-1.833 v -5.214 c 0,-0.706 -0.258,-1.317 -0.773,-1.833 -0.517,-0.516 -1.127,-0.774 -1.834,-0.774 h -5.215 c -0.705,0 -1.316,0.258 -1.832,0.774 -0.516,0.516 -0.773,1.127 -0.773,1.833 v 5.214 c 0,0.706 0.257,1.317 0.773,1.833 0.515,0.516 1.127,0.774 1.832,0.774 z"
   id="path41"
   inkscape:connector-curvature="0" />
</g>
</svg>