<?xml version="1.0" encoding="UTF-8" standalone="no"?>
<!-- Generator: Adobe Illustrator 16.0.4, SVG Export Plug-In . SVG Version: 6.00 Build 0)  -->

<svg
   xmlns:dc="http://purl.org/dc/elements/1.1/"
   xmlns:cc="http://creativecommons.org/ns#"
   xmlns:rdf="http://www.w3.org/1999/02/22-rdf-syntax-ns#"
   xmlns:svg="http://www.w3.org/2000/svg"
   xmlns="http://www.w3.org/2000/svg"
   xmlns:sodipodi="http://sodipodi.sourceforge.net/DTD/sodipodi-0.dtd"
   xmlns:inkscape="http://www.inkscape.org/namespaces/inkscape"
   version="1.1"
   id="Capa_1"
   x="0px"
   y="0px"
   width="150"
   height="130"
   viewBox="0 0 150 130"
   enable-background="new 0 0 216 146"
   xml:space="preserve"
   inkscape:version="0.48.3.1 r9886"
   sodipodi:docname="icon-sitemap.svg"><metadata
   id="metadata9"><rdf:RDF><cc:Work
       rdf:about=""><dc:format>image/svg+xml</dc:format><dc:type
         rdf:resource="http://purl.org/dc/dcmitype/StillImage" /></cc:Work></rdf:RDF></metadata><defs
   id="defs7" /><sodipodi:namedview
   pagecolor="#ffffff"
   bordercolor="#666666"
   borderopacity="1"
   objecttolerance="10"
   gridtolerance="10"
   guidetolerance="10"
   inkscape:pageopacity="0"
   inkscape:pageshadow="2"
   inkscape:window-width="640"
   inkscape:window-height="480"
   id="namedview5"
   showgrid="false"
   inkscape:zoom="1.4305556"
   inkscape:cx="108"
   inkscape:cy="73"
   inkscape:window-x="65"
   inkscape:window-y="24"
   inkscape:window-maximized="0"
   inkscape:current-layer="Capa_1" />
<path
   d="m 126.22765,84.717093 c -1.09862,-1.155667 -2.43199,-1.73312 -4.00228,-1.73312 h -5.64841 V 71.097555 c 0,-2.145695 -0.74614,-4.003422 -2.23626,-5.570904 -1.49083,-1.569001 -3.25759,-2.353122 -5.29737,-2.353122 H 78.913164 V 51.287871 h 5.648413 c 1.570288,0 2.904382,-0.577453 4.002284,-1.733119 1.098623,-1.154907 1.646852,-2.55827 1.646852,-4.20933 V 25.536497 c 0,-1.65106 -0.548951,-3.054423 -1.646852,-4.209329 -1.098624,-1.155667 -2.431996,-1.73312 -4.002284,-1.73312 H 65.730405 c -1.569565,0 -2.902937,0.577453 -4.001561,1.73312 -1.098624,1.154906 -1.647574,2.558269 -1.647574,4.209329 v 19.808925 c 0,1.65106 0.54895,3.053663 1.647574,4.20933 1.097901,1.155666 2.431996,1.733119 4.001561,1.733119 h 5.649136 V 63.173529 H 41.249373 c -2.040508,0 -3.805817,0.784881 -5.296652,2.353122 -1.490834,1.567482 -2.236251,3.425209 -2.236251,5.570904 v 11.886418 h -5.649858 c -1.568844,0 -2.902938,0.578213 -4.001562,1.73312 -1.098623,1.154906 -1.647574,2.558269 -1.647574,4.209329 v 19.808918 c 0,1.65106 0.548951,3.05442 1.647574,4.20933 1.098624,1.15567 2.432718,1.73312 4.001562,1.73312 h 18.831896 c 1.568844,0 2.902938,-0.57821 4.001562,-1.73312 1.098623,-1.15491 1.647574,-2.55827 1.647574,-4.20933 V 88.926422 c 0,-1.65106 -0.548951,-3.053663 -1.647574,-4.209329 -1.098624,-1.155667 -2.432718,-1.73312 -4.001562,-1.73312 H 41.248651 V 71.097555 h 30.130168 v 11.886418 h -5.649136 c -1.569565,0 -2.902938,0.578213 -4.001561,1.73312 -1.098624,1.154906 -1.647575,2.558269 -1.647575,4.209329 v 19.808918 c 0,1.65106 0.548951,3.05442 1.647575,4.20933 1.097901,1.15567 2.431996,1.73312 4.001561,1.73312 h 18.831172 c 1.570287,0 2.90366,-0.57821 4.002283,-1.73312 1.097902,-1.15567 1.647575,-2.55827 1.647575,-4.20933 V 88.926422 c 0,-1.65106 -0.548951,-3.053663 -1.647575,-4.209329 -1.098623,-1.155667 -2.431996,-1.73312 -4.002283,-1.73312 H 78.912441 V 71.097555 h 30.130889 v 11.886418 h -5.64986 c -1.56884,0 -2.90366,0.578213 -4.002278,1.73312 -1.097903,1.155666 -1.646854,2.558269 -1.646854,4.209329 v 19.808918 c 0,1.65106 0.548951,3.05442 1.646854,4.20933 1.098618,1.15567 2.433438,1.73312 4.002278,1.73312 h 18.8319 c 1.56884,0 2.90221,-0.57821 4.00084,-1.73312 1.09862,-1.15491 1.64757,-2.55827 1.64757,-4.20933 V 88.926422 c 0,-1.65106 -0.54895,-3.054423 -1.64613,-4.209329 z"
   id="path3"
   inkscape:connector-curvature="0" />
</svg>