<?xml version="1.0" encoding="UTF-8" standalone="no"?>
<!-- Generator: Adobe Illustrator 16.0.4, SVG Export Plug-In . SVG Version: 6.00 Build 0)  -->

<svg
   xmlns:dc="http://purl.org/dc/elements/1.1/"
   xmlns:cc="http://creativecommons.org/ns#"
   xmlns:rdf="http://www.w3.org/1999/02/22-rdf-syntax-ns#"
   xmlns:svg="http://www.w3.org/2000/svg"
   xmlns="http://www.w3.org/2000/svg"
   xmlns:sodipodi="http://sodipodi.sourceforge.net/DTD/sodipodi-0.dtd"
   xmlns:inkscape="http://www.inkscape.org/namespaces/inkscape"
   version="1.1"
   id="Capa_1"
   x="0px"
   y="0px"
   width="150"
   height="130"
   viewBox="0 0 150 130"
   enable-background="new 0 0 216 146"
   xml:space="preserve"
   inkscape:version="0.48.3.1 r9886"
   sodipodi:docname="icon-linux.svg"><metadata
   id="metadata15"><rdf:RDF><cc:Work
       rdf:about=""><dc:format>image/svg+xml</dc:format><dc:type
         rdf:resource="http://purl.org/dc/dcmitype/StillImage" /></cc:Work></rdf:RDF></metadata><defs
   id="defs13" /><sodipodi:namedview
   pagecolor="#ffffff"
   bordercolor="#666666"
   borderopacity="1"
   objecttolerance="10"
   gridtolerance="10"
   guidetolerance="10"
   inkscape:pageopacity="0"
   inkscape:pageshadow="2"
   inkscape:window-width="640"
   inkscape:window-height="480"
   id="namedview11"
   showgrid="false"
   inkscape:zoom="1.4305556"
   inkscape:cx="108"
   inkscape:cy="73"
   inkscape:window-x="65"
   inkscape:window-y="24"
   inkscape:window-maximized="0"
   inkscape:current-layer="Capa_1" />
<g
   id="g3"
   transform="matrix(0.66173531,0,0,0.74625786,3.6791539,9.8632636)">
	<path
   d="m 169.002,122.25 c -0.596,-0.679 -1.439,-1.344 -2.525,-1.996 -0.164,-0.107 -0.611,-0.366 -1.342,-0.771 -0.732,-0.408 -1.316,-0.761 -1.752,-1.06 -0.434,-0.299 -1.004,-0.815 -1.711,-1.548 -0.705,-0.733 -1.262,-1.508 -1.67,-2.322 -0.408,-0.814 -0.801,-1.914 -1.182,-3.299 -0.381,-1.386 -0.596,-2.92 -0.651,-4.604 -0.761,0.65 -1.181,1.94 -1.263,3.869 -0.082,1.928 0.326,3.896 1.223,5.906 0.895,2.01 2.24,3.312 4.032,3.911 1.737,0.598 3.136,1.235 4.196,1.914 1.058,0.679 1.738,1.452 2.037,2.321 0.299,0.871 -0.205,1.808 -1.508,2.812 -1.304,1.005 -3.395,1.996 -6.273,2.976 -3.965,1.357 -6.776,2.512 -8.434,3.461 -1.656,0.951 -4.086,2.758 -7.291,5.418 -2.173,1.793 -4.481,2.758 -6.926,2.894 -2.443,0.136 -4.427,-0.76 -5.947,-2.688 -1.521,-1.928 -2.011,-4.656 -1.467,-8.188 1.032,-6.789 1.006,-12.085 -0.08,-15.887 -0.869,-2.987 -1.06,-5.622 -0.57,-7.903 0.488,-2.28 1.248,-3.61 2.281,-3.991 1.03,-0.381 2.145,0.434 3.34,2.443 0.107,0.271 0.353,0.801 0.732,1.589 0.38,0.787 0.691,1.345 0.938,1.67 0.244,0.326 0.611,0.747 1.1,1.263 0.488,0.518 1.102,0.883 1.834,1.102 0.732,0.217 1.587,0.352 2.566,0.406 1.847,0.054 3.502,-0.326 4.97,-1.141 1.466,-0.814 2.567,-1.724 3.3,-2.729 0.732,-1.006 1.467,-1.969 2.199,-2.893 0.732,-0.924 1.371,-1.44 1.915,-1.549 0.597,-0.107 1.141,-0.705 1.63,-1.792 0.488,-1.086 0.814,-2.593 0.977,-4.521 0.164,-1.929 0.028,-4.224 -0.406,-6.884 -0.815,-4.727 -2.432,-9.914 -4.848,-15.562 -2.418,-5.65 -5.119,-10.076 -8.107,-13.281 -5.377,-5.703 -8.987,-11.623 -10.836,-17.761 -1.899,-6.463 -2.713,-12.275 -2.442,-17.435 0.272,-3.694 -0.53,-7.7 -2.403,-12.018 -1.873,-4.318 -4.359,-7.618 -7.455,-9.899 -1.955,-1.466 -4.373,-2.593 -7.25,-3.381 -2.879,-0.788 -5.758,-1.154 -8.637,-1.1 -3.53,0 -6.355,0.57 -8.473,1.711 -4.345,2.336 -7.223,5.174 -8.636,8.514 -1.413,3.34 -2.064,7.454 -1.956,12.343 0.218,10.754 0.652,19.173 1.304,25.256 -0.761,2.825 -4.128,8.12 -10.103,15.887 -1.087,1.087 -2.146,2.553 -3.178,4.4 -1.032,1.847 -1.847,3.504 -2.444,4.97 -0.598,1.466 -1.399,3.584 -2.404,6.354 -1.005,2.77 -1.724,4.726 -2.159,5.866 -0.38,0.979 -0.978,2.118 -1.792,3.423 -0.815,1.303 -1.468,2.58 -1.956,3.828 -0.488,1.249 -0.76,2.661 -0.814,4.236 -0.054,1.195 0,2.227 0.163,3.096 0.217,1.305 0.625,1.711 1.222,1.223 2.445,-1.846 5.514,-0.761 9.207,3.26 2.607,2.824 7.197,9.396 13.769,19.717 0.543,0.923 1.086,1.914 1.629,2.975 0.544,1.058 1.059,2.469 1.548,4.235 0.489,1.767 0.693,3.354 0.611,4.767 -0.082,1.413 -0.706,2.717 -1.874,3.91 -1.168,1.195 -2.92,1.955 -5.255,2.281 -1.25,0.163 -2.756,0.055 -4.522,-0.326 -1.765,-0.38 -4.006,-1.004 -6.721,-1.873 -2.716,-0.869 -4.725,-1.467 -6.029,-1.793 -1.9,-0.436 -4.602,-0.99 -8.106,-1.67 -3.504,-0.68 -5.799,-1.182 -6.885,-1.508 -1.847,-0.488 -2.851,-1.194 -3.014,-2.118 -0.163,-0.761 0.217,-2.064 1.141,-3.91 0.924,-1.846 1.385,-3.178 1.385,-3.992 0.054,-0.598 0.027,-1.194 -0.082,-1.793 -0.108,-0.597 -0.23,-1.059 -0.366,-1.385 -0.136,-0.326 -0.367,-0.815 -0.693,-1.467 -0.326,-0.652 -0.543,-1.142 -0.652,-1.466 -0.977,-2.282 -1.113,-3.832 -0.407,-4.646 0.488,-0.706 1.656,-0.977 3.503,-0.813 2.77,0.271 5.024,-0.137 6.762,-1.224 2.878,-1.792 3.748,-4.671 2.607,-8.636 0,1.846 -0.326,3.23 -0.978,4.155 -0.652,0.923 -1.793,1.874 -3.422,2.852 -0.923,0.543 -2.553,0.869 -4.888,0.979 -2.335,0.108 -3.884,0.489 -4.644,1.141 -0.543,0.489 -0.828,1.222 -0.855,2.2 -0.027,0.979 0.096,1.969 0.367,2.974 0.271,1.005 0.543,2.159 0.814,3.462 0.272,1.305 0.38,2.392 0.326,3.26 -0.054,0.597 -0.544,2.078 -1.467,4.439 -0.923,2.363 -1.113,4.169 -0.57,5.418 0.272,0.598 0.733,1.128 1.385,1.589 0.651,0.462 1.561,0.856 2.729,1.183 1.167,0.326 2.24,0.584 3.218,0.773 0.977,0.189 2.335,0.435 4.073,0.732 1.738,0.298 3.123,0.557 4.155,0.773 3.476,0.707 7.441,1.875 11.895,3.504 4.454,1.63 7.468,2.471 9.043,2.525 1.521,0.053 2.974,-0.258 4.359,-0.938 1.385,-0.678 2.566,-1.452 3.544,-2.321 0.977,-0.869 2.43,-1.685 4.358,-2.444 1.929,-0.761 4.088,-1.168 6.478,-1.223 1.086,-0.054 2.661,-0.122 4.725,-0.203 2.064,-0.082 3.612,-0.122 4.644,-0.122 4.671,0 8.201,0.026 10.591,0.081 1.63,0.055 2.906,0.312 3.83,0.774 0.923,0.461 1.521,0.991 1.792,1.588 0.271,0.599 0.721,1.29 1.346,2.078 0.623,0.787 1.424,1.426 2.401,1.914 2.063,0.979 4.481,1.372 7.252,1.182 2.769,-0.19 4.617,-0.72 5.54,-1.589 1.52,-1.466 3.57,-3.205 6.15,-5.214 2.58,-2.009 4.904,-3.53 6.967,-4.562 0.434,-0.219 1.167,-0.572 2.199,-1.061 1.031,-0.489 1.9,-0.909 2.606,-1.264 0.706,-0.353 1.562,-0.801 2.565,-1.344 1.006,-0.544 1.82,-1.046 2.445,-1.508 0.625,-0.462 1.262,-0.99 1.914,-1.589 0.652,-0.597 1.073,-1.194 1.264,-1.792 0.188,-0.598 0.258,-1.209 0.203,-1.833 -0.055,-0.622 -0.38,-1.273 -0.978,-1.953 z M 125.334,43.506 c 0.162,-0.108 0.271,-0.149 0.325,-0.122 0.055,0.027 0.163,0.136 0.325,0.326 0.164,0.19 0.312,0.367 0.449,0.53 0.135,0.162 0.325,0.38 0.569,0.651 0.244,0.272 0.502,0.489 0.772,0.652 0.328,0.217 0.721,0.367 1.183,0.448 0.462,0.081 0.815,0.217 1.06,0.407 0.245,0.19 0.422,0.502 0.529,0.937 0.107,0.598 0.016,1.14 -0.283,1.629 -0.3,0.489 -0.693,0.707 -1.183,0.652 -0.978,-0.217 -2.037,-1.072 -3.177,-2.566 -1.139,-1.494 -1.33,-2.675 -0.569,-3.544 z M 115.23,11.855 c 0.271,-0.353 0.434,-0.638 0.488,-0.855 0.108,-0.327 0.122,-0.666 0.041,-1.019 -0.082,-0.353 -0.055,-0.706 0.081,-1.059 0.136,-0.353 0.449,-0.557 0.938,-0.611 0.488,0 1.141,0.408 1.955,1.222 0.162,0.109 0.42,0.272 0.772,0.489 0.353,0.217 0.597,0.407 0.733,0.57 0.136,0.162 0.203,0.299 0.203,0.407 -0.108,0.271 -0.352,0.463 -0.731,0.571 -0.379,0.108 -0.788,0.163 -1.222,0.163 -0.434,0 -0.68,0.027 -0.733,0.081 -0.435,0.163 -0.842,0.407 -1.223,0.733 -0.38,0.326 -0.679,0.57 -0.896,0.733 -0.218,0.163 -0.435,0.163 -0.652,0 -0.217,-0.326 -0.299,-0.557 -0.244,-0.692 0.056,-0.135 0.219,-0.38 0.49,-0.733 z M 75.798,72.838 c 0.379,-0.434 0.651,-0.787 0.814,-1.059 0.163,-0.272 0.312,-0.639 0.448,-1.1 0.136,-0.462 0.258,-0.802 0.367,-1.019 0.109,-0.218 0.272,-0.299 0.489,-0.245 0.108,-0.027 0.189,0.027 0.245,0.163 0.054,0.136 0.081,0.204 0.081,0.204 v 0.245 c 0,0.082 -0.014,0.19 -0.041,0.326 -0.027,0.137 -0.068,0.259 -0.122,0.367 -0.055,0.109 -0.109,0.272 -0.163,0.489 -0.054,0.217 -0.108,0.407 -0.163,0.57 -0.217,0.544 -0.557,1.032 -1.018,1.467 -0.462,0.434 -0.802,0.625 -1.019,0.57 -0.326,-0.108 -0.298,-0.435 0.082,-0.978 z m 53.281,50.268 c -0.109,1.738 -0.476,4.183 -1.101,7.333 -0.625,3.15 -1.019,5.241 -1.182,6.273 -1.141,-0.056 -1.792,-0.477 -1.955,-1.264 -0.163,-0.788 0,-1.806 0.489,-3.056 1.194,-3.64 1.817,-6.138 1.873,-7.495 0.11,-2.499 -0.162,-3.911 -0.813,-4.236 -0.599,-0.435 -1.522,0.381 -2.771,2.443 -2.392,3.911 -7.197,6.273 -14.421,7.089 -6.517,0.869 -11.025,-0.108 -13.524,-2.934 -0.543,-0.38 -1.086,-0.448 -1.629,-0.203 -0.543,0.243 -0.896,0.502 -1.059,0.772 -0.054,0.109 0,0.271 0.163,0.489 0.163,0.218 0.421,0.543 0.774,0.978 0.353,0.436 0.638,0.869 0.855,1.305 2.119,3.693 1.929,6.191 -0.57,7.495 0,-2.498 -0.19,-4.413 -0.57,-5.743 -0.38,-1.331 -1.14,-2.797 -2.281,-4.4 -1.14,-1.602 -1.928,-2.811 -2.362,-3.625 1.629,-0.162 2.865,-0.787 3.707,-1.874 0.842,-1.086 1.222,-2.254 1.141,-3.503 -0.082,-1.25 -0.557,-2.282 -1.426,-3.097 -0.489,-0.488 -3.015,-2.566 -7.577,-6.232 -4.562,-3.666 -7.387,-6.124 -8.473,-7.373 -0.218,-0.218 -0.869,-0.761 -1.956,-1.63 -1.087,-0.869 -1.766,-1.629 -2.037,-2.281 -2.499,-5.484 -2.77,-9.994 -0.815,-13.523 l 0.326,-0.407 c 0.271,-0.054 0.298,0.435 0.081,1.467 -0.326,1.521 -0.434,3.041 -0.326,4.562 0.217,3.423 1.195,5.975 2.933,7.658 1.141,1.142 1.928,1.06 2.363,-0.244 0.326,-0.435 0.475,-2.037 0.448,-4.808 -0.026,-2.769 0.014,-4.643 0.123,-5.621 0.435,-3.096 1.725,-6.926 3.87,-11.487 2.145,-4.563 3.843,-7.007 5.092,-7.333 -0.978,-1.575 -1.29,-3.286 -0.937,-5.133 0.353,-1.847 0.924,-3.423 1.711,-4.726 0.787,-1.303 1.589,-2.81 2.403,-4.521 0.815,-1.711 1.222,-3.246 1.222,-4.604 0,-0.379 0.028,-0.651 0.082,-0.814 0.163,-0.489 0.842,0.108 2.037,1.792 2.281,3.368 3.992,5.351 5.133,5.948 1.195,0.651 2.525,0.624 3.992,-0.082 1.466,-0.706 3.272,-1.874 5.418,-3.503 2.145,-1.629 3.978,-2.824 5.499,-3.584 0.164,-0.055 0.421,-0.177 0.775,-0.367 0.352,-0.189 0.623,-0.326 0.813,-0.408 0.188,-0.081 0.434,-0.203 0.733,-0.366 0.297,-0.163 0.528,-0.299 0.691,-0.408 0.163,-0.109 0.326,-0.231 0.488,-0.367 0.162,-0.136 0.271,-0.271 0.326,-0.407 0.055,-0.136 0.082,-0.258 0.082,-0.367 -0.109,-0.489 -0.34,-0.788 -0.693,-0.896 -0.354,-0.108 -0.828,-0.041 -1.426,0.204 -0.598,0.245 -1.264,0.571 -1.996,0.978 -0.732,0.407 -1.547,0.869 -2.443,1.385 -0.896,0.516 -1.806,0.991 -2.729,1.426 -0.923,0.435 -1.901,0.815 -2.933,1.141 -1.032,0.325 -2.01,0.516 -2.933,0.57 -2.281,0.055 -4.1,-0.542 -5.458,-1.792 -0.869,-0.815 -1.33,-1.331 -1.385,-1.548 -0.055,-0.217 0.19,-0.271 0.733,-0.163 2.934,0.38 5.079,0.434 6.437,0.163 1.412,-0.217 3.313,-0.842 5.703,-1.874 0.489,-0.217 1.724,-0.747 3.708,-1.589 1.982,-0.841 3.517,-1.425 4.603,-1.751 0.653,-0.163 1.101,-0.421 1.345,-0.774 0.244,-0.353 0.326,-0.679 0.244,-0.978 -0.081,-0.298 -0.258,-0.529 -0.529,-0.692 -0.598,-0.326 -1.141,-0.108 -1.629,0.652 -0.272,0.489 -0.843,0.965 -1.712,1.426 -0.868,0.462 -1.67,0.815 -2.403,1.059 -0.733,0.244 -1.67,0.529 -2.811,0.855 -1.141,0.326 -1.765,0.516 -1.874,0.57 -2.987,0.923 -5.757,1.331 -8.31,1.222 -1.195,-0.054 -2.159,-0.231 -2.892,-0.53 -0.733,-0.298 -1.236,-0.651 -1.507,-1.059 -0.272,-0.407 -0.706,-0.923 -1.304,-1.548 -0.598,-0.625 -1.277,-1.154 -2.037,-1.589 -0.543,-0.271 -0.747,-0.76 -0.611,-1.466 0.136,-0.706 0.557,-1.44 1.263,-2.2 0.054,-0.055 0.611,-0.394 1.67,-1.019 1.059,-0.625 1.806,-1.263 2.241,-1.915 0.488,-0.76 1.33,-1.548 2.525,-2.363 0.054,-0.217 0.095,-0.814 0.122,-1.792 0.027,-0.977 -0.231,-2.036 -0.774,-3.177 -0.543,-1.141 -1.277,-1.711 -2.2,-1.711 -1.304,-0.054 -2.227,0.326 -2.77,1.141 -0.543,0.814 -0.787,1.819 -0.733,3.014 0.055,1.032 0.313,1.941 0.774,2.729 0.462,0.788 0.883,1.182 1.263,1.182 0.597,-0.055 0.787,0.162 0.57,0.651 -0.326,0.598 -0.761,0.979 -1.304,1.141 -0.381,0.108 -0.802,-0.258 -1.263,-1.1 -0.462,-0.842 -0.815,-1.86 -1.059,-3.055 -0.244,-1.195 -0.34,-2.2 -0.285,-3.015 0.108,-1.684 0.556,-3.3 1.344,-4.848 0.788,-1.548 1.915,-2.295 3.381,-2.241 1.521,0.055 2.744,0.979 3.667,2.771 0.924,1.792 1.358,4.237 1.304,7.333 0.163,0.38 0.584,0.516 1.263,0.407 0.678,-0.109 1.575,-0.123 2.688,-0.041 1.113,0.081 1.914,0.366 2.403,0.855 0.055,0 0.082,-0.408 0.082,-1.222 -0.978,-6.843 1.439,-10.482 7.251,-10.917 0.867,0.163 1.601,0.367 2.198,0.611 0.599,0.244 1.235,0.652 1.915,1.222 0.68,0.57 1.249,1.398 1.711,2.485 0.461,1.087 0.829,2.445 1.1,4.074 V 32.1 c 0,1.738 -0.354,2.716 -1.06,2.933 -1.14,0.38 -1.954,0.367 -2.442,-0.041 -0.489,-0.408 -0.436,-1.127 0.162,-2.159 0.543,-1.358 0.435,-2.934 -0.326,-4.726 -0.76,-1.792 -2.145,-2.607 -4.154,-2.444 -1.359,0.055 -2.336,0.788 -2.934,2.2 -0.597,1.412 -0.814,2.797 -0.651,4.155 0.163,1.358 0.461,2.064 0.896,2.118 0.326,0.055 1.291,0.489 2.893,1.304 1.604,0.815 2.812,1.303 3.626,1.466 2.118,0.434 3.325,1.113 3.625,2.037 0.299,0.924 0.177,2.268 -0.366,4.033 -0.544,1.766 -0.706,3.218 -0.488,4.359 0.217,1.196 0.625,2.281 1.223,3.259 0.598,0.978 1.234,1.874 1.914,2.689 0.679,0.813 1.479,2.335 2.404,4.562 0.922,2.227 1.764,5.024 2.524,8.392 0.054,0.054 0.257,0.244 0.61,0.57 0.354,0.326 0.705,0.733 1.06,1.222 0.354,0.489 0.774,1.154 1.263,1.996 0.489,0.842 1.02,2.078 1.59,3.708 0.569,1.629 1.1,3.504 1.588,5.621 0.598,2.5 0.91,5.404 0.938,8.719 0.027,3.313 0.244,5.58 0.652,6.803 0.408,1.223 1.453,1.725 3.137,1.508 2.118,-0.109 3.477,-1.249 4.072,-3.422 1.793,-6.301 0.328,-13.852 -4.398,-22.65 -1.793,-3.422 -3.34,-5.676 -4.645,-6.762 1.9,1.086 3.856,3.122 5.867,6.11 2.01,2.988 3.285,5.786 3.828,8.392 0.053,0.272 0.203,0.992 0.448,2.159 0.244,1.168 0.38,1.847 0.406,2.037 0.026,0.19 0.137,0.747 0.325,1.67 0.191,0.924 0.285,1.521 0.285,1.793 0,0.272 0.027,0.801 0.082,1.589 0.056,0.787 0.041,1.398 -0.041,1.833 -0.082,0.435 -0.162,1.019 -0.244,1.751 -0.082,0.733 -0.217,1.439 -0.407,2.119 -0.188,0.678 -0.392,1.426 -0.61,2.24 2.987,1.304 4.481,2.443 4.481,3.422 -1.14,-0.924 -2.771,-1.534 -4.89,-1.83 -2.119,-0.3 -4.086,-0.015 -5.906,0.854 -1.82,0.869 -2.758,2.308 -2.812,4.317 -1.956,0 -3.341,0.488 -4.155,1.467 -1.194,1.412 -1.818,3.326 -1.873,5.744 -0.055,2.416 0.148,5.051 0.61,7.901 0.463,2.852 0.639,4.847 0.53,5.988 z M 94.943,28.678 c -0.163,-0.054 -0.299,-0.218 -0.407,-0.489 0,-0.488 0.244,-0.679 0.733,-0.57 0.326,0.108 0.639,0.516 0.937,1.222 0.299,0.706 0.367,1.521 0.204,2.444 0,0.163 -0.081,0.245 -0.245,0.244 -0.598,0 -0.815,-0.543 -0.652,-1.629 0.163,-0.815 -0.027,-1.222 -0.57,-1.222 z m 21.102,1.304 -0.162,0.244 c -0.434,0.271 -0.65,0.326 -0.65,0.163 -0.219,-1.467 -0.707,-2.309 -1.467,-2.526 L 113.44,27.7 c -0.381,-0.326 -0.191,-0.516 0.569,-0.57 0.163,-0.055 0.407,0.026 0.733,0.244 0.326,0.218 0.625,0.557 0.896,1.019 0.271,0.462 0.407,0.991 0.407,1.589 z"
   id="path5"
   inkscape:connector-curvature="0" />
	<path
   d="m 97.061,34.706 c 0,0.326 0.137,0.462 0.408,0.408 0.217,0 0.447,-0.258 0.692,-0.774 0.245,-0.515 0.666,-0.8 1.263,-0.855 v -10e-4 h -0.815 c -1.032,0.163 -1.548,0.57 -1.548,1.222 z"
   id="path7"
   inkscape:connector-curvature="0" />
	<path
   d="m 104.15,33.729 c 0.543,-0.163 1.019,-0.04 1.426,0.367 0.407,0.407 0.72,0.584 0.937,0.529 0.325,-0.162 0.407,-0.407 0.244,-0.733 -0.434,-0.706 -1.303,-0.76 -2.607,-0.163 z"
   id="path9"
   inkscape:connector-curvature="0" />
</g>
</svg>