<?xml version="1.0" encoding="UTF-8" standalone="no"?>
<!-- Generator: Adobe Illustrator 16.0.4, SVG Export Plug-In . SVG Version: 6.00 Build 0)  -->

<svg
   xmlns:dc="http://purl.org/dc/elements/1.1/"
   xmlns:cc="http://creativecommons.org/ns#"
   xmlns:rdf="http://www.w3.org/1999/02/22-rdf-syntax-ns#"
   xmlns:svg="http://www.w3.org/2000/svg"
   xmlns="http://www.w3.org/2000/svg"
   xmlns:sodipodi="http://sodipodi.sourceforge.net/DTD/sodipodi-0.dtd"
   xmlns:inkscape="http://www.inkscape.org/namespaces/inkscape"
   version="1.1"
   id="Capa_1"
   x="0px"
   y="0px"
   width="150"
   height="130"
   viewBox="0 0 150 130"
   enable-background="new 0 0 216 146"
   xml:space="preserve"
   inkscape:version="0.48.3.1 r9886"
   sodipodi:docname="icon-star.svg"><metadata
   id="metadata9"><rdf:RDF><cc:Work
       rdf:about=""><dc:format>image/svg+xml</dc:format><dc:type
         rdf:resource="http://purl.org/dc/dcmitype/StillImage" /></cc:Work></rdf:RDF></metadata><defs
   id="defs7" /><sodipodi:namedview
   pagecolor="#ffffff"
   bordercolor="#666666"
   borderopacity="1"
   objecttolerance="10"
   gridtolerance="10"
   guidetolerance="10"
   inkscape:pageopacity="0"
   inkscape:pageshadow="2"
   inkscape:window-width="643"
   inkscape:window-height="480"
   id="namedview5"
   showgrid="false"
   inkscape:zoom="1.4305556"
   inkscape:cx="108"
   inkscape:cy="73"
   inkscape:window-x="65"
   inkscape:window-y="24"
   inkscape:window-maximized="0"
   inkscape:current-layer="Capa_1" />
<path
   d="m 125.4549,52.321514 c 0,-1.56446 -1.11245,-2.536605 -3.34028,-2.917212 l -29.931465,-4.628778 -13.41599,-28.853 c -0.75456,-1.73336 -1.729416,-2.59965 -2.92164,-2.59965 -1.192223,0 -2.166348,0.86629 -2.921643,2.59965 l -13.416722,28.853 -29.932932,4.628778 c -2.22563,0.380607 -3.338811,1.352752 -3.338811,2.917212 0,0.888084 0.496943,1.903037 1.490828,3.044081 l 21.704468,22.448054 -5.127512,31.706391 c -0.07977,0.59231 -0.119296,1.01573 -0.119296,1.26869 0,0.88808 0.208585,1.63762 0.625753,2.25173 0.417169,0.61333 1.042921,0.91922 1.87799,0.91922 0.715773,0 1.510589,-0.25218 2.385179,-0.76044 L 75.844793,98.232577 102.61895,113.19924 c 0.8358,0.50748 1.63062,0.76044 2.38445,0.76044 0.79701,0 1.40227,-0.30511 1.81944,-0.91922 0.41643,-0.61333 0.62502,-1.36365 0.62502,-2.25173 0,-0.54951 -0.0198,-0.97214 -0.06,-1.26869 l -5.12824,-31.706391 21.64445,-22.448054 c 1.03487,-1.099014 1.55085,-2.113967 1.55085,-3.044081 z"
   id="path3"
   inkscape:connector-curvature="0" />
</svg>