<?xml version="1.0" encoding="UTF-8" standalone="no"?>
<!-- Generator: Adobe Illustrator 16.0.4, SVG Export Plug-In . SVG Version: 6.00 Build 0)  -->

<svg
   xmlns:dc="http://purl.org/dc/elements/1.1/"
   xmlns:cc="http://creativecommons.org/ns#"
   xmlns:rdf="http://www.w3.org/1999/02/22-rdf-syntax-ns#"
   xmlns:svg="http://www.w3.org/2000/svg"
   xmlns="http://www.w3.org/2000/svg"
   xmlns:sodipodi="http://sodipodi.sourceforge.net/DTD/sodipodi-0.dtd"
   xmlns:inkscape="http://www.inkscape.org/namespaces/inkscape"
   version="1.1"
   id="Capa_1"
   x="0px"
   y="0px"
   width="150"
   height="130"
   viewBox="0 0 150 130"
   enable-background="new 0 0 216 146"
   xml:space="preserve"
   inkscape:version="0.48.3.1 r9886"
   sodipodi:docname="icon-youtube.svg"><metadata
   id="metadata21"><rdf:RDF><cc:Work
       rdf:about=""><dc:format>image/svg+xml</dc:format><dc:type
         rdf:resource="http://purl.org/dc/dcmitype/StillImage" /></cc:Work></rdf:RDF></metadata><defs
   id="defs19" /><sodipodi:namedview
   pagecolor="#ffffff"
   bordercolor="#666666"
   borderopacity="1"
   objecttolerance="10"
   gridtolerance="10"
   guidetolerance="10"
   inkscape:pageopacity="0"
   inkscape:pageshadow="2"
   inkscape:window-width="640"
   inkscape:window-height="480"
   id="namedview17"
   showgrid="false"
   inkscape:zoom="1.4305556"
   inkscape:cx="108"
   inkscape:cy="73"
   inkscape:window-x="65"
   inkscape:window-y="24"
   inkscape:window-maximized="0"
   inkscape:current-layer="Capa_1" />
<g
   id="g3"
   transform="matrix(0.72790737,0,0,0.7223035,-3.1189859,14.058252)">
	<path
   d="m 166.254,75.443 c -0.705,-3.205 -2.268,-5.893 -4.684,-8.065 -2.418,-2.172 -5.202,-3.449 -8.353,-3.829 -9.993,-1.086 -25.065,-1.629 -45.218,-1.629 -20.152,0 -35.197,0.543 -45.137,1.629 -3.204,0.38 -6.001,1.657 -8.392,3.829 -2.39,2.173 -3.965,4.861 -4.726,8.065 -1.412,6.302 -2.118,15.807 -2.118,28.517 0,12.927 0.706,22.433 2.118,28.517 0.707,3.203 2.269,5.893 4.686,8.064 2.417,2.173 5.201,3.422 8.351,3.748 C 72.776,145.43 87.849,146 108,146 c 20.15,0 35.225,-0.57 45.217,-1.711 3.151,-0.326 5.92,-1.575 8.311,-3.748 2.391,-2.171 3.966,-4.861 4.726,-8.064 1.412,-6.302 2.119,-15.807 2.119,-28.517 -10e-4,-12.927 -0.708,-22.433 -2.119,-28.517 z m -84.162,8.231 h -8.718 v 46.357 H 65.227 V 83.674 h -8.555 v -7.659 h 25.42 v 7.659 z m 21.997,46.357 h -7.251 v -4.4 c -2.933,3.314 -5.704,4.97 -8.311,4.97 -2.498,0 -4.074,-1.005 -4.725,-3.014 -0.434,-1.304 -0.652,-3.287 -0.652,-5.948 V 89.783 h 7.251 v 29.656 c 0,1.738 0.027,2.689 0.082,2.852 0.163,1.141 0.733,1.711 1.711,1.711 1.466,0 3.015,-1.141 4.644,-3.422 V 89.783 h 7.251 v 40.248 z m 27.701,-12.058 c 0,3.965 -0.244,6.682 -0.731,8.149 -0.925,2.985 -2.852,4.479 -5.785,4.479 -2.607,0 -5.133,-1.494 -7.578,-4.479 v 3.91 h -7.25 V 76.016 h 7.25 v 17.68 c 2.337,-2.932 4.861,-4.399 7.578,-4.399 2.933,0 4.86,1.521 5.785,4.562 0.487,1.412 0.731,4.101 0.731,8.066 v 16.048 z m 27.538,-6.68 h -14.583 v 7.088 c 0,3.748 1.248,5.621 3.747,5.621 1.792,0 2.879,-0.977 3.259,-2.934 0.108,-0.543 0.163,-2.199 0.163,-4.969 h 7.414 v 1.059 c 0,2.662 -0.055,4.236 -0.163,4.727 -0.162,1.465 -0.731,2.932 -1.711,4.398 -1.955,2.879 -4.89,4.318 -8.8,4.318 -3.747,0 -6.68,-1.385 -8.799,-4.154 -1.574,-2.01 -2.362,-5.16 -2.362,-9.451 V 102.9 c 0,-4.291 0.76,-7.441 2.28,-9.451 2.119,-2.77 5.025,-4.154 8.719,-4.154 3.64,0 6.52,1.384 8.636,4.154 1.468,2.01 2.2,5.16 2.2,9.451 v 8.393 z"
   id="path5"
   inkscape:connector-curvature="0" />
	<path
   d="m 121.361,95.895 c -1.25,0 -2.471,0.599 -3.666,1.793 v 24.522 c 1.195,1.194 2.416,1.792 3.666,1.792 2.117,0 3.178,-1.818 3.178,-5.459 v -17.189 c 0,-3.64 -1.06,-5.459 -3.178,-5.459 z"
   id="path7"
   inkscape:connector-curvature="0" />
	<path
   d="m 148.411,95.895 c -2.444,0 -3.666,1.847 -3.666,5.539 v 3.748 h 7.332 v -3.748 c 0,-3.694 -1.223,-5.539 -3.666,-5.539 z"
   id="path9"
   inkscape:connector-curvature="0" />
	<path
   d="m 77.368,32.508 v 22.08 h 8.147 V 32.508 L 95.372,0 h -8.31 L 81.523,21.428 75.738,0 h -8.636 c 1.521,4.563 3.286,9.641 5.296,15.236 2.553,7.495 4.209,13.253 4.97,17.272 z"
   id="path11"
   inkscape:connector-curvature="0" />
	<path
   d="m 106.289,55.158 c 3.748,0 6.626,-1.385 8.636,-4.155 1.521,-2.01 2.281,-5.215 2.281,-9.614 V 27.131 c 0,-4.345 -0.761,-7.523 -2.281,-9.533 -2.01,-2.77 -4.888,-4.155 -8.636,-4.155 -3.64,0 -6.492,1.385 -8.555,4.155 -1.52,2.01 -2.281,5.188 -2.281,9.533 v 14.258 c 0,4.345 0.76,7.55 2.281,9.614 2.064,2.77 4.915,4.155 8.555,4.155 z m -3.504,-29.494 c 0,-3.748 1.168,-5.622 3.504,-5.622 2.336,0 3.503,1.874 3.503,5.622 v 17.109 c 0,3.803 -1.167,5.703 -3.503,5.703 -2.336,0 -3.504,-1.901 -3.504,-5.703 V 25.664 z"
   id="path13"
   inkscape:connector-curvature="0" />
	<path
   d="m 128.693,55.158 c 2.717,0 5.515,-1.684 8.393,-5.052 v 4.481 H 144.5 V 13.932 h -7.414 v 31.041 c -1.63,2.336 -3.177,3.503 -4.645,3.503 -0.979,0 -1.549,-0.597 -1.711,-1.792 -0.055,-0.109 -0.082,-1.06 -0.082,-2.852 v -29.9 h -7.414 v 32.101 c 0,2.77 0.218,4.806 0.652,6.11 0.707,2.01 2.309,3.015 4.807,3.015 z"
   id="path15"
   inkscape:connector-curvature="0" />
</g>
</svg>