<?xml version="1.0" encoding="UTF-8" standalone="no"?>
<!-- Generator: Adobe Illustrator 16.0.4, SVG Export Plug-In . SVG Version: 6.00 Build 0)  -->

<svg
   xmlns:dc="http://purl.org/dc/elements/1.1/"
   xmlns:cc="http://creativecommons.org/ns#"
   xmlns:rdf="http://www.w3.org/1999/02/22-rdf-syntax-ns#"
   xmlns:svg="http://www.w3.org/2000/svg"
   xmlns="http://www.w3.org/2000/svg"
   xmlns:sodipodi="http://sodipodi.sourceforge.net/DTD/sodipodi-0.dtd"
   xmlns:inkscape="http://www.inkscape.org/namespaces/inkscape"
   version="1.1"
   id="Capa_1"
   x="0px"
   y="0px"
   width="150"
   height="130"
   viewBox="0 0 150 130"
   enable-background="new 0 0 216 146"
   xml:space="preserve"
   inkscape:version="0.48.3.1 r9886"
   sodipodi:docname="icon-twitter.svg"><metadata
   id="metadata9"><rdf:RDF><cc:Work
       rdf:about=""><dc:format>image/svg+xml</dc:format><dc:type
         rdf:resource="http://purl.org/dc/dcmitype/StillImage" /></cc:Work></rdf:RDF></metadata><defs
   id="defs7" /><sodipodi:namedview
   pagecolor="#ffffff"
   bordercolor="#666666"
   borderopacity="1"
   objecttolerance="10"
   gridtolerance="10"
   guidetolerance="10"
   inkscape:pageopacity="0"
   inkscape:pageshadow="2"
   inkscape:window-width="640"
   inkscape:window-height="480"
   id="namedview5"
   showgrid="false"
   inkscape:zoom="1.4305556"
   inkscape:cx="108"
   inkscape:cy="73"
   inkscape:window-x="65"
   inkscape:window-y="24"
   inkscape:window-maximized="0"
   inkscape:current-layer="Capa_1" />
<path
   d="m 126.06506,35.140418 c -3.86857,1.634057 -7.73868,2.654496 -11.60573,3.064325 4.36794,-2.573281 7.32204,-6.208361 8.8615,-10.90524 -3.99495,2.327384 -8.25874,3.920082 -12.79289,4.778093 -3.99418,-4.16598 -8.90208,-6.249721 -14.726766,-6.249721 -5.574247,0 -10.326676,1.929585 -14.258822,5.789508 -3.931382,3.859923 -5.89669,8.52597 -5.89669,13.998894 0,1.470125 0.166201,2.981608 0.499369,4.533699 -8.237289,-0.408327 -15.964487,-2.440182 -23.18236,-6.095565 -7.217872,-3.656136 -13.343566,-8.526722 -18.377082,-14.612512 -1.830508,3.062822 -2.745763,6.391846 -2.745763,9.986319 0,3.389934 0.811091,6.535475 2.434041,9.435116 1.622182,2.899642 3.806538,5.248082 6.552302,7.045318 -3.245133,-0.122573 -6.281939,-0.96028 -9.110419,-2.512371 v 0.245146 c 0,4.778845 1.528742,8.974903 4.586229,12.590432 3.057485,3.615529 6.916106,5.891778 11.575095,6.831003 -1.747025,0.448933 -3.515496,0.673775 -5.30388,0.673775 -1.164939,0 -2.434041,-0.102266 -3.806539,-0.305303 1.289781,3.96144 3.661017,7.218273 7.11371,9.771252 3.452691,2.55373 7.363393,3.869698 11.731339,3.952416 -7.321268,5.635352 -15.661955,8.453779 -25.022058,8.453779 -1.789151,0 -3.411334,-0.08047 -4.867316,-0.244395 9.360103,5.921854 19.676821,8.882404 30.950917,8.882404 7.155068,0 13.87357,-1.11218 20.153977,-3.33804 6.282704,-2.225868 11.648625,-5.207474 16.100049,-8.945576 4.450669,-3.736598 8.288607,-8.035678 11.512287,-12.896489 3.22369,-4.860059 5.62556,-9.934432 7.20715,-15.223872 1.58083,-5.290192 2.37124,-10.588656 2.37124,-15.899152 0,-1.143765 -0.0207,-2.001024 -0.0628,-2.573282 3.95283,-2.816924 7.32281,-6.227914 10.10993,-10.229961 z"
   id="path3"
   inkscape:connector-curvature="0" />
</svg>