<?xml version="1.0" encoding="UTF-8" standalone="no"?>
<!-- Generator: Adobe Illustrator 16.0.4, SVG Export Plug-In . SVG Version: 6.00 Build 0)  -->

<svg
   xmlns:dc="http://purl.org/dc/elements/1.1/"
   xmlns:cc="http://creativecommons.org/ns#"
   xmlns:rdf="http://www.w3.org/1999/02/22-rdf-syntax-ns#"
   xmlns:svg="http://www.w3.org/2000/svg"
   xmlns="http://www.w3.org/2000/svg"
   xmlns:sodipodi="http://sodipodi.sourceforge.net/DTD/sodipodi-0.dtd"
   xmlns:inkscape="http://www.inkscape.org/namespaces/inkscape"
   version="1.1"
   id="Capa_1"
   x="0px"
   y="0px"
   width="150"
   height="130"
   viewBox="0 0 150 130"
   enable-background="new 0 0 216 146"
   xml:space="preserve"
   inkscape:version="0.48.3.1 r9886"
   sodipodi:docname="icon-plus.svg"><metadata
   id="metadata9"><rdf:RDF><cc:Work
       rdf:about=""><dc:format>image/svg+xml</dc:format><dc:type
         rdf:resource="http://purl.org/dc/dcmitype/StillImage" /></cc:Work></rdf:RDF></metadata><defs
   id="defs7" /><sodipodi:namedview
   pagecolor="#ffffff"
   bordercolor="#666666"
   borderopacity="1"
   objecttolerance="10"
   gridtolerance="10"
   guidetolerance="10"
   inkscape:pageopacity="0"
   inkscape:pageshadow="2"
   inkscape:window-width="643"
   inkscape:window-height="480"
   id="namedview5"
   showgrid="false"
   inkscape:zoom="1.4305556"
   inkscape:cx="108"
   inkscape:cy="73"
   inkscape:window-x="65"
   inkscape:window-y="24"
   inkscape:window-maximized="0"
   inkscape:current-layer="Capa_1" />
<path
   d="m 124.22239,52.372858 c -1.32637,-1.242948 -2.93701,-1.864014 -4.83194,-1.864014 H 89.834595 v -27.69789 c 0,-1.77494 -0.663618,-3.284292 -1.98911,-4.527241 -1.326363,-1.242132 -2.936138,-1.864014 -4.83194,-1.864014 H 69.373188 c -1.894058,0 -3.504705,0.621066 -4.831069,1.864014 -1.326364,1.242949 -1.98911,2.752301 -1.98911,4.527241 v 27.69789 H 32.997158 c -1.894058,0 -3.504704,0.621066 -4.831068,1.864014 -1.326364,1.242949 -1.98911,2.751484 -1.98911,4.527241 v 12.784144 c 0,1.775758 0.662746,3.284293 1.98911,4.526425 1.326364,1.242948 2.93701,1.864013 4.831068,1.864013 h 29.555851 v 27.698699 c 0,1.77494 0.662746,3.28512 1.98911,4.52724 1.326364,1.24214 2.937011,1.8632 4.831069,1.8632 h 13.641229 c 1.895802,0 3.505577,-0.62106 4.83194,-1.8632 1.326364,-1.24294 1.98911,-2.7523 1.98911,-4.52724 V 76.074681 h 29.555853 c 1.89493,0 3.50557,-0.621065 4.83194,-1.864013 1.32549,-1.242132 1.98911,-2.750667 1.98911,-4.526425 V 56.900099 c -8.7e-4,-1.775757 -0.66275,-3.28511 -1.98998,-4.527241 z"
   id="path3"
   inkscape:connector-curvature="0" />
</svg>