<?xml version="1.0" encoding="UTF-8" standalone="no"?>
<!-- Generator: Adobe Illustrator 16.0.4, SVG Export Plug-In . SVG Version: 6.00 Build 0)  -->

<svg
   xmlns:dc="http://purl.org/dc/elements/1.1/"
   xmlns:cc="http://creativecommons.org/ns#"
   xmlns:rdf="http://www.w3.org/1999/02/22-rdf-syntax-ns#"
   xmlns:svg="http://www.w3.org/2000/svg"
   xmlns="http://www.w3.org/2000/svg"
   xmlns:sodipodi="http://sodipodi.sourceforge.net/DTD/sodipodi-0.dtd"
   xmlns:inkscape="http://www.inkscape.org/namespaces/inkscape"
   version="1.1"
   id="Capa_1"
   x="0px"
   y="0px"
   width="150"
   height="130"
   viewBox="0 0 150 130"
   enable-background="new 0 0 216 146"
   xml:space="preserve"
   inkscape:version="0.48.3.1 r9886"
   sodipodi:docname="icon-suitcase.svg"><metadata
   id="metadata15"><rdf:RDF><cc:Work
       rdf:about=""><dc:format>image/svg+xml</dc:format><dc:type
         rdf:resource="http://purl.org/dc/dcmitype/StillImage" /></cc:Work></rdf:RDF></metadata><defs
   id="defs13" /><sodipodi:namedview
   pagecolor="#ffffff"
   bordercolor="#666666"
   borderopacity="1"
   objecttolerance="10"
   gridtolerance="10"
   guidetolerance="10"
   inkscape:pageopacity="0"
   inkscape:pageshadow="2"
   inkscape:window-width="640"
   inkscape:window-height="480"
   id="namedview11"
   showgrid="false"
   inkscape:zoom="1.4305556"
   inkscape:cx="108"
   inkscape:cy="73"
   inkscape:window-x="65"
   inkscape:window-y="24"
   inkscape:window-maximized="0"
   inkscape:current-layer="Capa_1" />
<g
   id="g3"
   transform="matrix(0.78454582,0,0,0.69277374,-9.9348317,15.165228)">
	<path
   d="M 40.377,36.663 C 36.792,40.248 35,44.539 35,49.535 v 67.785 c 0,4.998 1.792,9.289 5.377,12.873 3.585,3.586 7.876,5.377 12.873,5.377 h 5.214 V 31.285 H 53.25 c -4.998,0 -9.289,1.793 -12.873,5.378 z"
   id="path5"
   inkscape:connector-curvature="0" />
	<path
   d="m 139.285,18.25 c 0,-2.173 -0.76,-4.019 -2.281,-5.54 -1.52,-1.521 -3.367,-2.281 -5.539,-2.281 H 84.536 c -2.172,0 -4.019,0.76 -5.54,2.281 -1.521,1.52 -2.281,3.367 -2.281,5.54 V 31.285 H 66.286 V 135.57 h 83.429 V 31.285 h -10.43 V 18.25 z M 128.857,31.285 H 87.143 V 20.857 h 41.714 v 10.428 z"
   id="path7"
   inkscape:connector-curvature="0" />
	<path
   d="m 175.623,36.663 c -3.585,-3.585 -7.876,-5.378 -12.873,-5.378 h -5.215 V 135.57 h 5.215 c 4.997,0 9.288,-1.791 12.873,-5.377 3.584,-3.584 5.377,-7.875 5.377,-12.873 V 49.535 c 0,-4.996 -1.793,-9.287 -5.377,-12.872 z"
   id="path9"
   inkscape:connector-curvature="0" />
</g>
</svg>