<?xml version="1.0" encoding="UTF-8" standalone="no"?>
<!-- Generator: Adobe Illustrator 16.0.4, SVG Export Plug-In . SVG Version: 6.00 Build 0)  -->

<svg
   xmlns:dc="http://purl.org/dc/elements/1.1/"
   xmlns:cc="http://creativecommons.org/ns#"
   xmlns:rdf="http://www.w3.org/1999/02/22-rdf-syntax-ns#"
   xmlns:svg="http://www.w3.org/2000/svg"
   xmlns="http://www.w3.org/2000/svg"
   xmlns:sodipodi="http://sodipodi.sourceforge.net/DTD/sodipodi-0.dtd"
   xmlns:inkscape="http://www.inkscape.org/namespaces/inkscape"
   version="1.1"
   id="Capa_1"
   x="0px"
   y="0px"
   width="150"
   height="130"
   viewBox="0 0 150 130"
   enable-background="new 0 0 216 146"
   xml:space="preserve"
   inkscape:version="0.48.3.1 r9886"
   sodipodi:docname="icon-shield.svg"><metadata
   id="metadata9"><rdf:RDF><cc:Work
       rdf:about=""><dc:format>image/svg+xml</dc:format><dc:type
         rdf:resource="http://purl.org/dc/dcmitype/StillImage" /></cc:Work></rdf:RDF></metadata><defs
   id="defs7" /><sodipodi:namedview
   pagecolor="#ffffff"
   bordercolor="#666666"
   borderopacity="1"
   objecttolerance="10"
   gridtolerance="10"
   guidetolerance="10"
   inkscape:pageopacity="0"
   inkscape:pageshadow="2"
   inkscape:window-width="640"
   inkscape:window-height="480"
   id="namedview5"
   showgrid="false"
   inkscape:zoom="1.4305556"
   inkscape:cx="108"
   inkscape:cy="73"
   inkscape:window-x="148"
   inkscape:window-y="77"
   inkscape:window-maximized="0"
   inkscape:current-layer="Capa_1" />
<path
   d="m 115.61031,14.574088 c -0.79758,-0.847535 -1.74185,-1.271302 -2.83206,-1.271302 H 40.311663 c -1.09097,0 -2.034472,0.423767 -2.831275,1.271302 -0.796803,0.847535 -1.195204,1.851107 -1.195204,3.010719 V 68.97152 c 0,3.8369 0.701835,7.639308 2.107049,11.408866 1.404443,3.769558 3.144746,7.115349 5.220912,10.037372 2.076166,2.922024 4.549961,5.766028 7.42293,8.531196 2.872967,2.766796 5.525117,5.063026 7.957219,6.892776 2.432102,1.82894 4.969208,3.55768 7.61132,5.18458 2.642112,1.62691 4.519076,2.73232 5.630123,3.3113 1.111045,0.58063 2.002043,1.02657 2.672995,1.33865 0.503406,0.2669 1.048506,0.40159 1.636071,0.40159 0.588337,0 1.132665,-0.13469 1.636071,-0.40159 0.670951,-0.31208 1.56195,-0.75802 2.672995,-1.33865 1.110274,-0.57898 2.988783,-1.68439 5.630123,-3.3113 2.641341,-1.6269 5.179217,-3.35564 7.610549,-5.18458 2.432872,-1.82975 5.085017,-4.12598 7.957989,-6.892776 2.8722,-2.765168 5.34676,-5.609172 7.42215,-8.531196 2.07617,-2.922023 3.81647,-6.267814 5.22246,-10.037372 1.40598,-3.769558 2.10705,-7.571966 2.10705,-11.408866 V 17.584807 c 0,-1.160433 -0.3984,-2.163184 -1.19288,-3.010719 z M 104.7253,68.97152 c 0,7.851192 -4.927519,15.880597 -14.78255,24.088214 -3.941542,3.2998 -8.408892,6.35569 -13.398947,9.166016 V 26.148848 H 104.7253 V 68.97152 z"
   id="path3"
   inkscape:connector-curvature="0" />
</svg>