<?xml version="1.0" encoding="UTF-8" standalone="no"?>
<!-- Generator: Adobe Illustrator 16.0.4, SVG Export Plug-In . SVG Version: 6.00 Build 0)  -->

<svg
   xmlns:dc="http://purl.org/dc/elements/1.1/"
   xmlns:cc="http://creativecommons.org/ns#"
   xmlns:rdf="http://www.w3.org/1999/02/22-rdf-syntax-ns#"
   xmlns:svg="http://www.w3.org/2000/svg"
   xmlns="http://www.w3.org/2000/svg"
   xmlns:sodipodi="http://sodipodi.sourceforge.net/DTD/sodipodi-0.dtd"
   xmlns:inkscape="http://www.inkscape.org/namespaces/inkscape"
   version="1.1"
   id="Capa_1"
   x="0px"
   y="0px"
   width="150"
   height="130"
   viewBox="0 0 150 130"
   enable-background="new 0 0 216 146"
   xml:space="preserve"
   inkscape:version="0.48.3.1 r9886"
   sodipodi:docname="icon-renren.svg"><metadata
   id="metadata15"><rdf:RDF><cc:Work
       rdf:about=""><dc:format>image/svg+xml</dc:format><dc:type
         rdf:resource="http://purl.org/dc/dcmitype/StillImage" /></cc:Work></rdf:RDF></metadata><defs
   id="defs13" /><sodipodi:namedview
   pagecolor="#ffffff"
   bordercolor="#666666"
   borderopacity="1"
   objecttolerance="10"
   gridtolerance="10"
   guidetolerance="10"
   inkscape:pageopacity="0"
   inkscape:pageshadow="2"
   inkscape:window-width="640"
   inkscape:window-height="480"
   id="namedview11"
   showgrid="false"
   inkscape:zoom="1.4305556"
   inkscape:cx="108"
   inkscape:cy="73"
   inkscape:window-x="246"
   inkscape:window-y="63"
   inkscape:window-maximized="0"
   inkscape:current-layer="Capa_1" />
<g
   id="g3"
   transform="matrix(0.81008286,0,0,0.82524554,-13.741376,4.0967072)">
	<path
   d="M 97.409,50.514 V 10.999 c -9.723,1.629 -18.549,5.35 -26.48,11.162 -7.93,5.812 -14.163,13.131 -18.698,21.957 -4.535,8.828 -6.803,18.319 -6.803,28.476 0,15.208 4.916,28.651 14.747,40.329 11.081,-5.377 20.056,-13.7 26.927,-24.972 6.871,-11.272 10.307,-23.749 10.307,-37.437 z"
   id="path5"
   inkscape:connector-curvature="0" />
	<path
   d="M 163.768,44.116 C 159.233,35.29 153.001,27.97 145.071,22.159 137.141,16.347 128.313,12.627 118.592,10.998 v 39.515 c 0,13.688 3.437,26.166 10.306,37.438 6.871,11.271 15.849,19.595 26.929,24.972 9.831,-11.678 14.745,-25.121 14.745,-40.329 -0.002,-10.158 -2.267,-19.65 -6.804,-28.478 z"
   id="path7"
   inkscape:connector-curvature="0" />
	<path
   d="m 118.551,110.152 c -5.295,-6.734 -8.895,-14.014 -10.795,-21.836 -1.847,7.822 -5.418,15.102 -10.714,21.836 -5.296,6.734 -11.691,12.465 -19.187,17.19 9.288,5.105 19.255,7.658 29.901,7.658 10.7,0 20.694,-2.553 29.98,-7.658 -7.494,-4.725 -13.888,-10.455 -19.185,-17.19 z"
   id="path9"
   inkscape:connector-curvature="0" />
</g>
</svg>