<?xml version="1.0" encoding="UTF-8" standalone="no"?>
<!-- Generator: Adobe Illustrator 16.0.4, SVG Export Plug-In . SVG Version: 6.00 Build 0)  -->

<svg
   xmlns:dc="http://purl.org/dc/elements/1.1/"
   xmlns:cc="http://creativecommons.org/ns#"
   xmlns:rdf="http://www.w3.org/1999/02/22-rdf-syntax-ns#"
   xmlns:svg="http://www.w3.org/2000/svg"
   xmlns="http://www.w3.org/2000/svg"
   xmlns:sodipodi="http://sodipodi.sourceforge.net/DTD/sodipodi-0.dtd"
   xmlns:inkscape="http://www.inkscape.org/namespaces/inkscape"
   version="1.1"
   id="Capa_1"
   x="0px"
   y="0px"
   width="150"
   height="130"
   viewBox="0 0 150 130"
   enable-background="new 0 0 216 146"
   xml:space="preserve"
   inkscape:version="0.48.3.1 r9886"
   sodipodi:docname="icon-fluffy.svg"><metadata
   id="metadata9"><rdf:RDF><cc:Work
       rdf:about=""><dc:format>image/svg+xml</dc:format><dc:type
         rdf:resource="http://purl.org/dc/dcmitype/StillImage" /></cc:Work></rdf:RDF></metadata><defs
   id="defs7" /><sodipodi:namedview
   pagecolor="#ffffff"
   bordercolor="#666666"
   borderopacity="1"
   objecttolerance="10"
   gridtolerance="10"
   guidetolerance="10"
   inkscape:pageopacity="0"
   inkscape:pageshadow="2"
   inkscape:window-width="640"
   inkscape:window-height="480"
   id="namedview5"
   showgrid="false"
   inkscape:zoom="1.4305556"
   inkscape:cx="108"
   inkscape:cy="73"
   inkscape:window-x="65"
   inkscape:window-y="24"
   inkscape:window-maximized="0"
   inkscape:current-layer="Capa_1" />
<path
   d="m 130.75232,72.673865 c -3.42039,-4.188756 -7.75848,-6.884585 -13.01127,-8.08675 1.67046,-2.525356 2.50418,-5.291293 2.50418,-8.297073 0,-4.24927 -1.52725,-7.876426 -4.58101,-10.882944 -3.05375,-3.00578 -6.73881,-4.509038 -11.0559,-4.509038 -3.90923,0 -7.289126,1.242753 -10.139706,3.728259 C 92.067154,38.934303 88.247891,34.3249 83.016092,30.797371 77.782793,27.27058 71.94894,25.506077 65.514532,25.506077 c -8.632694,0 -16.004297,3.007256 -22.112561,9.019553 -6.109014,6.011559 -9.162771,13.267347 -9.162771,21.76515 0,0.601451 0.04124,1.46267 0.12221,2.585133 -4.723464,2.164486 -8.531476,5.441103 -11.422536,9.831327 -2.89106,4.38801 -4.33734,9.229138 -4.33734,14.520431 0,7.415191 2.678129,13.758104 8.032888,19.028739 5.354759,5.2721 11.799664,7.90742 19.333215,7.90742 h 66.462133 c 6.47415,0 12.0021,-2.256 16.58386,-6.7643 4.58101,-4.509035 6.87227,-9.950142 6.87227,-16.324047 -7.5e-4,-5.411584 -1.71244,-10.213599 -5.13358,-14.401618 z"
   id="path3"
   inkscape:connector-curvature="0" />
</svg>