<?xml version="1.0" encoding="UTF-8" standalone="no"?>
<!-- Generator: Adobe Illustrator 16.0.4, SVG Export Plug-In . SVG Version: 6.00 Build 0)  -->

<svg
   xmlns:dc="http://purl.org/dc/elements/1.1/"
   xmlns:cc="http://creativecommons.org/ns#"
   xmlns:rdf="http://www.w3.org/1999/02/22-rdf-syntax-ns#"
   xmlns:svg="http://www.w3.org/2000/svg"
   xmlns="http://www.w3.org/2000/svg"
   xmlns:sodipodi="http://sodipodi.sourceforge.net/DTD/sodipodi-0.dtd"
   xmlns:inkscape="http://www.inkscape.org/namespaces/inkscape"
   version="1.1"
   id="Capa_1"
   x="0px"
   y="0px"
   width="150"
   height="130"
   viewBox="0 0 150 130"
   enable-background="new 0 0 216 146"
   xml:space="preserve"
   inkscape:version="0.48.3.1 r9886"
   sodipodi:docname="exclamation9.svg"><metadata
   id="metadata13"><rdf:RDF><cc:Work
       rdf:about=""><dc:format>image/svg+xml</dc:format><dc:type
         rdf:resource="http://purl.org/dc/dcmitype/StillImage" /></cc:Work></rdf:RDF></metadata><defs
   id="defs11" /><sodipodi:namedview
   pagecolor="#ffffff"
   bordercolor="#666666"
   borderopacity="1"
   objecttolerance="10"
   gridtolerance="10"
   guidetolerance="10"
   inkscape:pageopacity="0"
   inkscape:pageshadow="2"
   inkscape:window-width="640"
   inkscape:window-height="480"
   id="namedview9"
   showgrid="false"
   inkscape:zoom="1.4305556"
   inkscape:cx="108"
   inkscape:cy="73"
   inkscape:window-x="65"
   inkscape:window-y="24"
   inkscape:window-maximized="0"
   inkscape:current-layer="Capa_1" />
<g
   id="g3"
   transform="matrix(0.59429027,0,0,0.68922831,14.806999,14.026139)">
	<path
   d="M 118.428,101.679 H 97.571 c -1.413,0 -2.635,0.517 -3.667,1.548 -1.032,1.032 -1.548,2.254 -1.548,3.666 v 18.25 c 0,1.412 0.516,2.635 1.548,3.668 1.033,1.03 2.254,1.547 3.667,1.547 h 20.859 c 1.411,0 2.633,-0.517 3.666,-1.547 1.031,-1.033 1.547,-2.256 1.547,-3.668 v -18.25 c 0,-1.412 -0.517,-2.634 -1.549,-3.666 -1.032,-1.032 -2.254,-1.548 -3.666,-1.548 z"
   id="path5"
   inkscape:connector-curvature="0" />
	<path
   d="m 124.661,17.19 c -1.005,-1.031 -2.213,-1.548 -3.626,-1.548 H 94.964 c -1.412,0 -2.62,0.517 -3.625,1.548 -1.005,1.032 -1.48,2.255 -1.426,3.667 l 2.281,62.571 c 0.054,1.412 0.61,2.635 1.67,3.666 1.059,1.032 2.294,1.549 3.707,1.549 h 20.859 c 1.411,0 2.646,-0.517 3.707,-1.549 1.059,-1.031 1.614,-2.254 1.67,-3.666 l 2.28,-62.571 c 0.056,-1.412 -0.421,-2.634 -1.426,-3.667 z"
   id="path7"
   inkscape:connector-curvature="0" />
</g>
</svg>