<?xml version="1.0" encoding="UTF-8" standalone="no"?>
<!-- Generator: Adobe Illustrator 16.0.4, SVG Export Plug-In . SVG Version: 6.00 Build 0)  -->

<svg
   xmlns:dc="http://purl.org/dc/elements/1.1/"
   xmlns:cc="http://creativecommons.org/ns#"
   xmlns:rdf="http://www.w3.org/1999/02/22-rdf-syntax-ns#"
   xmlns:svg="http://www.w3.org/2000/svg"
   xmlns="http://www.w3.org/2000/svg"
   xmlns:sodipodi="http://sodipodi.sourceforge.net/DTD/sodipodi-0.dtd"
   xmlns:inkscape="http://www.inkscape.org/namespaces/inkscape"
   version="1.1"
   id="Capa_1"
   x="0px"
   y="0px"
   width="150"
   height="130"
   viewBox="0 0 150 130"
   enable-background="new 0 0 216 146"
   xml:space="preserve"
   inkscape:version="0.48.3.1 r9886"
   sodipodi:docname="icon-github.svg"><metadata
   id="metadata9"><rdf:RDF><cc:Work
       rdf:about=""><dc:format>image/svg+xml</dc:format><dc:type
         rdf:resource="http://purl.org/dc/dcmitype/StillImage" /></cc:Work></rdf:RDF></metadata><defs
   id="defs7" /><sodipodi:namedview
   pagecolor="#ffffff"
   bordercolor="#666666"
   borderopacity="1"
   objecttolerance="10"
   gridtolerance="10"
   guidetolerance="10"
   inkscape:pageopacity="0"
   inkscape:pageshadow="2"
   inkscape:window-width="640"
   inkscape:window-height="480"
   id="namedview5"
   showgrid="false"
   inkscape:zoom="1.4305556"
   inkscape:cx="108"
   inkscape:cy="73"
   inkscape:window-x="65"
   inkscape:window-y="24"
   inkscape:window-maximized="0"
   inkscape:current-layer="Capa_1" />
<path
   d="M 119.17514,43.944594 C 114.73646,36.27886 108.7151,30.20992 101.11025,25.736176 93.503813,21.262433 85.200042,19.025961 76.193381,19.025961 c -9.005869,0 -17.312021,2.237271 -24.91687,6.710215 -7.605643,4.473744 -13.627009,10.542684 -18.065683,18.208418 -4.438674,7.665734 -6.657615,16.036712 -6.657615,25.112935 0,10.901702 3.155862,20.705557 9.469172,29.413161 6.312517,8.70761 14.467144,14.73337 24.463879,18.07729 1.163814,0.21749 2.025369,0.0648 2.585459,-0.45497 0.56009,-0.52134 0.840135,-1.17301 0.840135,-1.95422 0,-0.13033 -0.01111,-1.30254 -0.03253,-3.51742 -0.02221,-2.21569 -0.03253,-4.14831 -0.03253,-5.79708 l -1.486698,0.25907 c -0.948028,0.17511 -2.143574,0.24947 -3.587433,0.22788 -1.443065,-0.02 -2.94087,-0.17271 -4.491827,-0.45577 -1.551751,-0.28145 -2.994816,-0.93233 -4.330782,-1.95261 -1.335172,-1.02109 -2.2832,-2.35721 -2.84329,-4.00678 l -0.646563,-1.49924 c -0.430778,-0.9979 -1.109074,-2.10614 -2.035682,-3.32153 -0.926608,-1.21618 -1.863529,-2.04137 -2.811557,-2.47555 l -0.452197,-0.325436 c -0.301465,-0.21749 -0.58151,-0.478958 -0.840136,-0.782805 -0.258625,-0.303847 -0.452197,-0.607693 -0.58151,-0.91234 -0.129312,-0.303847 -0.02221,-0.55412 0.322885,-0.750022 0.345098,-0.195901 0.969448,-0.291852 1.874636,-0.291852 l 1.292333,0.195101 c 0.861555,0.173513 1.927789,0.69405 3.199495,1.563212 1.270912,0.868362 2.315726,1.997392 3.134442,3.386292 0.991661,1.7815 2.186414,3.13842 3.587432,4.07235 1.400226,0.93392 2.811557,1.40009 4.233203,1.40009 1.421645,0 2.649718,-0.10875 3.684218,-0.32544 1.033708,-0.21669 2.003155,-0.54292 2.908344,-0.9771 0.387937,-2.91053 1.443858,-5.14701 3.166968,-6.710219 -2.456146,-0.260668 -4.66398,-0.652471 -6.625088,-1.173008 -1.960316,-0.521337 -3.985684,-1.36811 -6.075312,-2.541918 -2.090421,-1.172209 -3.824638,-2.627475 -5.203444,-4.364199 -1.378805,-1.737524 -2.510092,-4.017974 -3.393067,-6.84055 -0.882975,-2.823377 -1.324859,-6.080134 -1.324859,-9.771872 0,-5.25575 1.702484,-9.728694 5.106658,-13.420432 -1.594591,-3.951607 -1.443859,-8.381373 0.452197,-13.289298 1.249493,-0.391003 3.102709,-0.09755 5.558855,0.879556 2.456145,0.977108 4.254622,1.814285 5.397015,2.508335 1.142394,0.69405 2.057895,1.281754 2.747298,1.759113 4.007897,-1.12903 8.144313,-1.693546 12.410042,-1.693546 4.265728,0 8.402938,0.564516 12.411628,1.693546 l 2.456144,-1.563212 c 1.679477,-1.042674 3.662799,-1.998192 5.945206,-2.866554 2.283994,-0.868362 4.030108,-1.107441 5.236768,-0.716439 1.93889,4.907925 2.11104,9.337691 0.51645,13.289298 3.40418,3.691739 5.10666,8.165482 5.10666,13.420432 0,3.691738 -0.44268,6.958891 -1.32486,9.803856 -0.88377,2.845765 -2.02457,5.124616 -3.4248,6.84055 -1.40102,1.715935 -3.146341,3.160007 -5.235969,4.332215 -2.090422,1.173009 -4.11579,2.019782 -6.076105,2.541119 -1.961108,0.521337 -4.168942,0.913139 -6.625087,1.173808 2.24036,1.954219 3.36054,5.037459 3.36054,9.250529 v 13.74427 c 0,0.78121 0.269732,1.43288 0.808402,1.95342 0.53867,0.52054 1.389117,0.67326 2.552931,0.45577 9.997528,-3.34392 18.152148,-9.36968 24.464668,-18.07808 6.31252,-8.706813 9.46917,-18.510668 9.46917,-29.41317 -0.002,-9.074624 -2.2229,-17.444802 -6.65999,-25.110536 z"
   id="path3"
   inkscape:connector-curvature="0" />
</svg>