<?xml version="1.0" encoding="UTF-8" standalone="no"?>
<!-- Generator: Adobe Illustrator 16.0.4, SVG Export Plug-In . SVG Version: 6.00 Build 0)  -->

<svg
   xmlns:dc="http://purl.org/dc/elements/1.1/"
   xmlns:cc="http://creativecommons.org/ns#"
   xmlns:rdf="http://www.w3.org/1999/02/22-rdf-syntax-ns#"
   xmlns:svg="http://www.w3.org/2000/svg"
   xmlns="http://www.w3.org/2000/svg"
   xmlns:sodipodi="http://sodipodi.sourceforge.net/DTD/sodipodi-0.dtd"
   xmlns:inkscape="http://www.inkscape.org/namespaces/inkscape"
   version="1.1"
   id="Capa_1"
   x="0px"
   y="0px"
   width="150"
   height="130"
   viewBox="0 0 150 130"
   enable-background="new 0 0 216 146"
   xml:space="preserve"
   inkscape:version="0.48.3.1 r9886"
   sodipodi:docname="icon-magic.svg"><metadata
   id="metadata19"><rdf:RDF><cc:Work
       rdf:about=""><dc:format>image/svg+xml</dc:format><dc:type
         rdf:resource="http://purl.org/dc/dcmitype/StillImage" /></cc:Work></rdf:RDF></metadata><defs
   id="defs17" /><sodipodi:namedview
   pagecolor="#ffffff"
   bordercolor="#666666"
   borderopacity="1"
   objecttolerance="10"
   gridtolerance="10"
   guidetolerance="10"
   inkscape:pageopacity="0"
   inkscape:pageshadow="2"
   inkscape:window-width="640"
   inkscape:window-height="480"
   id="namedview15"
   showgrid="false"
   inkscape:zoom="1.4305556"
   inkscape:cx="108"
   inkscape:cy="73"
   inkscape:window-x="65"
   inkscape:window-y="24"
   inkscape:window-maximized="0"
   inkscape:current-layer="Capa_1" />
<g
   id="g3"
   transform="matrix(0.68028689,0,0,0.7222144,1.3251319,13.016352)">
	<path
   d="m 172.484,29.778 c 0,-1.466 -0.487,-2.688 -1.465,-3.665 L 154.887,9.981 c -0.978,-0.978 -2.199,-1.467 -3.666,-1.467 -1.467,0 -2.688,0.489 -3.666,1.467 L 42.781,114.755 c -0.979,0.978 -1.467,2.2 -1.467,3.667 0,1.467 0.488,2.688 1.467,3.666 l 16.131,16.132 c 0.979,0.978 2.2,1.466 3.667,1.466 1.466,0 2.688,-0.487 3.666,-1.466 L 171.02,33.445 c 0.977,-0.979 1.464,-2.2 1.464,-3.667 z m -36.418,23.872 -8.717,-8.718 23.871,-23.872 8.717,8.718 -23.871,23.872 z"
   id="path5"
   inkscape:connector-curvature="0" />
	<polygon
   points="59.972,27.171 62.416,19.187 70.4,16.743 62.416,14.299 59.972,6.315 57.528,14.299 49.544,16.743 57.528,19.187 "
   id="polygon7" />
	<polygon
   points="81.154,37.275 86.043,53.244 90.932,37.275 106.901,32.386 90.932,27.497 86.043,11.528 81.154,27.497 65.185,32.386 "
   id="polygon9" />
	<polygon
   points="166.701,66.441 164.257,58.457 161.814,66.441 153.83,68.885 161.814,71.329 164.257,79.312 166.701,71.329 174.686,68.885 "
   id="polygon11" />
	<polygon
   points="112.115,27.171 114.559,19.187 122.543,16.743 114.559,14.299 112.115,6.315 109.671,14.299 101.687,16.743 109.671,19.187 "
   id="polygon13" />
</g>
</svg>