<?xml version="1.0" encoding="UTF-8" standalone="no"?>
<!-- Generator: Adobe Illustrator 16.0.4, SVG Export Plug-In . SVG Version: 6.00 Build 0)  -->

<svg
   xmlns:dc="http://purl.org/dc/elements/1.1/"
   xmlns:cc="http://creativecommons.org/ns#"
   xmlns:rdf="http://www.w3.org/1999/02/22-rdf-syntax-ns#"
   xmlns:svg="http://www.w3.org/2000/svg"
   xmlns="http://www.w3.org/2000/svg"
   xmlns:sodipodi="http://sodipodi.sourceforge.net/DTD/sodipodi-0.dtd"
   xmlns:inkscape="http://www.inkscape.org/namespaces/inkscape"
   version="1.1"
   id="Capa_1"
   x="0px"
   y="0px"
   width="150"
   height="130"
   viewBox="0 0 150 130"
   enable-background="new 0 0 216 146"
   xml:space="preserve"
   inkscape:version="0.48.3.1 r9886"
   sodipodi:docname="icon-search.svg"><metadata
   id="metadata9"><rdf:RDF><cc:Work
       rdf:about=""><dc:format>image/svg+xml</dc:format><dc:type
         rdf:resource="http://purl.org/dc/dcmitype/StillImage" /></cc:Work></rdf:RDF></metadata><defs
   id="defs7" /><sodipodi:namedview
   pagecolor="#ffffff"
   bordercolor="#666666"
   borderopacity="1"
   objecttolerance="10"
   gridtolerance="10"
   guidetolerance="10"
   inkscape:pageopacity="0"
   inkscape:pageshadow="2"
   inkscape:window-width="643"
   inkscape:window-height="480"
   id="namedview5"
   showgrid="false"
   inkscape:zoom="1.4305556"
   inkscape:cx="108"
   inkscape:cy="64.961165"
   inkscape:window-x="65"
   inkscape:window-y="24"
   inkscape:window-maximized="0"
   inkscape:current-layer="Capa_1" />
<path
   d="M 121.89658,102.0002 101.87645,81.547912 c 4.82504,-7.115302 7.23863,-15.046647 7.23863,-23.791838 0,-5.684484 -1.08035,-11.120862 -3.24033,-16.308402 -2.15927,-5.188272 -5.07793,-9.660037 -8.755273,-13.416759 -3.67735,-3.756721 -8.05391,-6.738386 -13.131835,-8.944261 -5.07936,-2.206608 -10.400868,-3.309545 -15.965239,-3.309545 -5.564372,0 -10.88588,1.102937 -15.963808,3.309545 -5.078644,2.205875 -9.455921,5.18754 -13.133263,8.944261 -3.677342,3.756722 -6.596005,8.229219 -8.75527,13.416759 -2.159982,5.188272 -3.239615,10.623918 -3.239615,16.308402 0,5.684484 1.079633,11.119398 3.239615,16.308402 2.159265,5.18754 5.077928,9.658573 8.75527,13.415295 3.677342,3.757451 8.055336,6.738381 13.133263,8.944991 5.078645,2.20661 10.399436,3.30955 15.963808,3.30955 8.561839,0 16.324878,-2.46569 23.289834,-7.39488 L 111.33237,112.7317 c 1.40059,1.51059 3.15007,2.26589 5.25273,2.26589 2.02315,0 3.7755,-0.7553 5.25274,-2.26589 1.47867,-1.50986 2.21801,-3.2993 2.21801,-5.36612 7.1e-4,-2.10561 -0.71856,-3.89504 -2.15927,-5.36538 z M 86.496517,76.627507 c -5.11733,5.227793 -11.274891,7.841324 -18.474114,7.841324 -7.198508,0 -13.356068,-2.614262 -18.473399,-7.841324 -5.11733,-5.227793 -7.675637,-11.517539 -7.675637,-18.872165 0,-7.353894 2.559023,-13.645104 7.675637,-18.872165 5.116614,-5.227793 11.274891,-7.841324 18.473399,-7.841324 7.198507,0 13.356067,2.614262 18.474114,7.841324 5.11733,5.227061 7.67635,11.518271 7.67635,18.872165 0,7.354626 -2.55974,13.644372 -7.67635,18.872165 z"
   id="path3"
   inkscape:connector-curvature="0" />
</svg>