<?xml version="1.0" encoding="UTF-8" standalone="no"?>
<!-- Generator: Adobe Illustrator 16.0.4, SVG Export Plug-In . SVG Version: 6.00 Build 0)  -->

<svg
   xmlns:dc="http://purl.org/dc/elements/1.1/"
   xmlns:cc="http://creativecommons.org/ns#"
   xmlns:rdf="http://www.w3.org/1999/02/22-rdf-syntax-ns#"
   xmlns:svg="http://www.w3.org/2000/svg"
   xmlns="http://www.w3.org/2000/svg"
   xmlns:sodipodi="http://sodipodi.sourceforge.net/DTD/sodipodi-0.dtd"
   xmlns:inkscape="http://www.inkscape.org/namespaces/inkscape"
   version="1.1"
   id="Capa_1"
   x="0px"
   y="0px"
   width="150"
   height="130"
   viewBox="0 0 150 130"
   enable-background="new 0 0 216 146"
   xml:space="preserve"
   inkscape:version="0.48.3.1 r9886"
   sodipodi:docname="icon-bitbucket.svg"><metadata
   id="metadata15"><rdf:RDF><cc:Work
       rdf:about=""><dc:format>image/svg+xml</dc:format><dc:type
         rdf:resource="http://purl.org/dc/dcmitype/StillImage" /></cc:Work></rdf:RDF></metadata><defs
   id="defs13" /><sodipodi:namedview
   pagecolor="#ffffff"
   bordercolor="#666666"
   borderopacity="1"
   objecttolerance="10"
   gridtolerance="10"
   guidetolerance="10"
   inkscape:pageopacity="0"
   inkscape:pageshadow="2"
   inkscape:window-width="640"
   inkscape:window-height="480"
   id="namedview11"
   showgrid="false"
   inkscape:zoom="2.0153513"
   inkscape:cx="107.9995"
   inkscape:cy="80.476371"
   inkscape:window-x="222"
   inkscape:window-y="24"
   inkscape:window-maximized="0"
   inkscape:current-layer="Capa_1" />
<g
   id="g3"
   transform="matrix(0.88897835,0,0,0.88898013,-27.70503,-0.45262348)">
	<path
   d="m 163.686,17.313 c -4.588,-4.589 -10.115,-6.884 -16.578,-6.884 H 68.893 c -6.463,0 -11.99,2.295 -16.58,6.884 -4.589,4.59 -6.884,10.117 -6.884,16.58 v 78.214 c 0,6.463 2.295,11.99 6.884,16.58 4.59,4.59 10.117,6.885 16.58,6.885 h 78.214 c 6.463,0 11.99,-2.295 16.578,-6.885 4.59,-4.59 6.885,-10.117 6.885,-16.58 V 33.893 c 0,-6.463 -2.295,-11.991 -6.884,-16.58 z m -24.767,79.029 c -0.299,1.059 -0.446,1.779 -0.446,2.159 -0.272,0.978 -0.613,2.906 -1.021,5.785 -0.406,2.879 -1.019,5.2 -1.832,6.967 -0.815,1.764 -2.146,3.163 -3.992,4.194 -9.723,5.377 -21.347,6.816 -34.871,4.318 -8.528,-1.467 -14.068,-4.399 -16.621,-8.799 -0.814,-3.042 -1.928,-8.745 -3.34,-17.109 l 0.407,-0.979 0.978,-0.488 c 8.799,5.758 18.739,8.637 29.819,8.637 11.081,0 20.993,-2.879 29.736,-8.637 0.816,0.217 1.291,0.665 1.427,1.344 0.137,0.68 0.055,1.549 -0.244,2.608 z M 149.062,42.04 c -1.737,11.189 -3.912,24.034 -6.518,38.536 -0.218,1.141 -0.748,2.227 -1.589,3.259 -0.841,1.032 -1.683,1.819 -2.524,2.362 -0.843,0.544 -1.916,1.168 -3.22,1.873 -9.831,4.945 -21.78,6.654 -35.848,5.134 C 89.641,92.119 81.928,89.402 76.225,85.057 75.519,84.461 74.922,83.701 74.433,82.776 73.944,81.854 73.618,81.121 73.455,80.578 73.292,80.035 73.102,79.056 72.885,77.643 72.668,76.231 72.532,75.389 72.478,75.119 72.151,73.164 71.5,69.443 70.522,63.957 69.544,58.471 68.757,53.827 68.159,50.025 c -0.597,-3.802 -1.113,-7.55 -1.548,-11.243 0.217,-1.629 1.018,-3.095 2.403,-4.399 1.385,-1.304 2.662,-2.228 3.829,-2.771 1.168,-0.543 2.784,-1.222 4.848,-2.037 5.106,-1.847 11.244,-3.096 18.413,-3.747 14.719,-1.466 27.945,-0.489 39.677,2.933 6.084,1.793 10.293,4.183 12.629,7.17 0.923,1.194 1.141,3.23 0.652,6.109 z"
   id="path5"
   inkscape:connector-curvature="0" />
	<path
   d="m 114.396,59.963 c -3.883,-2.226 -7.727,-2.498 -11.528,-0.814 -2.444,1.086 -4.413,2.824 -5.907,5.214 -1.494,2.39 -2.186,4.916 -2.078,7.577 0.163,3.64 1.684,6.708 4.562,9.207 2.879,2.498 6.111,3.586 9.696,3.26 3.584,-0.326 6.571,-1.983 8.963,-4.971 2.39,-2.986 3.367,-6.272 2.933,-9.857 -0.544,-4.183 -2.758,-7.388 -6.641,-9.616 z m -2.811,16.785 c -2.28,1.466 -4.481,1.574 -6.599,0.324 -2.336,-0.977 -3.517,-2.891 -3.544,-5.742 -0.027,-2.851 1.127,-4.821 3.463,-5.907 1.955,-1.195 4.046,-1.168 6.273,0.081 2.227,1.25 3.34,3.042 3.34,5.378 0.326,2.444 -0.652,4.399 -2.933,5.866 z"
   id="path7"
   inkscape:connector-curvature="0" />
	<path
   d="m 131.873,35.157 c -1.357,-0.679 -2.525,-1.114 -3.504,-1.304 -0.977,-0.189 -2.362,-0.421 -4.154,-0.692 -11.408,-1.847 -22.488,-1.819 -33.242,0.082 -1.629,0.271 -2.905,0.501 -3.829,0.692 -0.924,0.191 -2.01,0.612 -3.259,1.263 -1.249,0.651 -2.227,1.494 -2.933,2.525 1.141,1.086 2.621,1.969 4.44,2.648 1.819,0.679 3.245,1.114 4.277,1.304 1.032,0.189 2.743,0.447 5.133,0.773 9.18,1.087 17.978,1.087 26.397,0 2.391,-0.271 4.115,-0.488 5.174,-0.651 1.059,-0.163 2.499,-0.597 4.318,-1.304 1.818,-0.707 3.271,-1.63 4.358,-2.771 -0.76,-1.032 -1.82,-1.887 -3.176,-2.565 z"
   id="path9"
   inkscape:connector-curvature="0" />
</g>
</svg>