<?xml version="1.0" encoding="UTF-8" standalone="no"?>
<!-- Generator: Adobe Illustrator 16.0.4, SVG Export Plug-In . SVG Version: 6.00 Build 0)  -->

<svg
   xmlns:dc="http://purl.org/dc/elements/1.1/"
   xmlns:cc="http://creativecommons.org/ns#"
   xmlns:rdf="http://www.w3.org/1999/02/22-rdf-syntax-ns#"
   xmlns:svg="http://www.w3.org/2000/svg"
   xmlns="http://www.w3.org/2000/svg"
   xmlns:sodipodi="http://sodipodi.sourceforge.net/DTD/sodipodi-0.dtd"
   xmlns:inkscape="http://www.inkscape.org/namespaces/inkscape"
   version="1.1"
   id="Capa_1"
   x="0px"
   y="0px"
   width="150"
   height="130"
   viewBox="0 0 150 130"
   enable-background="new 0 0 216 146"
   xml:space="preserve"
   inkscape:version="0.48.3.1 r9886"
   sodipodi:docname="icon-stethoscope.svg"><metadata
   id="metadata9"><rdf:RDF><cc:Work
       rdf:about=""><dc:format>image/svg+xml</dc:format><dc:type
         rdf:resource="http://purl.org/dc/dcmitype/StillImage" /></cc:Work></rdf:RDF></metadata><defs
   id="defs7" /><sodipodi:namedview
   pagecolor="#ffffff"
   bordercolor="#666666"
   borderopacity="1"
   objecttolerance="10"
   gridtolerance="10"
   guidetolerance="10"
   inkscape:pageopacity="0"
   inkscape:pageshadow="2"
   inkscape:window-width="640"
   inkscape:window-height="480"
   id="namedview5"
   showgrid="false"
   inkscape:zoom="1.4305556"
   inkscape:cx="108"
   inkscape:cy="73"
   inkscape:window-x="65"
   inkscape:window-y="24"
   inkscape:window-maximized="0"
   inkscape:current-layer="Capa_1" />
<path
   d="m 115.20981,42.538193 c -2.20786,-2.361538 -4.88894,-3.542695 -8.0425,-3.542695 -3.15357,0 -5.83392,1.181157 -8.041781,3.542695 -2.20713,2.362315 -3.31106,5.230174 -3.31106,8.605131 0,2.614699 0.69966,4.956046 2.09899,7.022489 1.40005,2.06722 3.222511,3.542696 5.470291,4.428758 v 24.991456 c 0,4.471469 -1.85367,8.289073 -5.558111,11.452023 -3.7059,3.16295 -8.16008,4.74482 -13.364738,4.74482 -5.203204,0 -9.658116,-1.58187 -13.36401,-4.74482 -3.705168,-3.16295 -5.558116,-6.980554 -5.558116,-11.452023 v -8.351194 c 6.465356,-0.843351 11.865975,-3.543472 16.202583,-8.099586 4.336611,-4.554561 6.505271,-9.869381 6.505271,-15.943683 V 22.798655 c 0,-1.096512 -0.37523,-2.046252 -1.12425,-2.847669 -0.74829,-0.80064 -1.63666,-1.202124 -2.661478,-1.202124 -0.235883,0 -0.551602,0.04271 -0.945708,0.12658 -0.670631,-1.265803 -1.596742,-2.276892 -2.779783,-3.037151 -1.18159,-0.759482 -2.463339,-1.138446 -3.843069,-1.138446 -2.08883,0 -3.872827,0.791321 -5.351265,2.37241 -1.478439,1.581866 -2.217295,3.490666 -2.217295,5.7264 0,2.234958 0.738856,4.143758 2.217295,5.725623 1.478438,1.581866 3.262435,2.37241 5.351265,2.37241 1.300619,0 2.562046,-0.378964 3.78428,-1.138446 v 25.434099 c 0,4.471469 -1.852948,8.288292 -5.558116,11.4528 -3.705894,3.162178 -8.160806,4.743266 -13.36401,4.743266 -5.203203,0 -9.658115,-1.581088 -13.364009,-4.743266 C 44.685317,63.48141 42.83237,59.664586 42.83237,55.192341 V 29.758242 c 1.221508,0.759482 2.483661,1.138446 3.78428,1.138446 2.08883,0 3.872827,-0.790544 5.351265,-2.37241 1.478439,-1.581865 2.217295,-3.490665 2.217295,-5.725623 0,-2.235734 -0.738856,-4.144534 -2.217295,-5.7264 -1.478438,-1.581089 -3.262435,-2.37241 -5.351265,-2.37241 -1.379731,0 -2.661479,0.378964 -3.843795,1.138446 -1.182315,0.759482 -2.109151,1.771348 -2.779057,3.037151 -0.394831,-0.08387 -0.709825,-0.12658 -0.946433,-0.12658 -1.025545,0 -1.912462,0.401484 -2.66148,1.202124 -0.749017,0.801417 -1.123526,1.751157 -1.123526,2.847669 v 32.393686 c 0,6.073525 2.167941,11.387568 6.504549,15.943682 4.336607,4.555338 9.737226,7.256236 16.202582,8.099587 v 8.351194 c 0,6.707206 2.591803,12.432826 7.776136,17.176866 5.184333,4.7456 11.422516,7.11801 18.715275,7.11801 7.294208,0 13.531668,-2.37241 18.715999,-7.11801 5.18506,-4.74404 7.77541,-10.46966 7.77541,-17.176866 V 62.594571 c 2.24778,-0.886062 4.07024,-2.361538 5.4703,-4.428758 1.40005,-2.066443 2.10044,-4.40779 2.10044,-7.022489 -7.3e-4,-3.37418 -1.10466,-6.242816 -3.31324,-8.605131 z m -5.37957,11.452023 c -0.74975,0.801417 -1.63666,1.202125 -2.66148,1.202125 -1.02482,0 -1.91174,-0.400708 -2.66076,-1.202125 -0.74901,-0.801416 -1.12352,-1.75038 -1.12352,-2.846892 0,-1.096511 0.37451,-2.046252 1.12352,-2.847668 0.74902,-0.80064 1.63594,-1.202125 2.66076,-1.202125 1.02482,0 1.91173,0.401485 2.66148,1.202125 0.74829,0.801416 1.1228,1.751157 1.1228,2.847668 0,1.097289 -0.37451,2.045476 -1.1228,2.846892 z"
   id="path3"
   inkscape:connector-curvature="0" />
</svg>