<?xml version="1.0" encoding="UTF-8" standalone="no"?>
<!-- Generator: Adobe Illustrator 16.0.4, SVG Export Plug-In . SVG Version: 6.00 Build 0)  -->

<svg
   xmlns:dc="http://purl.org/dc/elements/1.1/"
   xmlns:cc="http://creativecommons.org/ns#"
   xmlns:rdf="http://www.w3.org/1999/02/22-rdf-syntax-ns#"
   xmlns:svg="http://www.w3.org/2000/svg"
   xmlns="http://www.w3.org/2000/svg"
   xmlns:sodipodi="http://sodipodi.sourceforge.net/DTD/sodipodi-0.dtd"
   xmlns:inkscape="http://www.inkscape.org/namespaces/inkscape"
   version="1.1"
   id="Capa_1"
   x="0px"
   y="0px"
   width="150"
   height="130"
   viewBox="0 0 150 130"
   enable-background="new 0 0 216 146"
   xml:space="preserve"
   inkscape:version="0.48.3.1 r9886"
   sodipodi:docname="keyboard13.svg"><metadata
   id="metadata37"><rdf:RDF><cc:Work
       rdf:about=""><dc:format>image/svg+xml</dc:format><dc:type
         rdf:resource="http://purl.org/dc/dcmitype/StillImage" /></cc:Work></rdf:RDF></metadata><defs
   id="defs35" /><sodipodi:namedview
   pagecolor="#ffffff"
   bordercolor="#666666"
   borderopacity="1"
   objecttolerance="10"
   gridtolerance="10"
   guidetolerance="10"
   inkscape:pageopacity="0"
   inkscape:pageshadow="2"
   inkscape:window-width="640"
   inkscape:window-height="480"
   id="namedview33"
   showgrid="false"
   inkscape:zoom="1.4305556"
   inkscape:cx="108"
   inkscape:cy="73"
   inkscape:window-x="65"
   inkscape:window-y="24"
   inkscape:window-maximized="0"
   inkscape:current-layer="Capa_1" />
<g
   id="g3"
   transform="matrix(0.70506986,0,0,0.74677985,-1.0019141,10.873547)">
	<path
   d="m 183.159,29.127 c -2.037,-2.037 -4.495,-3.056 -7.374,-3.056 H 40.214 c -2.879,0 -5.336,1.019 -7.373,3.056 -2.037,2.037 -3.056,4.495 -3.056,7.373 v 73 c 0,2.879 1.019,5.336 3.056,7.373 2.037,2.037 4.494,3.057 7.373,3.057 h 135.571 c 2.879,0 5.337,-1.02 7.374,-3.057 2.036,-2.037 3.056,-4.494 3.056,-7.373 v -73 c 0,-2.878 -1.02,-5.336 -3.056,-7.373 z M 175.785,109.5 H 40.214 v -73 h 135.571 v 73 z"
   id="path5"
   inkscape:connector-curvature="0" />
	<path
   d="m 51.946,99.071 h 7.821 c 0.869,0 1.304,-0.435 1.304,-1.304 v -7.821 c 0,-0.868 -0.434,-1.304 -1.304,-1.304 h -7.821 c -0.869,0 -1.304,0.436 -1.304,1.304 v 7.821 c 0,0.869 0.435,1.304 1.304,1.304 z"
   id="path7"
   inkscape:connector-curvature="0" />
	<path
   d="m 51.946,78.215 h 18.25 c 0.869,0 1.304,-0.436 1.304,-1.305 v -7.821 c 0,-0.869 -0.435,-1.303 -1.304,-1.304 h -18.25 c -0.869,0 -1.304,0.435 -1.304,1.304 v 7.821 c 0,0.869 0.435,1.305 1.304,1.305 z"
   id="path9"
   inkscape:connector-curvature="0" />
	<path
   d="m 51.946,57.357 h 7.821 c 0.869,0 1.304,-0.435 1.304,-1.304 v -7.821 c 0,-0.869 -0.434,-1.303 -1.304,-1.304 h -7.821 c -0.869,0 -1.304,0.435 -1.304,1.304 v 7.821 c 0,0.869 0.435,1.304 1.304,1.304 z"
   id="path11"
   inkscape:connector-curvature="0" />
	<path
   d="M 143.197,88.643 H 72.804 c -0.869,0 -1.304,0.436 -1.304,1.304 v 7.821 c 0,0.868 0.435,1.304 1.304,1.304 h 70.391 c 0.869,0 1.305,-0.435 1.305,-1.304 v -7.821 c 0,-0.869 -0.436,-1.304 -1.303,-1.304 z"
   id="path13"
   inkscape:connector-curvature="0" />
	<path
   d="m 81.928,76.91 c 0,0.869 0.435,1.305 1.303,1.305 h 7.822 c 0.869,0 1.303,-0.436 1.303,-1.305 v -7.821 c 0,-0.869 -0.433,-1.303 -1.303,-1.304 h -7.822 c -0.868,0 -1.303,0.435 -1.303,1.304 v 7.821 z"
   id="path15"
   inkscape:connector-curvature="0" />
	<path
   d="m 72.804,57.357 h 7.821 c 0.869,0 1.304,-0.435 1.304,-1.304 v -7.821 c 0,-0.869 -0.435,-1.303 -1.304,-1.304 h -7.821 c -0.869,0 -1.304,0.435 -1.304,1.304 v 7.821 c 0,0.869 0.435,1.304 1.304,1.304 z"
   id="path17"
   inkscape:connector-curvature="0" />
	<path
   d="m 102.785,76.91 c 0,0.869 0.435,1.305 1.304,1.305 h 7.821 c 0.869,0 1.305,-0.436 1.305,-1.305 v -7.821 c 0,-0.869 -0.436,-1.303 -1.305,-1.304 h -7.821 c -0.869,0 -1.304,0.435 -1.304,1.304 v 7.821 z"
   id="path19"
   inkscape:connector-curvature="0" />
	<path
   d="m 93.66,57.357 h 7.821 c 0.869,0 1.304,-0.435 1.304,-1.304 v -7.821 c 0,-0.869 -0.434,-1.303 -1.304,-1.304 H 93.66 c -0.869,0 -1.304,0.435 -1.304,1.304 v 7.821 c 0,0.869 0.435,1.304 1.304,1.304 z"
   id="path21"
   inkscape:connector-curvature="0" />
	<path
   d="m 123.643,76.91 c 0,0.869 0.435,1.305 1.303,1.305 h 7.822 c 0.869,0 1.303,-0.436 1.303,-1.305 v -7.821 c 0,-0.869 -0.434,-1.303 -1.303,-1.304 h -7.822 c -0.868,0 -1.303,0.435 -1.303,1.304 v 7.821 z"
   id="path23"
   inkscape:connector-curvature="0" />
	<path
   d="m 164.053,88.643 h -7.82 c -0.869,0 -1.305,0.436 -1.305,1.304 v 7.821 c 0,0.868 0.436,1.304 1.305,1.304 h 7.82 c 0.869,0 1.305,-0.435 1.305,-1.304 v -7.821 c -0.001,-0.869 -0.435,-1.304 -1.305,-1.304 z"
   id="path25"
   inkscape:connector-curvature="0" />
	<path
   d="m 114.518,57.357 h 7.822 c 0.869,0 1.303,-0.435 1.303,-1.304 v -7.821 c 0,-0.869 -0.434,-1.303 -1.303,-1.304 h -7.822 c -0.869,0 -1.303,0.435 -1.303,1.304 v 7.821 c 0,0.869 0.433,1.304 1.303,1.304 z"
   id="path27"
   inkscape:connector-curvature="0" />
	<path
   d="m 135.375,57.357 h 7.82 c 0.869,0 1.305,-0.435 1.305,-1.304 v -7.821 c 0,-0.869 -0.436,-1.303 -1.305,-1.304 h -7.82 c -0.869,0 -1.305,0.435 -1.305,1.304 v 7.821 c 0,0.869 0.436,1.304 1.305,1.304 z"
   id="path29"
   inkscape:connector-curvature="0" />
	<path
   d="m 144.499,76.91 c 0,0.869 0.435,1.305 1.304,1.305 h 18.25 c 0.869,0 1.305,-0.436 1.305,-1.305 V 48.232 c 0,-0.869 -0.435,-1.303 -1.305,-1.304 h -7.82 c -0.869,0 -1.305,0.435 -1.305,1.304 v 19.553 h -9.125 c -0.869,0 -1.304,0.435 -1.304,1.304 v 7.821 z"
   id="path31"
   inkscape:connector-curvature="0" />
</g>
</svg>