<?xml version="1.0" encoding="UTF-8" standalone="no"?>
<!-- Generator: Adobe Illustrator 16.0.4, SVG Export Plug-In . SVG Version: 6.00 Build 0)  -->

<svg
   xmlns:dc="http://purl.org/dc/elements/1.1/"
   xmlns:cc="http://creativecommons.org/ns#"
   xmlns:rdf="http://www.w3.org/1999/02/22-rdf-syntax-ns#"
   xmlns:svg="http://www.w3.org/2000/svg"
   xmlns="http://www.w3.org/2000/svg"
   xmlns:sodipodi="http://sodipodi.sourceforge.net/DTD/sodipodi-0.dtd"
   xmlns:inkscape="http://www.inkscape.org/namespaces/inkscape"
   version="1.1"
   id="Capa_1"
   x="0px"
   y="0px"
   width="150"
   height="130"
   viewBox="0 0 150 130"
   enable-background="new 0 0 216 146"
   xml:space="preserve"
   inkscape:version="0.48.3.1 r9886"
   sodipodi:docname="icon-road.svg"><metadata
   id="metadata9"><rdf:RDF><cc:Work
       rdf:about=""><dc:format>image/svg+xml</dc:format><dc:type
         rdf:resource="http://purl.org/dc/dcmitype/StillImage" /></cc:Work></rdf:RDF></metadata><defs
   id="defs7" /><sodipodi:namedview
   pagecolor="#ffffff"
   bordercolor="#666666"
   borderopacity="1"
   objecttolerance="10"
   gridtolerance="10"
   guidetolerance="10"
   inkscape:pageopacity="0"
   inkscape:pageshadow="2"
   inkscape:window-width="640"
   inkscape:window-height="480"
   id="namedview5"
   showgrid="false"
   inkscape:zoom="1.4305556"
   inkscape:cx="108"
   inkscape:cy="73"
   inkscape:window-x="65"
   inkscape:window-y="24"
   inkscape:window-maximized="0"
   inkscape:current-layer="Capa_1" />
<path
   d="m 129.47159,97.412762 -26.2871,-72.514716 c -0.3358,-0.879813 -0.88204,-1.643683 -1.63796,-2.291607 -0.75748,-0.648778 -1.555953,-0.97274 -2.396212,-0.97274 H 77.780197 c 0.546245,0 1.02982,0.219101 1.449949,0.659008 0.419356,0.440759 0.650698,0.960804 0.693252,1.562692 l 0.946259,13.337019 c 0.04255,0.647925 -0.126116,1.180758 -0.502918,1.596794 -0.379122,0.416888 -0.841032,0.624906 -1.388051,0.624906 H 68.514912 c -0.546246,0 -1.008156,-0.208018 -1.386505,-0.624906 -0.378348,-0.416036 -0.546245,-0.948869 -0.503691,-1.596794 l 0.945485,-13.337019 c 0.04178,-0.601888 0.272349,-1.121933 0.693252,-1.562692 0.420129,-0.439055 0.90293,-0.659008 1.449949,-0.659008 H 48.343283 c -0.840259,0 -1.638737,0.323962 -2.395434,0.97274 -0.755923,0.647072 -1.302169,1.411794 -1.638737,2.291607 L 18.022009,97.412762 c -1.092491,2.870478 -1.638737,5.555958 -1.638737,8.057288 0,3.38029 0.966375,5.07001 2.899899,5.07001 h 44.378201 c -0.546245,0 -1.008156,-0.21995 -1.386504,-0.65901 -0.378349,-0.44161 -0.546246,-0.9608 -0.503691,-1.56354 l 1.260388,-17.779571 c 0.04178,-0.60274 0.273123,-1.122785 0.693252,-1.563545 0.42013,-0.439907 0.903704,-0.659007 1.44995,-0.659007 H 82.32038 c 0.546246,0 1.029046,0.2191 1.449949,0.659007 0.42013,0.44076 0.651474,0.960805 0.693255,1.563545 l 1.261936,17.779571 c 0.04255,0.60274 -0.12689,1.12193 -0.503691,1.56354 -0.378349,0.43906 -0.840259,0.65901 -1.387281,0.65901 h 44.377422 c 1.93275,0 2.8999,-1.68972 2.8999,-5.07001 0,-2.50048 -0.54702,-5.18596 -1.64028,-8.057288 z M 83.266638,73.032035 c 0.04101,0.555851 -0.12689,1.018777 -0.504464,1.388776 -0.377575,0.370851 -0.820143,0.555851 -1.323834,0.555851 H 66.056806 c -0.504464,0 -0.946258,-0.185 -1.323833,-0.555851 -0.378349,-0.370852 -0.546246,-0.833777 -0.504465,-1.388776 V 72.75411 l 1.513395,-22.225525 c 0.04178,-0.601888 0.273122,-1.122785 0.693252,-1.562692 0.420129,-0.439907 0.903704,-0.65986 1.449949,-0.65986 h 11.724165 c 0.547019,0 1.02982,0.219101 1.450723,0.65986 0.420129,0.439907 0.651471,0.960804 0.693252,1.562692 l 1.512621,22.225525 v 0.277925 z"
   id="path3"
   inkscape:connector-curvature="0" />
</svg>