<?xml version="1.0" encoding="UTF-8" standalone="no"?>
<!-- Generator: Adobe Illustrator 16.0.4, SVG Export Plug-In . SVG Version: 6.00 Build 0)  -->

<svg
   xmlns:dc="http://purl.org/dc/elements/1.1/"
   xmlns:cc="http://creativecommons.org/ns#"
   xmlns:rdf="http://www.w3.org/1999/02/22-rdf-syntax-ns#"
   xmlns:svg="http://www.w3.org/2000/svg"
   xmlns="http://www.w3.org/2000/svg"
   xmlns:sodipodi="http://sodipodi.sourceforge.net/DTD/sodipodi-0.dtd"
   xmlns:inkscape="http://www.inkscape.org/namespaces/inkscape"
   version="1.1"
   id="Capa_1"
   x="0px"
   y="0px"
   width="156.429"
   height="143.472"
   viewBox="0 0 156.429 143.472"
   enable-background="new 0 0 216 146"
   xml:space="preserve"
   inkscape:version="0.48.3.1 r9886"
   sodipodi:docname="icon-cogs.svg"><metadata
   id="metadata15"><rdf:RDF><cc:Work
       rdf:about=""><dc:format>image/svg+xml</dc:format><dc:type
         rdf:resource="http://purl.org/dc/dcmitype/StillImage" /></cc:Work></rdf:RDF></metadata><defs
   id="defs13" /><sodipodi:namedview
   pagecolor="#ffffff"
   bordercolor="#666666"
   borderopacity="1"
   objecttolerance="10"
   gridtolerance="10"
   guidetolerance="10"
   inkscape:pageopacity="0"
   inkscape:pageshadow="2"
   inkscape:window-width="640"
   inkscape:window-height="480"
   id="namedview11"
   showgrid="false"
   fit-margin-top="0"
   fit-margin-left="0"
   fit-margin-right="0"
   fit-margin-bottom="0"
   inkscape:zoom="1.4305556"
   inkscape:cx="78.214"
   inkscape:cy="71.735"
   inkscape:window-x="65"
   inkscape:window-y="24"
   inkscape:window-maximized="0"
   inkscape:current-layer="Capa_1" />
<g
   id="g3"
   transform="matrix(0.82572199,0,0,0.79536618,-12.71146,15.772151)">
	<path
   d="m 124.865,102.207 c 0,-0.543 -0.19,-1.086 -0.57,-1.629 -3.042,-3.641 -5.486,-6.764 -7.333,-9.37 1.14,-2.226 2.009,-4.29 2.606,-6.19 l 12.629,-1.955 c 0.49,-0.055 0.924,-0.34 1.304,-0.855 0.38,-0.518 0.569,-1.046 0.569,-1.589 V 65.545 c 0,-0.597 -0.189,-1.127 -0.569,-1.588 -0.38,-0.461 -0.842,-0.747 -1.385,-0.854 l -12.384,-1.874 c -0.599,-1.847 -1.522,-4.075 -2.771,-6.681 0.814,-1.196 2.037,-2.826 3.667,-4.889 1.629,-2.064 2.771,-3.53 3.422,-4.399 0.38,-0.543 0.57,-1.06 0.57,-1.548 0,-1.467 -3.911,-5.812 -11.731,-13.036 -0.543,-0.434 -1.113,-0.651 -1.712,-0.651 -0.651,0 -1.194,0.188 -1.63,0.57 l -9.614,7.251 C 97.707,36.706 95.67,35.864 93.823,35.32 L 91.949,22.855 c -0.053,-0.543 -0.325,-1.019 -0.814,-1.426 -0.489,-0.407 -1.032,-0.611 -1.63,-0.611 H 74.352 c -1.249,0 -2.064,0.652 -2.444,1.955 -0.652,2.499 -1.276,6.682 -1.874,12.547 -2.335,0.76 -4.426,1.629 -6.273,2.607 l -9.369,-7.332 c -0.543,-0.381 -1.113,-0.57 -1.711,-0.57 -1.033,0 -3.178,1.602 -6.437,4.807 -3.259,3.204 -5.487,5.621 -6.681,7.251 -0.381,0.435 -0.57,0.978 -0.57,1.63 0,0.488 0.189,1.031 0.57,1.629 3.041,3.64 5.485,6.763 7.332,9.369 -1.14,2.228 -2.009,4.291 -2.606,6.192 L 31.66,62.857 c -0.489,0.054 -0.923,0.339 -1.304,0.854 -0.38,0.517 -0.57,1.046 -0.57,1.589 v 15.072 c 0,0.598 0.19,1.128 0.57,1.589 0.381,0.462 0.842,0.72 1.386,0.774 l 12.384,1.955 c 0.652,2.064 1.603,4.291 2.852,6.681 -0.869,1.196 -2.145,2.853 -3.829,4.97 -1.685,2.119 -2.798,3.559 -3.341,4.318 -0.38,0.543 -0.57,1.061 -0.57,1.548 0,1.468 3.911,5.812 11.732,13.036 0.543,0.434 1.113,0.65 1.711,0.65 0.706,0 1.249,-0.188 1.629,-0.569 l 9.614,-7.251 c 2.226,1.141 4.263,1.982 6.11,2.525 l 1.874,12.466 c 0.054,0.543 0.326,1.019 0.814,1.426 0.489,0.407 1.032,0.61 1.63,0.61 h 15.153 c 1.25,0 2.064,-0.651 2.444,-1.955 0.652,-2.554 1.276,-6.763 1.874,-12.629 2.172,-0.65 4.263,-1.494 6.273,-2.524 l 9.37,7.332 c 0.543,0.381 1.113,0.569 1.711,0.569 1.032,0 3.165,-1.615 6.396,-4.848 3.231,-3.23 5.472,-5.662 6.722,-7.292 0.38,-0.378 0.57,-0.894 0.57,-1.546 z M 96.675,87.706 c -4.073,4.073 -8.989,6.11 -14.746,6.11 -5.758,0 -10.674,-2.037 -14.747,-6.11 -4.073,-4.073 -6.11,-8.989 -6.11,-14.747 0,-5.757 2.037,-10.673 6.11,-14.746 4.073,-4.074 8.989,-6.11 14.747,-6.11 5.757,0 10.673,2.036 14.746,6.11 4.074,4.073 6.11,8.989 6.11,14.746 0,5.758 -2.036,10.674 -6.11,14.747 z"
   id="path5"
   inkscape:connector-curvature="0" />
	<path
   d="m 174.074,106.445 c -0.705,-1.575 -1.52,-2.987 -2.443,-4.237 2.77,-6.138 4.154,-9.886 4.154,-11.243 0,-0.216 -0.107,-0.407 -0.325,-0.57 -6.519,-3.802 -9.886,-5.703 -10.103,-5.703 l -0.489,0.164 c -2.226,2.227 -4.726,5.269 -7.495,9.125 -1.086,-0.108 -1.9,-0.164 -2.443,-0.164 -0.545,0 -1.358,0.056 -2.445,0.164 -0.758,-1.142 -2.172,-2.975 -4.235,-5.5 -2.063,-2.525 -3.313,-3.789 -3.748,-3.789 -0.108,0 -0.923,0.435 -2.444,1.305 -1.521,0.869 -3.123,1.792 -4.807,2.771 -1.686,0.979 -2.634,1.521 -2.852,1.63 -0.219,0.162 -0.326,0.353 -0.326,0.569 0,1.358 1.385,5.104 4.154,11.243 -0.922,1.25 -1.737,2.662 -2.443,4.236 -8.094,0.814 -12.141,1.656 -12.141,2.525 v 11.406 c 0,0.869 4.047,1.711 12.141,2.525 0.65,1.466 1.466,2.879 2.443,4.235 -2.769,6.138 -4.154,9.886 -4.154,11.244 0,0.216 0.107,0.407 0.326,0.57 6.625,3.856 9.994,5.784 10.103,5.784 0.435,0 1.685,-1.276 3.748,-3.829 2.063,-2.554 3.476,-4.399 4.235,-5.54 1.086,0.107 1.9,0.162 2.445,0.162 0.543,0 1.357,-0.055 2.443,-0.162 0.759,1.141 2.172,2.986 4.236,5.54 2.063,2.553 3.312,3.829 3.748,3.829 0.108,0 3.477,-1.929 10.103,-5.784 0.218,-0.163 0.325,-0.353 0.325,-0.57 0,-1.358 -1.385,-5.106 -4.154,-11.244 0.977,-1.356 1.792,-2.769 2.443,-4.235 8.094,-0.814 12.141,-1.656 12.141,-2.525 v -11.406 c 0,-0.869 -4.047,-1.711 -12.141,-2.526 z m -11.773,15.602 c -2.035,2.037 -4.494,3.057 -7.373,3.057 -2.879,0 -5.337,-1.02 -7.373,-3.057 -2.037,-2.037 -3.056,-4.494 -3.056,-7.373 0,-2.824 1.033,-5.27 3.097,-7.333 2.064,-2.063 4.508,-3.096 7.332,-3.096 2.824,0 5.27,1.032 7.334,3.096 2.063,2.063 3.096,4.509 3.096,7.333 -0.001,2.879 -1.019,5.336 -3.057,7.373 z"
   id="path7"
   inkscape:connector-curvature="0" />
	<path
   d="m 174.074,23.016 c -0.705,-1.575 -1.52,-2.987 -2.443,-4.237 2.77,-6.137 4.154,-9.885 4.154,-11.243 0,-0.216 -0.107,-0.407 -0.325,-0.57 -6.519,-3.802 -9.886,-5.703 -10.103,-5.703 l -0.489,0.163 c -2.226,2.228 -4.726,5.269 -7.495,9.125 -1.086,-0.108 -1.9,-0.163 -2.443,-0.163 -0.545,0 -1.358,0.055 -2.445,0.163 -0.758,-1.141 -2.172,-2.974 -4.235,-5.499 -2.063,-2.526 -3.313,-3.789 -3.748,-3.789 -0.108,0 -0.923,0.434 -2.444,1.304 -1.521,0.87 -3.123,1.793 -4.807,2.771 -1.686,0.978 -2.634,1.521 -2.852,1.629 -0.219,0.163 -0.326,0.353 -0.326,0.57 0,1.358 1.385,5.106 4.154,11.243 -0.922,1.25 -1.737,2.662 -2.443,4.237 -8.094,0.814 -12.141,1.656 -12.141,2.525 v 11.406 c 0,0.869 4.047,1.711 12.141,2.525 0.65,1.466 1.466,2.879 2.443,4.237 -2.769,6.138 -4.154,9.885 -4.154,11.243 0,0.216 0.107,0.407 0.326,0.57 6.625,3.856 9.994,5.784 10.103,5.784 0.435,0 1.685,-1.276 3.748,-3.829 2.063,-2.553 3.476,-4.399 4.235,-5.54 1.086,0.108 1.9,0.163 2.445,0.163 0.543,0 1.357,-0.055 2.443,-0.163 0.759,1.141 2.172,2.987 4.236,5.54 2.063,2.553 3.312,3.829 3.748,3.829 0.108,0 3.477,-1.928 10.103,-5.784 0.218,-0.163 0.325,-0.353 0.325,-0.57 0,-1.358 -1.385,-5.105 -4.154,-11.243 0.977,-1.358 1.792,-2.77 2.443,-4.237 8.094,-0.814 12.141,-1.656 12.141,-2.525 V 25.542 c 0,-0.869 -4.047,-1.711 -12.141,-2.526 z m -11.773,15.602 c -2.035,2.037 -4.494,3.056 -7.373,3.056 -2.879,0 -5.337,-1.019 -7.373,-3.056 -2.037,-2.036 -3.056,-4.494 -3.056,-7.373 0,-2.824 1.033,-5.269 3.097,-7.333 2.064,-2.064 4.508,-3.096 7.332,-3.096 2.824,0 5.27,1.033 7.334,3.096 2.063,2.064 3.096,4.509 3.096,7.333 -0.001,2.879 -1.019,5.337 -3.057,7.373 z"
   id="path9"
   inkscape:connector-curvature="0" />
</g>
</svg>