<?xml version="1.0" encoding="UTF-8" standalone="no"?>
<!-- Generator: Adobe Illustrator 16.0.4, SVG Export Plug-In . SVG Version: 6.00 Build 0)  -->

<svg
   xmlns:dc="http://purl.org/dc/elements/1.1/"
   xmlns:cc="http://creativecommons.org/ns#"
   xmlns:rdf="http://www.w3.org/1999/02/22-rdf-syntax-ns#"
   xmlns:svg="http://www.w3.org/2000/svg"
   xmlns="http://www.w3.org/2000/svg"
   xmlns:sodipodi="http://sodipodi.sourceforge.net/DTD/sodipodi-0.dtd"
   xmlns:inkscape="http://www.inkscape.org/namespaces/inkscape"
   version="1.1"
   id="Capa_1"
   x="0px"
   y="0px"
   width="150"
   height="130"
   viewBox="0 0 150 130"
   enable-background="new 0 0 216 146"
   xml:space="preserve"
   inkscape:version="0.48.3.1 r9886"
   sodipodi:docname="phone.svg"><metadata
   id="metadata9"><rdf:RDF><cc:Work
       rdf:about=""><dc:format>image/svg+xml</dc:format><dc:type
         rdf:resource="http://purl.org/dc/dcmitype/StillImage" /></cc:Work></rdf:RDF></metadata><defs
   id="defs7" /><sodipodi:namedview
   pagecolor="#ffffff"
   bordercolor="#666666"
   borderopacity="1"
   objecttolerance="10"
   gridtolerance="10"
   guidetolerance="10"
   inkscape:pageopacity="0"
   inkscape:pageshadow="2"
   inkscape:window-width="640"
   inkscape:window-height="480"
   id="namedview5"
   showgrid="false"
   inkscape:zoom="1.4305556"
   inkscape:cx="108"
   inkscape:cy="73"
   inkscape:window-x="65"
   inkscape:window-y="24"
   inkscape:window-maximized="0"
   inkscape:current-layer="Capa_1" />
<path
   d="m 121.81898,92.374208 c -0.26163,-0.85881 -1.92314,-2.123316 -4.98454,-3.79176 -0.82914,-0.525121 -2.01088,-1.239918 -3.53956,-2.146147 -1.53111,-0.906229 -2.91972,-1.741329 -4.16505,-2.505301 -1.24694,-0.762216 -2.4166,-1.502479 -3.50898,-2.216397 -0.17468,-0.143135 -0.72128,-0.560247 -1.63978,-1.252212 -0.9185,-0.691087 -1.69371,-1.203915 -2.32885,-1.538482 -0.63353,-0.333688 -1.2566,-0.500533 -1.869203,-0.500533 -0.874225,0 -1.966604,0.679672 -3.277943,2.039015 -1.311338,1.359343 -2.514002,2.837234 -3.606381,4.436306 -1.093184,1.598195 -2.251573,3.076085 -3.475167,4.435429 -1.224398,1.360221 -2.230644,2.039015 -3.017125,2.039015 -0.393643,0 -0.8863,-0.119426 -1.476362,-0.356521 -0.589257,-0.237972 -1.03764,-0.442576 -1.345148,-0.607665 C 83.279797,90.241233 82.755745,89.908422 82.011929,89.406132 81.267308,88.905599 80.852735,88.630745 80.765795,88.582448 74.775822,84.957532 69.638338,80.807496 65.353346,76.134094 61.069158,71.459815 57.264748,65.855597 53.941725,59.321441 c -0.04347,-0.09572 -0.295434,-0.54883 -0.754281,-1.359343 -0.459653,-0.811391 -0.765551,-1.383053 -0.9185,-1.71762 -0.15295,-0.333689 -0.338904,-0.822807 -0.557058,-1.466475 -0.218153,-0.643668 -0.327633,-1.180205 -0.327633,-1.60961 0,-0.857932 0.623067,-1.955593 1.8692,-3.291226 1.246134,-1.334756 2.601747,-2.599262 4.066034,-3.790882 1.465093,-1.191621 2.819901,-2.503545 4.066034,-3.934017 1.246134,-1.43135 1.8692,-2.622971 1.8692,-3.576618 0,-0.667378 -0.152949,-1.347928 -0.458847,-2.039015 -0.305899,-0.692844 -0.776016,-1.538482 -1.410353,-2.540427 -0.634337,-1.001945 -1.01671,-1.597316 -1.147924,-1.788748 -0.655266,-1.191621 -1.332268,-2.467542 -2.032614,-3.826885 -0.700347,-1.359344 -1.465093,-2.874116 -2.295848,-4.543438 -0.830756,-1.668445 -1.486023,-2.95666 -1.96741,-3.862889 -1.530297,-3.337768 -2.688686,-5.151103 -3.475972,-5.436495 -0.305899,-0.143135 -0.765551,-0.215142 -1.377348,-0.215142 -1.180929,0 -2.721691,0.237973 -4.623896,0.715675 -1.902205,0.476824 -3.399497,0.977357 -4.492682,1.502478 -2.186368,1.001067 -4.503146,3.910308 -6.951943,8.726844 -2.229839,4.482848 -3.344758,8.919154 -3.344758,13.307163 0,1.286459 0.07647,2.538671 0.229424,3.755757 0.152949,1.216208 0.426648,2.587845 0.820291,4.114033 0.393642,1.526188 0.710811,2.659852 0.9507,3.398359 0.239888,0.738506 0.688271,2.061846 1.344343,3.97002 0.655266,1.908173 1.048909,3.076085 1.180123,3.50549 1.530298,4.674279 3.344758,8.847147 5.443382,12.520359 3.452627,6.104751 8.164268,12.413228 14.132507,18.923675 5.968239,6.510447 11.750524,11.650136 17.34766,15.418186 3.366492,2.2884 7.193442,4.26858 11.47763,5.93878 0.393643,0.14226 1.465092,0.57167 3.213543,1.28822 1.748451,0.7148 2.962386,1.20391 3.639387,1.46647 0.677001,0.26256 1.716251,0.60855 3.114529,1.03795 1.400693,0.42941 2.657291,0.72797 3.77221,0.89569 1.114919,0.16509 2.262843,0.25027 3.442967,0.25027 4.021758,0 8.088598,-1.21709 12.198908,-3.64862 4.4146,-2.67127 7.08155,-5.19941 8.00005,-7.58528 0.48219,-1.19074 0.94024,-2.82494 1.37735,-4.899957 0.43792,-2.074143 0.65607,-3.754882 0.65607,-5.043097 8e-4,-0.670012 -0.0652,-1.170545 -0.19722,-1.506868 z"
   id="path3"
   inkscape:connector-curvature="0" />
</svg>